<svg xmlns="http://www.w3.org/2000/svg" viewBox="0 0 500 500"><g id="freepik--Clouds--inject-66"><path id="freepik--Cloud--inject-66" d="M97,51.16a10.42,10.42,0,0,1,3.44-.64c1.11-.08,1.46-.31,1.67-.55a8.2,8.2,0,0,1,9.84-2.9,6.28,6.28,0,0,1,7.42-4.19c-.13-3.46,4.29-7.18,8.25-8s7.12-.47,9.29,2c2.33-4.54,11.44-5.81,16.36-3.41,2.84,1.38,5.24,2.79,6.42,5.39A10.84,10.84,0,0,1,160.7,44c1.93-1.69,5.77-2.15,8.34-1.16,2.76,1.07,3,3.16,3.11,5.28a9.69,9.69,0,0,1,5-.09c1.75.52,2.75,1.88,2.51,3,1.38-.08,4.66,1,4.29,2.49-.43,1.64-4.18,1.47-5.58,1.42a24.84,24.84,0,0,1-3.92-.62,6.11,6.11,0,0,1-2,.39c-2.39,0-3.4-1-3.78-1.93-1.17,2.46-5.32,4.33-8.25,5.08-5.52,1.41-13.34.55-16.74-3.58a6.08,6.08,0,0,1-1.64,2,9.47,9.47,0,0,1-5.11,2.07c-2.27.22-8.35.51-10.07-3.1-1.21,2.4-6.63,3.49-10.75,2.91a16.9,16.9,0,0,1-4.61-1.4,25.26,25.26,0,0,1-2.66-1.59,2.21,2.21,0,0,0-2.26-.15c-2.82.85-6.11,1.2-9,0C95.28,54.06,94.79,52.14,97,51.16Z" style="fill:#f5f5f5"></path><path id="freepik--cloud--inject-66" d="M404.54,52.25a11.3,11.3,0,0,1-7.57,0,1.86,1.86,0,0,0-1.9.13,23.92,23.92,0,0,1-2.23,1.34A14,14,0,0,1,389,54.9c-3.46.49-8-.42-9-2.44-1.45,3-6.57,2.79-8.47,2.61a8,8,0,0,1-4.3-1.74,5.06,5.06,0,0,1-1.39-1.69c-2.86,3.47-9.43,4.2-14.08,3-2.47-.63-6-2.21-6.94-4.27-.32.75-1.17,1.61-3.18,1.62a5,5,0,0,1-1.72-.32,21.19,21.19,0,0,1-3.3.51c-1.18.05-4.33.19-4.69-1.19-.32-1.22,2.45-2.16,3.61-2.1-.2-.93.64-2.08,2.11-2.51a8,8,0,0,1,4.23.08c.12-1.79.3-3.54,2.62-4.44,2.16-.84,5.4-.45,7,1a9.22,9.22,0,0,1,.9-4.34c1-2.19,3-3.38,5.4-4.54,4.14-2,11.81-.95,13.76,2.87,1.83-2.1,4.62-2.39,7.82-1.71s7.05,3.84,6.95,6.75a5.28,5.28,0,0,1,6.24,3.53A6.88,6.88,0,0,1,400.76,48c.18.2.48.39,1.42.46a8.72,8.72,0,0,1,2.88.54C406.88,49.82,406.48,51.44,404.54,52.25Z" style="fill:#f5f5f5"></path><path id="freepik--cloud--inject-66" d="M189.47,65.63a7.47,7.47,0,0,1,2.47-.46c.8-.06,1.05-.22,1.21-.39a5.88,5.88,0,0,1,7.07-2.09,4.52,4.52,0,0,1,5.33-3c-.08-2.49,3.09-5.16,5.94-5.76s5.12-.34,6.69,1.46c1.67-3.27,8.22-4.19,11.76-2.46,2,1,3.77,2,4.61,3.88a7.74,7.74,0,0,1,.77,3.71,6.57,6.57,0,0,1,6-.83c2,.77,2.14,2.27,2.24,3.79a6.91,6.91,0,0,1,3.62-.06c1.26.37,2,1.35,1.81,2.15,1-.06,3.35.75,3.08,1.79s-3,1.06-4,1a18.26,18.26,0,0,1-2.82-.44,4.63,4.63,0,0,1-1.47.28c-1.72,0-2.44-.75-2.72-1.39-.84,1.76-3.82,3.11-5.93,3.65-4,1-9.59.4-12-2.57a4.34,4.34,0,0,1-1.18,1.44,6.86,6.86,0,0,1-3.67,1.49c-1.64.15-6,.36-7.25-2.23-.87,1.72-4.77,2.51-7.73,2.08a12,12,0,0,1-3.32-1,20.31,20.31,0,0,1-1.9-1.14,1.59,1.59,0,0,0-1.63-.11,9.71,9.71,0,0,1-6.47,0C188.26,67.72,187.92,66.33,189.47,65.63Z" style="fill:#f0f0f0"></path><path id="freepik--cloud--inject-66" d="M485,67.63a5.36,5.36,0,0,0-1.77-.32c-.57,0-.75-.16-.86-.29a4.24,4.24,0,0,0-5.08-1.5,3.24,3.24,0,0,0-3.82-2.16c.06-1.78-2.22-3.7-4.27-4.13s-3.67-.25-4.79,1c-1.2-2.34-5.89-3-8.44-1.76a6.23,6.23,0,0,0-3.31,2.78,5.66,5.66,0,0,0-.55,2.67,4.69,4.69,0,0,0-4.29-.6c-1.43.55-1.54,1.63-1.61,2.72a5,5,0,0,0-2.6,0c-.9.26-1.41,1-1.29,1.54-.71,0-2.41.53-2.21,1.28s2.15.76,2.87.73a13.9,13.9,0,0,0,2-.31,3.32,3.32,0,0,0,1,.2c1.23,0,1.75-.54,2-1,.6,1.27,2.74,2.23,4.26,2.62,2.84.73,6.87.28,8.63-1.84a3.17,3.17,0,0,0,.85,1,5,5,0,0,0,2.63,1.07c1.17.11,4.31.26,5.2-1.6.62,1.23,3.42,1.8,5.54,1.49a8.53,8.53,0,0,0,2.38-.71c.56-.27.88-.53,1.37-.82a1.12,1.12,0,0,1,1.17-.08,6.91,6.91,0,0,0,4.64,0C485.9,69.13,486.15,68.14,485,67.63Z" style="fill:#f0f0f0"></path></g><g id="freepik--Rocket--inject-66"><g id="freepik--rocket--inject-66"><ellipse cx="419.52" cy="285.08" rx="29.05" ry="11.91" style="fill:#BA68C8"></ellipse><ellipse cx="419.52" cy="285.08" rx="29.05" ry="11.91" style="fill:#fafafa"></ellipse><path d="M389,277.13a12.91,12.91,0,0,1,25.81,0c0,.12,0,.23,0,.36s0,.23,0,.36c-.15,1.78-1.41,3.54-3.78,4.91-5,2.91-13.22,2.91-18.26,0-2.36-1.37-3.62-3.13-3.77-4.91,0-.13,0-.24,0-.36S389,277.25,389,277.13Z" style="fill:#f5f5f5"></path><path d="M396.3,265.86h0a12.89,12.89,0,0,1,18.51,11.27c0,.12,0,.23,0,.36s0,.23,0,.36c-.15,1.78-1.41,3.54-3.78,4.91a17.29,17.29,0,0,1-6.48,2c3.35-.58,5.52-4.32,4.49-8.45C407.85,271.55,403,264.62,396.3,265.86Z" style="fill:#fafafa"></path><path d="M389,277.85c0-.13,0-.24,0-.36s0-.24,0-.36a12.87,12.87,0,0,1,4.38-9.33c-1.4,1.44-4.52,6.88-1.13,11,2.23,2.72,12.81,6.61,21.52,1.61a8.83,8.83,0,0,1-2.74,2.33c-5,2.91-13.22,2.91-18.26,0C390.41,281.39,389.15,279.63,389,277.85Z" style="fill:#f0f0f0"></path><g style="opacity:0.5;mix-blend-mode:lighten"><path d="M402,267.48c-.58,1.32.53,3.08,2.48,3.93s4,.49,4.57-.83-.54-3.08-2.48-3.93S402.61,266.17,402,267.48Z" style="fill:#fff"></path></g><g style="opacity:0.5;mix-blend-mode:lighten"><path d="M409.51,272.84a1.54,1.54,0,0,0,1,1.91,1.38,1.38,0,1,0-1-1.91Z" style="fill:#fff"></path></g><path d="M443.83,277.47a11,11,0,0,0-21.91,0c0,.11,0,.2,0,.31s0,.2,0,.3c.12,1.52,1.19,3,3.2,4.17a17.1,17.1,0,0,0,15.51,0c2-1.16,3.08-2.65,3.2-4.17,0-.1,0-.2,0-.3S443.84,277.58,443.83,277.47Z" style="fill:#f5f5f5"></path><path d="M437.63,267.91h0a10.93,10.93,0,0,0-15.71,9.56c0,.11,0,.2,0,.31s0,.2,0,.3c.12,1.52,1.19,3,3.2,4.17a14.49,14.49,0,0,0,5.5,1.72c-2.84-.49-4.68-3.66-3.81-7.17C427.83,272.73,431.94,266.85,437.63,267.91Z" style="fill:#fafafa"></path><path d="M443.83,278.08c0-.1,0-.2,0-.3s0-.2,0-.31a10.91,10.91,0,0,0-3.72-7.92c1.19,1.23,3.84,5.84,1,9.36-1.89,2.31-10.88,5.61-18.27,1.37a7.44,7.44,0,0,0,2.32,2,17.1,17.1,0,0,0,15.51,0C442.64,281.09,443.71,279.6,443.83,278.08Z" style="fill:#f0f0f0"></path><g style="opacity:0.5;mix-blend-mode:lighten"><path d="M432.76,269.28c.49,1.12-.45,2.61-2.1,3.34s-3.4.41-3.89-.71.46-2.61,2.11-3.34S432.27,268.16,432.76,269.28Z" style="fill:#fff"></path></g><g style="opacity:0.5;mix-blend-mode:lighten"><path d="M426.41,273.83a1.44,1.44,0,1,1-1.75-.49A1.29,1.29,0,0,1,426.41,273.83Z" style="fill:#fff"></path></g><path d="M454.84,279.45a7.25,7.25,0,0,0-14.49,0,1.41,1.41,0,0,0,0,.2,1.48,1.48,0,0,0,0,.21,3.69,3.69,0,0,0,2.12,2.75,11.29,11.29,0,0,0,10.25,0,3.72,3.72,0,0,0,2.12-2.75v-.41Z" style="fill:#f5f5f5"></path><path d="M450.74,273.13h0a7.23,7.23,0,0,0-10.39,6.32,1.41,1.41,0,0,0,0,.2,1.48,1.48,0,0,0,0,.21,3.69,3.69,0,0,0,2.12,2.75,9.55,9.55,0,0,0,3.63,1.14c-1.88-.33-3.09-2.42-2.52-4.74C444.25,276.32,447,272.43,450.74,273.13Z" style="fill:#fafafa"></path><path d="M454.84,279.86v-.41a7.25,7.25,0,0,0-2.46-5.24c.78.81,2.54,3.87.63,6.19-1.25,1.53-7.19,3.72-12.08.91a4.84,4.84,0,0,0,1.54,1.3,11.29,11.29,0,0,0,10.25,0A3.72,3.72,0,0,0,454.84,279.86Z" style="fill:#f0f0f0"></path><g style="opacity:0.5;mix-blend-mode:lighten"><path d="M447.52,274c.32.74-.3,1.72-1.39,2.2s-2.25.27-2.57-.46.3-1.73,1.39-2.21S447.19,273.3,447.52,274Z" style="fill:#fff"></path></g><g style="opacity:0.5;mix-blend-mode:lighten"><path d="M443.32,277a1,1,0,1,1-1.16-.32A.87.87,0,0,1,443.32,277Z" style="fill:#fff"></path></g><path d="M467.29,282.58a9.85,9.85,0,0,0-19.69,0,2.44,2.44,0,0,0,0,.27,2.62,2.62,0,0,0,0,.28c.11,1.36,1.07,2.7,2.88,3.75a15.42,15.42,0,0,0,13.94,0c1.8-1.05,2.76-2.39,2.87-3.75a2.62,2.62,0,0,0,0-.28A2.44,2.44,0,0,0,467.29,282.58Z" style="fill:#ebebeb"></path><path d="M461.72,274h0a9.84,9.84,0,0,0-14.12,8.6,2.44,2.44,0,0,0,0,.27,2.62,2.62,0,0,0,0,.28c.11,1.36,1.07,2.7,2.88,3.75a13.2,13.2,0,0,0,4.94,1.54c-2.55-.44-4.2-3.3-3.42-6.45C452.91,278.32,456.61,273,461.72,274Z" style="fill:#f0f0f0"></path><path d="M467.29,283.13a2.62,2.62,0,0,0,0-.28,2.44,2.44,0,0,0,0-.27,9.78,9.78,0,0,0-3.34-7.12c1.07,1.1,3.45,5.25.86,8.41-1.7,2.08-9.77,5-16.42,1.23a7,7,0,0,0,2.09,1.78,15.42,15.42,0,0,0,13.94,0C466.22,285.83,467.18,284.49,467.29,283.13Z" style="fill:#e6e6e6"></path><g style="opacity:0.5;mix-blend-mode:lighten"><path d="M457.35,275.22c.44,1-.41,2.34-1.89,3s-3,.36-3.49-.64.4-2.35,1.89-3S456.91,274.21,457.35,275.22Z" style="fill:#fff"></path></g><g style="opacity:0.5;mix-blend-mode:lighten"><path d="M451.64,279.3a1.29,1.29,0,1,1-1.58-.43A1.17,1.17,0,0,1,451.64,279.3Z" style="fill:#fff"></path></g><path d="M434.17,221.41a15.38,15.38,0,0,1-5.43,11.74,10,10,0,0,0-3.65,7.63v53.4a3.14,3.14,0,0,1-1.85,2.59,8.07,8.07,0,0,1-2.33.85,10.74,10.74,0,0,1-4.3,0,8.19,8.19,0,0,1-2.32-.85,3.16,3.16,0,0,1-1.85-2.59V240.71a9.94,9.94,0,0,0-3.63-7.55,15.29,15.29,0,0,1-5.45-11.87,15.41,15.41,0,0,1,30.81.12Z" style="fill:#e6e6e6"></path><path d="M427.36,221.41a8.59,8.59,0,0,1-3.63,7,7,7,0,0,0-2.82,5.71v61a2.17,2.17,0,0,1-2.13,2.2h0a2.17,2.17,0,0,1-2.13-2.2V234a6.88,6.88,0,0,0-2.82-5.61,8.58,8.58,0,0,1-3.62-7.24,8.6,8.6,0,0,1,17.19.24Z" style="fill:#f5f5f5"></path><path d="M423.31,228.78a3.26,3.26,0,1,1,3.26,3.26A3.26,3.26,0,0,1,423.31,228.78Z" style="fill:#fff;opacity:0.8"></path><path d="M422.74,219.11a2.46,2.46,0,1,1,2.45,2.46A2.45,2.45,0,0,1,422.74,219.11Z" style="fill:#fff;opacity:0.7000000000000001"></path><path d="M418.05,215.2a1.22,1.22,0,1,1,1.21,1.21A1.21,1.21,0,0,1,418.05,215.2Z" style="fill:#fff;opacity:0.8"></path><path d="M408.33,216.66a3.3,3.3,0,1,1,3.3,3.3A3.3,3.3,0,0,1,408.33,216.66Z" style="fill:#fff;opacity:0.7000000000000001"></path><path d="M407.78,222.62a1.55,1.55,0,1,0,1.55-1.55A1.55,1.55,0,0,0,407.78,222.62Z" style="fill:#fff;opacity:0.8"></path><path d="M408,228.53a3,3,0,1,1,3,3A3,3,0,0,1,408,228.53Z" style="fill:#fff;opacity:0.7000000000000001"></path><path d="M415.42,232.92a2.07,2.07,0,1,1,2.07,2.07A2.07,2.07,0,0,1,415.42,232.92Z" style="fill:#fff;opacity:0.7000000000000001"></path><path d="M404.85,219.11a1.06,1.06,0,0,1,2.11,0,1.06,1.06,0,1,1-2.11,0Z" style="fill:#fff;opacity:0.7000000000000001"></path><circle cx="429.19" cy="214.75" r="1.39" style="fill:#fff;opacity:0.8"></circle><path d="M429.18,221.57a1.4,1.4,0,1,1,1.4,1.39A1.4,1.4,0,0,1,429.18,221.57Z" style="fill:#fff;opacity:0.7000000000000001"></path><path d="M416.09,223a1.4,1.4,0,1,1,1.4,1.4A1.4,1.4,0,0,1,416.09,223Z" style="fill:#fff;opacity:0.8"></path><path d="M477.57,282.6a6,6,0,0,0-12,0v.34a3.09,3.09,0,0,0,1.76,2.28,9.34,9.34,0,0,0,8.49,0,3.09,3.09,0,0,0,1.76-2.28v-.34Z" style="fill:#e0e0e0"></path><path d="M474.17,277.36h0a6,6,0,0,0-8.61,5.24v.34a3.09,3.09,0,0,0,1.76,2.28,7.88,7.88,0,0,0,3,.94c-1.56-.27-2.56-2-2.08-3.92C468.8,280,471.05,276.79,474.17,277.36Z" style="fill:#e6e6e6"></path><path d="M477.57,282.94v-.34a6,6,0,0,0-2-4.33c.65.67,2.1,3.19.52,5.12-1,1.27-5.95,3.08-10,.75a4.08,4.08,0,0,0,1.27,1.08,9.34,9.34,0,0,0,8.49,0A3.09,3.09,0,0,0,477.57,282.94Z" style="opacity:0.05"></path><g style="opacity:0.5;mix-blend-mode:lighten"><path d="M471.5,278.12c.27.61-.24,1.43-1.15,1.83s-1.86.22-2.13-.39.25-1.43,1.16-1.83S471.23,277.51,471.5,278.12Z" style="fill:#fff"></path></g><g style="opacity:0.5;mix-blend-mode:lighten"><path d="M468,280.61a.79.79,0,1,1-1-.27A.72.72,0,0,1,468,280.61Z" style="fill:#fff"></path></g><path d="M471.8,290.77a8.27,8.27,0,0,0-16.53,0,2.65,2.65,0,0,0,0,.46,4.23,4.23,0,0,0,2.42,3.14,12.9,12.9,0,0,0,11.7,0,4.26,4.26,0,0,0,2.41-3.14v-.46Z" style="fill:#e6e6e6"></path><path d="M467.12,283.55h0a8.26,8.26,0,0,0-11.85,7.22,2.65,2.65,0,0,0,0,.46,4.23,4.23,0,0,0,2.42,3.14,11.11,11.11,0,0,0,4.15,1.3c-2.15-.37-3.54-2.77-2.88-5.41C459.73,287.19,462.83,282.76,467.12,283.55Z" style="fill:#ebebeb"></path><path d="M471.8,291.23v-.46a8.22,8.22,0,0,0-2.81-6c.9.93,2.9,4.41.73,7.06-1.43,1.74-8.21,4.24-13.79,1a5.89,5.89,0,0,0,1.76,1.48,12.9,12.9,0,0,0,11.7,0A4.26,4.26,0,0,0,471.8,291.23Z" style="fill:#e0e0e0"></path><g style="opacity:0.30000000000000004;mix-blend-mode:lighten"><path d="M463.45,284.59c.37.84-.34,2-1.59,2.52s-2.56.31-2.93-.54.34-2,1.59-2.51S463.08,283.75,463.45,284.59Z" style="fill:#fff"></path></g><g style="opacity:0.30000000000000004;mix-blend-mode:lighten"><path d="M458.66,288a1.09,1.09,0,0,1-2,.86,1.09,1.09,0,0,1,2-.86Z" style="fill:#fff"></path></g><path d="M458.41,295.12a10.26,10.26,0,0,0-20.51,0,2.81,2.81,0,0,0,0,.29,2.53,2.53,0,0,0,0,.28c.11,1.42,1.11,2.82,3,3.91a16.08,16.08,0,0,0,14.52,0c1.87-1.09,2.87-2.49,3-3.91a2.53,2.53,0,0,0,0-.28A2.81,2.81,0,0,0,458.41,295.12Z" style="fill:#f0f0f0"></path><path d="M452.61,286.17h0a10.24,10.24,0,0,0-14.71,8.95,2.81,2.81,0,0,0,0,.29,2.53,2.53,0,0,0,0,.28c.11,1.42,1.11,2.82,3,3.91a13.59,13.59,0,0,0,5.15,1.6c-2.66-.45-4.39-3.43-3.57-6.71C443.43,290.69,447.28,285.18,452.61,286.17Z" style="fill:#f5f5f5"></path><path d="M458.41,295.69a2.53,2.53,0,0,0,0-.28,2.81,2.81,0,0,0,0-.29,10.22,10.22,0,0,0-3.48-7.41c1.11,1.14,3.59,5.46.9,8.76-1.77,2.16-10.19,5.25-17.11,1.28a7.16,7.16,0,0,0,2.18,1.85,16.08,16.08,0,0,0,14.52,0C457.29,298.51,458.29,297.11,458.41,295.69Z" style="fill:#ebebeb"></path><g style="opacity:0.30000000000000004;mix-blend-mode:lighten"><path d="M448.05,287.46c.46,1-.42,2.44-2,3.12s-3.18.38-3.64-.66.43-2.45,2-3.13S447.59,286.41,448.05,287.46Z" style="fill:#fff"></path></g><g style="opacity:0.30000000000000004;mix-blend-mode:lighten"><path d="M442.11,291.71a1.35,1.35,0,1,1-1.65-.45A1.22,1.22,0,0,1,442.11,291.71Z" style="fill:#fff"></path></g><path d="M481.39,286.15a3.63,3.63,0,0,0-7.25,0v.21a1.86,1.86,0,0,0,1.06,1.38,5.72,5.72,0,0,0,5.13,0,1.86,1.86,0,0,0,1.06-1.38.41.41,0,0,0,0-.11A.38.38,0,0,0,481.39,286.15Z" style="fill:#e0e0e0"></path><path d="M481.39,286.15a3.63,3.63,0,0,0-7.25,0v.21a1.86,1.86,0,0,0,1.06,1.38,5.72,5.72,0,0,0,5.13,0,1.86,1.86,0,0,0,1.06-1.38.41.41,0,0,0,0-.11A.38.38,0,0,0,481.39,286.15Z" style="opacity:0.05"></path><path d="M479.34,283h0a3.63,3.63,0,0,0-5.2,3.16v.21a1.86,1.86,0,0,0,1.06,1.38,4.79,4.79,0,0,0,1.82.56,1.83,1.83,0,0,1-1.26-2.37C476.1,284.59,477.46,282.64,479.34,283Z" style="fill:#e0e0e0"></path><g style="opacity:0.05"><path d="M481.39,286.36a.41.41,0,0,0,0-.11.38.38,0,0,0,0-.1,3.61,3.61,0,0,0-1.23-2.62c.4.41,1.27,1.93.32,3.1a5.58,5.58,0,0,1-6.05.45,2.56,2.56,0,0,0,.77.66,5.72,5.72,0,0,0,5.13,0A1.86,1.86,0,0,0,481.39,286.36Z"></path></g><g style="opacity:0.30000000000000004;mix-blend-mode:lighten"><path d="M477.73,283.44c.16.37-.15.87-.7,1.11s-1.12.13-1.28-.24.15-.86.69-1.1S477.57,283.07,477.73,283.44Z" style="fill:#fff"></path></g><g style="opacity:0.30000000000000004;mix-blend-mode:lighten"><path d="M475.63,285a.43.43,0,0,1-.28.53.42.42,0,0,1-.58-.16.48.48,0,0,1,.86-.37Z" style="fill:#fff"></path></g><path d="M363,279.3a6,6,0,0,1,12,0v.34a3.1,3.1,0,0,1-1.76,2.28,9.36,9.36,0,0,1-8.5,0,3.11,3.11,0,0,1-1.75-2.28v-.34Z" style="fill:#e0e0e0"></path><path d="M366.41,274.06h0A6,6,0,0,1,375,279.3v.34a3.1,3.1,0,0,1-1.76,2.28,7.88,7.88,0,0,1-3,.94,3,3,0,0,0,2.08-3.93C371.78,276.71,369.53,273.49,366.41,274.06Z" style="fill:#e6e6e6"></path><path d="M363,279.64v-.34a6,6,0,0,1,2-4.34c-.65.67-2.1,3.2-.53,5.13,1,1.27,6,3.07,10,.75a4.08,4.08,0,0,1-1.27,1.08,9.36,9.36,0,0,1-8.5,0A3.11,3.11,0,0,1,363,279.64Z" style="opacity:0.05"></path><g style="opacity:0.30000000000000004;mix-blend-mode:lighten"><path d="M369.07,274.82c-.26.61.25,1.43,1.16,1.82s1.86.23,2.12-.38-.24-1.43-1.15-1.83S369.34,274.2,369.07,274.82Z" style="fill:#fff"></path></g><g style="opacity:0.30000000000000004;mix-blend-mode:lighten"><path d="M372.55,277.31a.72.72,0,0,0,.46.89.64.64,0,1,0-.46-.89Z" style="fill:#fff"></path></g><path d="M375.22,280.84a8.71,8.71,0,0,1,17.41,0,2.89,2.89,0,0,1,0,.48,4.49,4.49,0,0,1-2.55,3.32,13.64,13.64,0,0,1-12.32,0,4.5,4.5,0,0,1-2.54-3.32,2.89,2.89,0,0,1,0-.48Z" style="fill:#ebebeb"></path><path d="M380.14,273.24h0a8.7,8.7,0,0,1,12.49,7.6,2.89,2.89,0,0,1,0,.48,4.49,4.49,0,0,1-2.55,3.32,11.49,11.49,0,0,1-4.37,1.36c2.26-.39,3.72-2.91,3-5.7C387.93,277.07,384.67,272.4,380.14,273.24Z" style="fill:#f0f0f0"></path><path d="M375.22,281.32a2.89,2.89,0,0,1,0-.48,8.65,8.65,0,0,1,2.95-6.29c-.94,1-3.05,4.63-.76,7.43,1.5,1.84,8.64,4.46,14.52,1.09a6.12,6.12,0,0,1-1.85,1.57,13.64,13.64,0,0,1-12.32,0A4.5,4.5,0,0,1,375.22,281.32Z" style="fill:#e6e6e6"></path><g style="opacity:0.5;mix-blend-mode:lighten"><path d="M384,274.33c-.39.89.36,2.08,1.67,2.65s2.7.33,3.09-.56-.36-2.07-1.67-2.65S384.4,273.44,384,274.33Z" style="fill:#fff"></path></g><g style="opacity:0.5;mix-blend-mode:lighten"><path d="M389.06,277.94a1.15,1.15,0,1,0,1.39-.38A1,1,0,0,0,389.06,277.94Z" style="fill:#fff"></path></g><path d="M370.09,286.16a8.26,8.26,0,0,1,16.52,0,2.65,2.65,0,0,1,0,.46,4.24,4.24,0,0,1-2.42,3.15,12.94,12.94,0,0,1-11.69,0,4.25,4.25,0,0,1-2.41-3.15,2.65,2.65,0,0,1,0-.46Z" style="fill:#e6e6e6"></path><path d="M374.76,279h0a8.16,8.16,0,0,1,3.59-.83,8.26,8.26,0,0,1,8.26,8,2.65,2.65,0,0,1,0,.46,4.24,4.24,0,0,1-2.42,3.15,10.88,10.88,0,0,1-4.14,1.29c2.14-.37,3.53-2.76,2.87-5.41C382.16,282.59,379.05,278.15,374.76,279Z" style="fill:#ebebeb"></path><path d="M370.09,286.62a2.65,2.65,0,0,1,0-.46,8.2,8.2,0,0,1,2.8-6c-.9.92-2.89,4.4-.72,7.06,1.42,1.74,8.2,4.23,13.78,1a5.65,5.65,0,0,1-1.76,1.49,12.94,12.94,0,0,1-11.69,0A4.25,4.25,0,0,1,370.09,286.62Z" style="fill:#e0e0e0"></path><g style="opacity:0.30000000000000004;mix-blend-mode:lighten"><path d="M378.43,280c-.37.84.34,2,1.59,2.51s2.56.31,2.93-.53-.34-2-1.59-2.52S378.8,279.14,378.43,280Z" style="fill:#fff"></path></g><g style="opacity:0.30000000000000004;mix-blend-mode:lighten"><path d="M383.22,283.42a1.08,1.08,0,1,0,1.33-.37A1,1,0,0,0,383.22,283.42Z" style="fill:#fff"></path></g><path d="M382.28,293.88a10.26,10.26,0,0,1,20.52,0,4.21,4.21,0,0,1,0,.58c-.12,1.42-1.12,2.81-3,3.9a16.06,16.06,0,0,1-14.51,0c-1.88-1.09-2.88-2.48-3-3.9a4.21,4.21,0,0,1,0-.58Z" style="fill:#f0f0f0"></path><path d="M388.09,284.93h0a10.24,10.24,0,0,1,14.71,8.95,4.21,4.21,0,0,1,0,.58c-.12,1.42-1.12,2.81-3,3.9a13.61,13.61,0,0,1-5.14,1.61c2.66-.46,4.38-3.43,3.56-6.72C397.26,289.45,393.41,284,388.09,284.93Z" style="fill:#f5f5f5"></path><path d="M382.28,294.46a4.21,4.21,0,0,1,0-.58,10.23,10.23,0,0,1,3.49-7.41c-1.12,1.15-3.6,5.47-.9,8.76,1.77,2.16,10.18,5.25,17.1,1.28a7,7,0,0,1-2.18,1.85,16.06,16.06,0,0,1-14.51,0C383.4,297.27,382.4,295.88,382.28,294.46Z" style="fill:#ebebeb"></path><g style="opacity:0.30000000000000004;mix-blend-mode:lighten"><path d="M392.64,286.22c-.45,1,.43,2.44,2,3.12s3.17.39,3.63-.66-.42-2.45-2-3.12S393.1,285.17,392.64,286.22Z" style="fill:#fff"></path></g><g style="opacity:0.30000000000000004;mix-blend-mode:lighten"><path d="M398.59,290.48a1.35,1.35,0,0,0,2.42,1.06,1.35,1.35,0,0,0-2.42-1.06Z" style="fill:#fff"></path></g><path d="M439.76,295.73a9.37,9.37,0,0,0-18.73,0,3.39,3.39,0,0,0,0,.52c.1,1.3,1,2.57,2.74,3.56a14.6,14.6,0,0,0,13.25,0,4.81,4.81,0,0,0,2.74-3.56v-.52Z" style="fill:#f5f5f5"></path><path d="M434.46,287.55h0A9.36,9.36,0,0,0,421,295.73a3.39,3.39,0,0,0,0,.52c.1,1.3,1,2.57,2.74,3.56a12.53,12.53,0,0,0,4.7,1.47c-2.43-.42-4-3.13-3.26-6.13C426.08,291.68,429.59,286.65,434.46,287.55Z" style="fill:#fafafa"></path><path d="M439.76,296.25v-.52a9.31,9.31,0,0,0-3.18-6.77c1,1,3.28,5,.82,8-1.62,2-9.3,4.8-15.62,1.18a6.52,6.52,0,0,0,2,1.68,14.6,14.6,0,0,0,13.25,0A4.81,4.81,0,0,0,439.76,296.25Z" style="fill:#f0f0f0"></path><g style="opacity:0.5;mix-blend-mode:lighten"><ellipse cx="427.74" cy="289.85" rx="2.79" ry="1.89" transform="translate(-80.45 196.46) rotate(-23.71)" style="fill:#fff"></ellipse></g><g style="opacity:0.5;mix-blend-mode:lighten"><path d="M424.87,292.61a1.23,1.23,0,1,1-1.5-.41A1.12,1.12,0,0,1,424.87,292.61Z" style="fill:#fff"></path></g><path d="M400.64,296.74a8.91,8.91,0,0,1,17.82,0v.5a4.61,4.61,0,0,1-2.61,3.39,13.94,13.94,0,0,1-12.61,0,4.62,4.62,0,0,1-2.6-3.39v-.5Z" style="fill:#f5f5f5"></path><path d="M405.68,289h0a8.8,8.8,0,0,1,3.87-.89,8.92,8.92,0,0,1,8.91,8.66v.5a4.61,4.61,0,0,1-2.61,3.39,11.79,11.79,0,0,1-4.47,1.4c2.31-.4,3.81-3,3.1-5.83C413.65,292.89,410.31,288.12,405.68,289Z" style="fill:#fafafa"></path><path d="M400.64,297.24v-.5a8.86,8.86,0,0,1,3-6.43c-1,1-3.12,4.74-.78,7.6,1.54,1.88,8.84,4.57,14.85,1.12a6.38,6.38,0,0,1-1.89,1.6,13.94,13.94,0,0,1-12.61,0A4.62,4.62,0,0,1,400.64,297.24Z" style="fill:#f0f0f0"></path><g style="opacity:0.5;mix-blend-mode:lighten"><path d="M409.64,290.09c-.4.91.37,2.12,1.71,2.71s2.76.33,3.16-.57-.37-2.13-1.71-2.72S410,289.18,409.64,290.09Z" style="fill:#fff"></path></g><g style="opacity:0.5;mix-blend-mode:lighten"><path d="M414.8,293.78a1.17,1.17,0,1,0,1.43-.39A1.05,1.05,0,0,0,414.8,293.78Z" style="fill:#fff"></path></g><path d="M423.75,299.86a3.63,3.63,0,0,0-7.25,0v.2a1.87,1.87,0,0,0,1.06,1.38,5.66,5.66,0,0,0,5.13,0,1.85,1.85,0,0,0,1.06-1.38.34.34,0,0,0,0-.1A.31.31,0,0,0,423.75,299.86Z" style="fill:#f5f5f5"></path><path d="M421.7,296.69h0a3.63,3.63,0,0,0-5.2,3.17v.2a1.87,1.87,0,0,0,1.06,1.38,4.8,4.8,0,0,0,1.82.57,1.83,1.83,0,0,1-1.26-2.37C418.46,298.29,419.82,296.34,421.7,296.69Z" style="fill:#fafafa"></path><path d="M423.75,300.06a.34.34,0,0,0,0-.1.31.31,0,0,0,0-.1,3.57,3.57,0,0,0-1.23-2.62c.4.4,1.27,1.93.32,3.09-.63.77-3.6,1.86-6,.46a2.67,2.67,0,0,0,.77.65,5.66,5.66,0,0,0,5.13,0A1.85,1.85,0,0,0,423.75,300.06Z" style="fill:#f0f0f0"></path><g style="opacity:0.5;mix-blend-mode:lighten"><path d="M420.09,297.15c.16.37-.15.86-.7,1.1s-1.12.14-1.28-.23.15-.87.69-1.11S419.93,296.78,420.09,297.15Z" style="fill:#fff"></path></g><g style="opacity:0.5;mix-blend-mode:lighten"><path d="M418,298.65a.43.43,0,0,1-.28.54.39.39,0,1,1,.28-.54Z" style="fill:#fff"></path></g><path d="M357.28,281.3a3.63,3.63,0,0,1,7.25,0v.2a1.89,1.89,0,0,1-1.06,1.38,5.68,5.68,0,0,1-5.14,0,1.87,1.87,0,0,1-1.05-1.38.38.38,0,0,1,0-.1A.31.31,0,0,1,357.28,281.3Z" style="fill:#e0e0e0"></path><path d="M357.28,281.3a3.63,3.63,0,0,1,7.25,0v.2a1.89,1.89,0,0,1-1.06,1.38,5.68,5.68,0,0,1-5.14,0,1.87,1.87,0,0,1-1.05-1.38.38.38,0,0,1,0-.1A.31.31,0,0,1,357.28,281.3Z" style="opacity:0.05"></path><path d="M359.33,278.13h0a3.58,3.58,0,0,1,1.57-.36,3.63,3.63,0,0,1,3.63,3.53v.2a1.89,1.89,0,0,1-1.06,1.38,4.86,4.86,0,0,1-1.82.57,1.84,1.84,0,0,0,1.26-2.38C362.57,279.73,361.21,277.78,359.33,278.13Z" style="fill:#e0e0e0"></path><g style="opacity:0.05"><path d="M357.28,281.5a.38.38,0,0,1,0-.1.31.31,0,0,1,0-.1,3.57,3.57,0,0,1,1.23-2.63c-.4.41-1.27,1.94-.32,3.1.63.77,3.6,1.86,6.05.46a2.84,2.84,0,0,1-.77.65,5.68,5.68,0,0,1-5.14,0A1.87,1.87,0,0,1,357.28,281.5Z"></path></g><g style="opacity:0.30000000000000004;mix-blend-mode:lighten"><path d="M360.94,278.59c-.16.37.15.86.7,1.1s1.12.14,1.28-.23-.15-.87-.7-1.11S361.1,278.22,360.94,278.59Z" style="fill:#fff"></path></g><g style="opacity:0.30000000000000004;mix-blend-mode:lighten"><path d="M363,280.09a.48.48,0,0,0,.86.38.48.48,0,0,0-.86-.38Z" style="fill:#fff"></path></g><g id="freepik--Flame--inject-66"><path d="M425.66,208.41l-6.91-1.79-6.9,1.79a27.79,27.79,0,0,0,.08,9.49c.9,5.8,4.94,11.59,6.82,11.59s5.93-5.79,6.83-11.59A27.79,27.79,0,0,0,425.66,208.41Z" style="fill:#f0f0f0"></path><path d="M423.27,209.24h-9.45c-1.35,8.17,3,14.43,4.73,14.43S424.62,217.41,423.27,209.24Z" style="fill:#e0e0e0"></path><path d="M418.55,209.24h1.62a7.21,7.21,0,0,1,.87,4.36c-.19,2.21-1.52,5.07-2.49,5.07s-2.3-2.86-2.5-5.07a7.16,7.16,0,0,1,.88-4.36h1.62" style="fill:#fff"></path></g><path d="M434.69,201.64h0l-1.36-14.45H404.18l-1.36,14.45h0c-.28,2.55,1.26,5.16,4.64,7.11,6.24,3.6,16.36,3.6,22.6,0C433.45,206.8,435,204.19,434.69,201.64Z" style="fill:#37474f"></path><path d="M408.43,193.72c-5.72-3.29-5.72-8.64,0-11.93s15-3.3,20.68,0,5.71,8.64,0,11.93S414.14,197,408.43,193.72Z" style="fill:#455a64"></path><path d="M434.38,198.1l-.46-4.84c-.42,1.86-1.86,3.67-4.34,5.1-6,3.44-15.65,3.44-21.62,0-2.49-1.43-3.93-3.24-4.35-5.1l-.46,4.84c.37,2,1.87,3.92,4.51,5.45,6.14,3.54,16.08,3.54,22.21,0C432.51,202,434,200.09,434.38,198.1Z" style="fill:#BA68C8"></path><path d="M430.24,208.65l.44-.27h0a26.7,26.7,0,0,1-12,2.05c-7.26-.31-11.71-3.09-11.84-5.12a26.88,26.88,0,0,1,.31-5A26.52,26.52,0,0,0,419,202.67c8.13,0,13.07-2.81,15.3-5.39l-.23-2.41-.72-7.68H404.18l-1.36,14.45h0a5.35,5.35,0,0,0,0,1.44c0,.2.08.41.13.61s.17.54.28.81a9.6,9.6,0,0,0,4.19,4.25,23.11,23.11,0,0,0,11.3,2.7,25.74,25.74,0,0,0,3.05-.17q.76-.08,1.5-.21a20.35,20.35,0,0,0,6.75-2.32Z" style="opacity:0.2"></path><path d="M419.18,197.19h-.42c-6,.06-11.29-1.49-15-4.39a3.25,3.25,0,1,1,4-5.1c2.53,2,6.4,3.06,10.91,3h.09c4.51.05,8.38-1,10.91-3a3.25,3.25,0,1,1,4,5.1C430.14,195.64,425,197.19,419.18,197.19Z" style="fill:#455a64"></path><path d="M433.48,179.32l2.46-29.76,9.89,5.71c4.74,2.74,6.87,9.76,6.09,20.13l-1.25,16.67L448,182.84c-1.45-5-5.15-6.77-10.49-4.92Z" style="fill:#263238"></path><path d="M404,179.32l-2.46-29.76-9.89,5.71c-4.75,2.74-6.87,9.76-6.09,20.13l1.25,16.67,2.67-9.23c1.45-5,5.15-6.77,10.49-4.92Z" style="fill:#263238"></path><path d="M444.43,126.11c0-31.79-13.43-59.27-23.42-65.63l-.26-.17-.05,0h0a3.79,3.79,0,0,0-1.93-.52,3.84,3.84,0,0,0-1.93.52h0l-.05,0-.27.17c-10,6.36-23.42,33.84-23.42,65.63,0,30.59,8.58,57.7,9.4,60.22l.06.19h0a9.53,9.53,0,0,0,4.51,4.85c6.47,3.73,16.94,3.73,23.4,0a9.34,9.34,0,0,0,4.58-5C435.86,183.81,444.43,156.7,444.43,126.11Z" style="fill:#f5f5f5"></path><path d="M428.32,68.12A28.22,28.22,0,0,0,421,60.48l-.26-.18a.05.05,0,0,1-.05,0h0a3.88,3.88,0,0,0-1.92-.52,4,4,0,0,0-1.94.52h0s0,0-.05,0l-.27.18a28.28,28.28,0,0,0-7.31,7.65,63.93,63.93,0,0,0-4.28,7.13,7.79,7.79,0,0,0,3.94,4.48c5.47,3.16,14.34,3.16,19.8,0a7.75,7.75,0,0,0,3.94-4.48A65.05,65.05,0,0,0,428.32,68.12Z" style="fill:#455a64"></path><path d="M420.09,61.3l-1.33-13-1.32,13h0a.66.66,0,0,0,.38.54,2.08,2.08,0,0,0,1.88,0,.65.65,0,0,0,.39-.54Z" style="fill:#263238"></path><path d="M393.09,126.11c0,30.59,8.58,57.7,9.4,60.22l.06.19h0a9.53,9.53,0,0,0,4.51,4.85,18.84,18.84,0,0,0,3.6,1.57,264.23,264.23,0,0,1-9.09-66.06c0-35.22,8.67-60.18,14.94-66.4C406.53,66.84,393.09,94.32,393.09,126.11Z" style="opacity:0.15"></path><path d="M444.43,126.11c0,30.59-8.57,57.7-9.39,60.22l-.06.19h0a9.55,9.55,0,0,1-4.52,4.85c4.85-17.72,10.39-39,10.39-64.49,0-35.22-13.57-60.18-19.84-66.4C431,66.84,444.43,94.32,444.43,126.11Z" style="fill:#fff;opacity:0.35000000000000003"></path><path d="M447.68,170.94l-9.29-17.13-2.45,1.42-4.27,26.92,4,3.26a30.14,30.14,0,0,1,10.49,17l2.66,12.31s1.17-7.83,2.46-17.3C452.46,189,452.43,179.16,447.68,170.94Z" style="fill:#455a64"></path><path d="M431.67,182.15l4.27-26.92,9.28,17.12c4.75,8.23,5.67,17.71,4.89,27.18l-1.26,15.22-2.66-12.31a30.14,30.14,0,0,0-10.49-17Z" style="fill:#37474f"></path><path d="M389.83,170.94l9.29-17.13,2.45,1.42,4.27,26.92-4,3.26a30.09,30.09,0,0,0-10.49,17l-2.66,12.31s-1.17-7.83-2.46-17.3C385.05,189,385.08,179.16,389.83,170.94Z" style="fill:#455a64"></path><path d="M405.84,182.15l-4.27-26.92-9.28,17.12c-4.75,8.23-5.67,17.71-4.89,27.18l1.26,15.22,2.66-12.31a30.09,30.09,0,0,1,10.49-17Z" style="fill:#37474f"></path><circle cx="418.76" cy="108.66" r="10.52" style="fill:#BA68C8"></circle><circle cx="418.76" cy="108.66" r="10.52" style="opacity:0.15"></circle><circle cx="418.76" cy="109.88" r="10.52" transform="translate(-10.17 168.62) rotate(-22.5)" style="fill:#BA68C8"></circle><path d="M422.55,119.69l-3.4-9.35,8.62,5L428,115l-8.62-5,9.8-1.72c0-.14-.05-.28-.07-.41l-9.8,1.73,6.39-7.62-.31-.27-6.4,7.62v-10h-.41v10l-6.4-7.62-.31.27,6.39,7.62-9.8-1.73c0,.13-.05.27-.07.41l9.8,1.72-8.62,5,.21.36,8.62-5L415,119.69l.39.14,3.4-9.35,3.41,9.35Z" style="opacity:0.2"></path><circle cx="418.76" cy="109.88" r="7.6" style="fill:#37474f"></circle><path d="M418.76,102.28a7.6,7.6,0,0,0-7.56,6.88,7.6,7.6,0,0,0,15.13,0A7.6,7.6,0,0,0,418.76,102.28Z" style="fill:#455a64"></path><circle cx="422.57" cy="107.95" r="2.27" style="fill:#e0e0e0"></circle><path d="M423.41,112.44a1.31,1.31,0,1,1-1.3-1.31A1.31,1.31,0,0,1,423.41,112.44Z" style="fill:#e0e0e0"></path><circle cx="418.76" cy="135.2" r="8.02" transform="translate(-19.86 170.55) rotate(-22.5)" style="fill:#BA68C8"></circle><circle cx="418.76" cy="135.2" r="8.02" transform="translate(-19.86 170.55) rotate(-22.5)" style="opacity:0.15"></circle><circle cx="418.76" cy="136.13" r="8.02" transform="translate(-20.22 170.62) rotate(-22.5)" style="fill:#BA68C8"></circle><path d="M421.65,143.61l-2.59-7.13,6.57,3.8.15-.28-6.56-3.79,7.47-1.31-.06-.31-7.47,1.31,4.87-5.8-.24-.21-4.87,5.81v-7.58h-.31v7.58l-4.88-5.81-.24.21,4.88,5.8-7.47-1.31-.06.31,7.47,1.31L411.74,140c.05.1.11.19.16.28l6.57-3.8-2.59,7.13.29.11,2.59-7.13,2.6,7.13Z" style="opacity:0.2"></path><path d="M424.55,136.13a5.79,5.79,0,1,1-5.79-5.79A5.79,5.79,0,0,1,424.55,136.13Z" style="fill:#37474f"></path><path d="M418.76,130.34a5.28,5.28,0,1,0,5.77,5.28A5.79,5.79,0,0,0,418.76,130.34Z" style="fill:#455a64"></path><path d="M423.39,134.66a1.73,1.73,0,1,1-1.73-1.73A1.74,1.74,0,0,1,423.39,134.66Z" style="fill:#e0e0e0"></path><path d="M422.31,138.08a1,1,0,1,1-2,0,1,1,0,0,1,2,0Z" style="fill:#e0e0e0"></path></g></g><g id="freepik--Bars--inject-66"><g id="freepik--bar-graph--inject-66"><g style="opacity:0.30000000000000004"><path d="M258.66,369.92a.59.59,0,0,1-.29-.07l-36.71-21.2a.57.57,0,0,1,0-1l45.89-26.49a.53.53,0,0,1,.57,0l36.71,21.19a.57.57,0,0,1,0,1l-45.89,26.5A.58.58,0,0,1,258.66,369.92Zm-35.59-21.76,35.59,20.54,44.76-25.84-35.58-20.54Z" style="fill:#BA68C8"></path></g><polygon points="258.66 364.06 258.65 221.16 231.12 205.26 231.12 348.16 258.66 364.06" style="fill:#BA68C8"></polygon><polygon points="258.66 364.06 258.65 221.16 231.12 205.26 231.12 348.16 258.66 364.06" style="opacity:0.2"></polygon><polygon points="258.66 364.06 295.37 342.86 295.38 199.96 258.65 221.16 258.66 364.06" style="fill:#BA68C8"></polygon><polygon points="295.38 199.96 267.84 184.06 231.12 205.26 258.65 221.16 295.38 199.96" style="fill:#BA68C8"></polygon><polygon points="295.38 199.96 267.84 184.06 231.12 205.26 258.65 221.16 295.38 199.96" style="fill:#fff;opacity:0.25"></polygon><path d="M295.38,200l-37.09,20.45-12-6.73-15.13-8.42L246,214.15l12.18,7.27c-.29,4.13-.37,125.84-.31,130a109.82,109.82,0,0,0,.81,12.67,109.81,109.81,0,0,0,.8-12.67c.06-4,0-125.57-.29-129.57Z" style="fill:#fff;opacity:0.30000000000000004"></path><g style="opacity:0.30000000000000004"><path d="M189.82,409.66a.55.55,0,0,1-.28-.07l-36.72-21.2a.56.56,0,0,1-.28-.49.58.58,0,0,1,.28-.49l45.9-26.49a.56.56,0,0,1,.56,0L236,382.12a.55.55,0,0,1,0,1l-45.89,26.5A.53.53,0,0,1,189.82,409.66ZM154.24,387.9l35.58,20.55,44.76-25.84L199,362.06Z" style="fill:#BA68C8"></path></g><polygon points="189.82 403.8 189.82 317.36 162.28 301.46 162.29 387.9 189.82 403.8" style="fill:#BA68C8"></polygon><polygon points="189.82 403.8 189.82 317.36 162.28 301.46 162.29 387.9 189.82 403.8" style="fill:#fff;opacity:0.1"></polygon><polygon points="189.82 403.8 226.53 382.61 226.54 296.16 189.82 317.36 189.82 403.8" style="fill:#BA68C8"></polygon><polygon points="189.82 403.8 226.53 382.61 226.54 296.16 189.82 317.36 189.82 403.8" style="fill:#fff;opacity:0.30000000000000004"></polygon><polygon points="226.54 296.16 199 280.26 162.28 301.46 189.82 317.36 226.54 296.16" style="fill:#BA68C8"></polygon><polygon points="226.54 296.16 199 280.26 162.28 301.46 189.82 317.36 226.54 296.16" style="fill:#fff;opacity:0.55"></polygon><path d="M190.3,318l36.24-21.87-37.09,20.45c-4-2.27-8-4.49-12-6.73l-15.13-8.42,14.86,8.89c4.06,2.43,8.12,4.87,12.2,7.27-.13,4.28-.26,25-.3,29.25s-.07,26.31,0,30.69.1,8.75.24,13.12.29,8.75.57,13.12c.28-4.37.46-8.75.57-13.12s.21-8.75.24-13.12,0-26.32,0-30.69C190.56,342.72,190.43,322.18,190.3,318Z" style="fill:#fff;opacity:0.30000000000000004"></path><g style="opacity:0.30000000000000004"><path d="M121,449.41a.6.6,0,0,1-.28-.08L84,428.14a.57.57,0,0,1,0-1l45.89-26.5a.58.58,0,0,1,.57,0l36.71,21.2a.57.57,0,0,1,0,1l-45.89,26.49A.6.6,0,0,1,121,449.41ZM85.4,427.65,121,448.19l44.76-25.84L130.16,401.8Z" style="fill:#BA68C8"></path></g><polygon points="120.98 443.54 120.98 403.48 93.44 387.58 93.45 427.65 120.98 443.54" style="fill:#BA68C8"></polygon><polygon points="120.98 443.54 120.98 403.48 93.44 387.58 93.45 427.65 120.98 443.54" style="opacity:0.45"></polygon><polygon points="120.98 443.54 157.7 422.35 157.7 382.28 120.98 403.48 120.98 443.54" style="fill:#BA68C8"></polygon><polygon points="120.98 443.54 157.7 422.35 157.7 382.28 120.98 403.48 120.98 443.54" style="opacity:0.30000000000000004"></polygon><polygon points="157.7 382.28 130.17 366.39 93.44 387.58 120.98 403.48 157.7 382.28" style="fill:#BA68C8"></polygon><polygon points="157.7 382.28 130.17 366.39 93.44 387.58 120.98 403.48 157.7 382.28" style="opacity:0.15"></polygon><path d="M157.7,382.28l-37.08,20.45L108.57,396l-15.13-8.42,14.86,8.89,12.17,7.27c-.28,2.51-.35,29.48-.3,32a43,43,0,0,0,.81,7.8,42.15,42.15,0,0,0,.81-7.8c0-2.39,0-29.23-.27-31.62Z" style="fill:#fff;opacity:0.30000000000000004"></path><g style="opacity:0.30000000000000004"><path d="M327.49,330.18a.6.6,0,0,1-.28-.08L290.5,308.91a.57.57,0,0,1,0-1l45.89-26.5a.58.58,0,0,1,.57,0l36.71,21.2a.57.57,0,0,1,0,1L327.78,330.1A.6.6,0,0,1,327.49,330.18Zm-35.58-21.76L327.49,329l44.77-25.84-35.59-20.54Z" style="fill:#BA68C8"></path></g><polygon points="327.49 324.31 327.49 117.34 299.95 101.44 299.96 308.42 327.49 324.31" style="fill:#BA68C8"></polygon><polygon points="327.49 324.31 327.49 117.34 299.95 101.44 299.96 308.42 327.49 324.31" style="fill:#fff;opacity:0.30000000000000004"></polygon><polygon points="327.49 324.31 364.21 303.12 364.21 96.15 327.49 117.34 327.49 324.31" style="fill:#BA68C8"></polygon><polygon points="327.49 324.31 364.21 303.12 364.21 96.15 327.49 117.34 327.49 324.31" style="fill:#fff;opacity:0.55"></polygon><polygon points="364.21 96.15 336.68 80.25 299.95 101.44 327.49 117.34 364.21 96.15" style="fill:#BA68C8"></polygon><polygon points="364.21 96.15 336.68 80.25 299.95 101.44 327.49 117.34 364.21 96.15" style="fill:#fff;opacity:0.75"></polygon><path d="M328,118l36.23-21.87L327.12,116.6c-4-2.27-8-4.5-12-6.73L300,101.44l14.86,8.89c4.06,2.44,8.12,4.88,12.2,7.27-.13,4.86-.26,9.72-.3,14.58s-.06,157.52,0,162.46.1,9.89.24,14.84.29,9.89.57,14.84c.28-4.95.46-9.9.57-14.84s.22-9.89.24-14.84,0-157.52,0-162.46C328.23,127.46,328.1,122.74,328,118Z" style="fill:#fff;opacity:0.30000000000000004"></path></g></g><g id="freepik--Target--inject-66"><g id="freepik--target--inject-66"><g id="freepik--target--inject-66"><path d="M307.93,31.41c4.59-2.66,10.93-2.28,17.95,1.77,14,8.09,25.37,27.78,25.37,44,0,8.12-2.86,13.82-7.48,16.45-1.21.69-6.07,3.62-7.28,4.32-4.59,2.66-10.93,2.28-17.94-1.77-14-8.09-25.38-27.77-25.38-44,0-8.08,2.84-13.77,7.43-16.42" style="fill:#BA68C8"></path><path d="M351.25,77.14h0c0,8.12-2.86,13.82-7.48,16.45-1.21.69-6.07,3.62-7.28,4.32-4.59,2.66-10.93,2.28-17.94-1.76Z" style="opacity:0.65"></path><path d="M347.55,59.75a47.11,47.11,0,0,1,3.7,17.39l-32.7,19h0a46.84,46.84,0,0,1-13.2-11.9Z" style="opacity:0.55"></path><path d="M305.35,84.24c-7.3-9.36-12.18-21.46-12.18-32.06,0-8.08,2.84-13.77,7.43-16.42l7.33-4.35c4.59-2.66,10.93-2.28,17.95,1.77,9.18,5.3,17.21,15.57,21.67,26.57Z" style="opacity:0.4"></path><path d="M318.55,37.53c14,8.1,25.38,27.78,25.38,44s-11.37,22.75-25.38,14.65-25.39-27.77-25.38-44S304.55,29.44,318.55,37.53Z" style="fill:#BA68C8"></path><path d="M318.55,37.53c14,8.1,25.38,27.78,25.38,44s-11.37,22.75-25.38,14.65-25.39-27.77-25.38-44S304.55,29.44,318.55,37.53Z" style="opacity:0.2"></path><path d="M318.55,44.85c10.52,6.07,19,20.84,19,33s-8.53,17.06-19,11-19-20.83-19-33S308,38.78,318.55,44.85Z" style="fill:#fafafa"></path><path d="M318.55,51.52c7.33,4.23,13.27,14.52,13.27,23s-5.94,11.89-13.27,7.66-13.27-14.52-13.27-23S311.22,47.29,318.55,51.52Z" style="fill:#BA68C8"></path><path d="M318.55,51.52c7.33,4.23,13.27,14.52,13.27,23s-5.94,11.89-13.27,7.66-13.27-14.52-13.27-23S311.22,47.29,318.55,51.52Z" style="opacity:0.2"></path><path d="M318.55,58.36a16.2,16.2,0,0,1,7.34,12.72c0,4.68-3.28,6.58-7.34,4.24a16.22,16.22,0,0,1-7.34-12.72C311.21,57.91,314.5,56,318.55,58.36Z" style="fill:#fafafa"></path><path d="M318.55,63.26a6.86,6.86,0,0,1,3.1,5.37c0,2-1.39,2.77-3.1,1.78a6.84,6.84,0,0,1-3.1-5.36C315.45,63.07,316.84,62.27,318.55,63.26Z" style="fill:#455a64"></path></g><g id="freepik--Arrow--inject-66"><path d="M269,95.76s-.59,7.44-4,9.43-5.31-4-3.08-5.33Z" style="fill:#BA68C8"></path><path d="M269,95.76s-6.74-3.21-10.18-1.23.84,6.62,3.07,5.33Z" style="fill:#BA68C8"></path><path d="M269,95.76s-6.74-3.21-10.18-1.23.84,6.62,3.07,5.33Z" style="fill:#fff;opacity:0.5"></path><polygon points="309.73 73.07 256.78 103.65 256.03 102.33 309.84 71.25 309.73 73.07" style="fill:#37474f"></polygon><path d="M257.7,100.85a2.22,2.22,0,1,1-3,.81A2.22,2.22,0,0,1,257.7,100.85Z" style="fill:#263238"></path><path d="M308.4,73c-1.82,2.4,1.48,6.56,1.48,6.56l8.6-12.38Z" style="fill:#BA68C8"></path><path d="M308.4,73c-1.82,2.4,1.48,6.56,1.48,6.56l8.6-12.38Z" style="fill:#BA68C8"></path><path d="M303.46,68.39s2,4.94,4.94,4.57l10.08-5.82Z" style="fill:#BA68C8"></path><path d="M303.46,68.39s2,4.94,4.94,4.57l10.08-5.82Z" style="fill:#fff;opacity:0.5"></path></g></g></g><g id="freepik--gears-2--inject-66"><g id="freepik--Gears--inject-66"><path d="M329.92,395.34l-7.62-4.4a2.08,2.08,0,0,0-1.69-.08l-7.73,3.58a2.86,2.86,0,0,1-1.76.11,46.45,46.45,0,0,0-6-1.43A1.47,1.47,0,0,1,304,392l-1-5.1a1.19,1.19,0,0,0-1.13-.93H290.69a1.18,1.18,0,0,0-1.12.93l-1,5.1a1.47,1.47,0,0,1-1.12,1.08,46.45,46.45,0,0,0-6,1.43,2.86,2.86,0,0,1-1.76-.11L272,390.86a2.07,2.07,0,0,0-1.69.08l-7.62,4.4a.61.61,0,0,0-.36.52h0l0,6.61h0a.64.64,0,0,0,.31.51l3.5,2.52a1.66,1.66,0,0,1-.86.36l-10.16.65a1,1,0,0,0-1,1v4.32h0l0,8a1,1,0,0,0,.95,1l10.16.64a1.74,1.74,0,0,1,.88.37l-3.49,2.51a.65.65,0,0,0-.3.51h0l0,6.61h0a.62.62,0,0,0,.36.52l7.62,4.4a2,2,0,0,0,1.69.08l7.73-3.58a2.86,2.86,0,0,1,1.76-.11,46.45,46.45,0,0,0,6,1.43,1.47,1.47,0,0,1,1.12,1.08l1,5.1a1.2,1.2,0,0,0,1.13.93h11.21a1.2,1.2,0,0,0,1.13-.93l1-5.1a1.47,1.47,0,0,1,1.12-1.08,46.45,46.45,0,0,0,6-1.43,2.9,2.9,0,0,1,1.77.11l7.72,3.58a2,2,0,0,0,1.69-.08l7.63-4.4a.63.63,0,0,0,.35-.5h0l0-6.63h0a.65.65,0,0,0-.3-.51l-3.51-2.52a1.66,1.66,0,0,1,.86-.36l10.16-.64a1,1,0,0,0,.95-1V407.52a1,1,0,0,0-.95-1l-10.16-.65a1.74,1.74,0,0,1-.88-.37L330,403a.65.65,0,0,0,.3-.51h0l0-6.62h0A.61.61,0,0,0,329.92,395.34Zm-51.46,17.12c.55-1.82,2.18-3.61,5-5.22,7.11-4.1,18.64-4.1,25.76,0,2.61,1.51,4.31,3.17,5.08,4.86-.61,2.08-2.3,4.08-5.08,5.69-7.11,4.1-18.65,4.1-25.76,0A10.58,10.58,0,0,1,278.46,412.46Z" style="fill:#BA68C8"></path><path d="M329.92,395.34l-7.62-4.4a2.08,2.08,0,0,0-1.69-.08l-7.73,3.58a2.86,2.86,0,0,1-1.76.11,46.45,46.45,0,0,0-6-1.43A1.47,1.47,0,0,1,304,392l-1-5.1a1.19,1.19,0,0,0-1.13-.93H290.69a1.18,1.18,0,0,0-1.12.93l-1,5.1a1.47,1.47,0,0,1-1.12,1.08,46.45,46.45,0,0,0-6,1.43,2.86,2.86,0,0,1-1.76-.11L272,390.86a2.07,2.07,0,0,0-1.69.08l-7.62,4.4a.61.61,0,0,0-.36.52h0l0,6.61h0a.64.64,0,0,0,.31.51l3.5,2.52a1.66,1.66,0,0,1-.86.36l-10.16.65a1,1,0,0,0-1,1v4.32h0l0,8a1,1,0,0,0,.95,1l10.16.64a1.74,1.74,0,0,1,.88.37l-3.49,2.51a.65.65,0,0,0-.3.51h0l0,6.61h0a.62.62,0,0,0,.36.52l7.62,4.4a2,2,0,0,0,1.69.08l7.73-3.58a2.86,2.86,0,0,1,1.76-.11,46.45,46.45,0,0,0,6,1.43,1.47,1.47,0,0,1,1.12,1.08l1,5.1a1.2,1.2,0,0,0,1.13.93h11.21a1.2,1.2,0,0,0,1.13-.93l1-5.1a1.47,1.47,0,0,1,1.12-1.08,46.45,46.45,0,0,0,6-1.43,2.9,2.9,0,0,1,1.77.11l7.72,3.58a2,2,0,0,0,1.69-.08l7.63-4.4a.63.63,0,0,0,.35-.5h0l0-6.63h0a.65.65,0,0,0-.3-.51l-3.51-2.52a1.66,1.66,0,0,1,.86-.36l10.16-.64a1,1,0,0,0,.95-1V407.52a1,1,0,0,0-.95-1l-10.16-.65a1.74,1.74,0,0,1-.88-.37L330,403a.65.65,0,0,0,.3-.51h0l0-6.62h0A.61.61,0,0,0,329.92,395.34Zm-51.46,17.12c.55-1.82,2.18-3.61,5-5.22,7.11-4.1,18.64-4.1,25.76,0,2.61,1.51,4.31,3.17,5.08,4.86-.61,2.08-2.3,4.08-5.08,5.69-7.11,4.1-18.65,4.1-25.76,0A10.58,10.58,0,0,1,278.46,412.46Z" style="fill:#fff;opacity:0.2"></path><path d="M266.62,415.75a1.87,1.87,0,0,0-1.37-.91l-10.16-.64a1,1,0,0,1-1-1v-1.35l0,8a1,1,0,0,0,.95,1l10.16.64a1.67,1.67,0,0,1,.89.36l2.55-1.83a.81.81,0,0,0,.11-1.24A15.32,15.32,0,0,1,266.62,415.75Zm-4.32-13.28h0a.64.64,0,0,0,.31.51l3.5,2.53a1.8,1.8,0,0,0,.51-.56,15.32,15.32,0,0,1,2.16-3,.81.81,0,0,0-.12-1.24l-6-4.35a.73.73,0,0,1-.3-.44Z" style="opacity:0.1"></path><path d="M309.18,402.92c-7.12-4.11-18.65-4.11-25.76,0-4.5,2.6-6.15,6.21-5,9.56.53-1.82,2.17-3.62,5-5.23,7.11-4.11,18.64-4.1,25.76,0,2.6,1.51,4.31,3.16,5.08,4.86C315.21,408.86,313.51,405.42,309.18,402.92Z" style="opacity:0.1"></path><path d="M338.45,413.32a1,1,0,0,1-.94.88l-10.15.64a1.44,1.44,0,0,0-.52.14v6.61a1.64,1.64,0,0,1,.5-.14l10.16-.65a1,1,0,0,0,.95-1Zm-8.17-17.46h0a.34.34,0,0,1,0,.2.49.49,0,0,1-.13.2.74.74,0,0,1-.13.12l-6.05,4.35a.44.44,0,0,0-.14.13.73.73,0,0,0-.19.37.76.76,0,0,0,0,.26l0,.13a1.13,1.13,0,0,0,.2.35.63.63,0,0,1,.11.13A14.72,14.72,0,0,1,326,405a2,2,0,0,0,.48.54L330,403a.68.68,0,0,0,.3-.51h0Zm0,29a.67.67,0,0,1-.36.47l-7.62,4.39a2,2,0,0,1-1.19.21v6.6a1.92,1.92,0,0,0,1.18-.2l7.62-4.4a.59.59,0,0,0,.36-.5Zm-49.81,1.17a2.42,2.42,0,0,0-.76.19L272,429.84a1.7,1.7,0,0,1-.69.14l0,6.6a1.88,1.88,0,0,0,.69-.13l7.73-3.58a2.18,2.18,0,0,1,.76-.18Zm22.38,8.12a1.16,1.16,0,0,1-.94.5H290.69a1.1,1.1,0,0,1-.68-.24v6.61a1.13,1.13,0,0,0,.68.24h11.2a1.2,1.2,0,0,0,1-.56Z" style="fill:#BA68C8"></path><path d="M338.45,413.32a1,1,0,0,1-.94.88l-10.15.64a1.44,1.44,0,0,0-.52.14v6.61a1.64,1.64,0,0,1,.5-.14l10.16-.65a1,1,0,0,0,.95-1Zm-8.17-17.46h0a.34.34,0,0,1,0,.2.49.49,0,0,1-.13.2.74.74,0,0,1-.13.12l-6.05,4.35a.44.44,0,0,0-.14.13.73.73,0,0,0-.19.37.76.76,0,0,0,0,.26l0,.13a1.13,1.13,0,0,0,.2.35.63.63,0,0,1,.11.13A14.72,14.72,0,0,1,326,405a2,2,0,0,0,.48.54L330,403a.68.68,0,0,0,.3-.51h0Zm0,29a.67.67,0,0,1-.36.47l-7.62,4.39a2,2,0,0,1-1.19.21v6.6a1.92,1.92,0,0,0,1.18-.2l7.62-4.4a.59.59,0,0,0,.36-.5Zm-49.81,1.17a2.42,2.42,0,0,0-.76.19L272,429.84a1.7,1.7,0,0,1-.69.14l0,6.6a1.88,1.88,0,0,0,.69-.13l7.73-3.58a2.18,2.18,0,0,1,.76-.18Zm22.38,8.12a1.16,1.16,0,0,1-.94.5H290.69a1.1,1.1,0,0,1-.68-.24v6.61a1.13,1.13,0,0,0,.68.24h11.2a1.2,1.2,0,0,0,1-.56Z" style="fill:#fff;opacity:0.7000000000000001"></path><path d="M320.61,390.86l-7.73,3.58a2.86,2.86,0,0,1-1.76.11,46.45,46.45,0,0,0-6-1.43A1.47,1.47,0,0,1,304,392l-1-5.1a1.19,1.19,0,0,0-1.13-.93H290.69a1.18,1.18,0,0,0-1.12.93l-1,5.1a1.47,1.47,0,0,1-1.12,1.08,46.45,46.45,0,0,0-6,1.43,2.86,2.86,0,0,1-1.76-.11L272,390.86a2.07,2.07,0,0,0-1.69.08l-7.62,4.4a.57.57,0,0,0-.06,1l6.05,4.35a.81.81,0,0,1,.11,1.24,15.44,15.44,0,0,0-2.16,3,1.87,1.87,0,0,1-1.37.91l-10.16.65a1,1,0,0,0-1,1v5.67a1,1,0,0,0,1,1l10.16.64a1.87,1.87,0,0,1,1.37.91,15.14,15.14,0,0,0,2.16,3,.81.81,0,0,1-.11,1.24l-6.05,4.35a.57.57,0,0,0,.06,1l7.62,4.4a2,2,0,0,0,1.69.08l7.72-3.58a2.9,2.9,0,0,1,1.77-.11,44.85,44.85,0,0,0,6,1.43,1.47,1.47,0,0,1,1.12,1.09l1,5.09a1.18,1.18,0,0,0,1.12.93H301.9a1.19,1.19,0,0,0,1.13-.93l1-5.09a1.47,1.47,0,0,1,1.12-1.09,44.85,44.85,0,0,0,6-1.43,2.86,2.86,0,0,1,1.76.11l7.73,3.58a2,2,0,0,0,1.69-.08l7.62-4.4a.57.57,0,0,0,.06-1L323.93,420a.81.81,0,0,1-.11-1.24,15.14,15.14,0,0,0,2.16-3,1.87,1.87,0,0,1,1.37-.91l10.16-.64a1,1,0,0,0,.95-1v-5.67a1,1,0,0,0-.95-1l-10.16-.65A1.87,1.87,0,0,1,326,405a15.44,15.44,0,0,0-2.16-3,.81.81,0,0,1,.11-1.24l6.05-4.35a.57.57,0,0,0-.06-1l-7.62-4.4A2.08,2.08,0,0,0,320.61,390.86Zm-11.43,12.06c7.11,4.1,7.11,10.76,0,14.87s-18.65,4.1-25.76,0-7.11-10.77,0-14.88S302.07,398.81,309.18,402.92Z" style="fill:#BA68C8"></path><g style="opacity:0.55"><path d="M320.61,390.86l-7.73,3.58a2.86,2.86,0,0,1-1.76.11,46.45,46.45,0,0,0-6-1.43A1.47,1.47,0,0,1,304,392l-1-5.1a1.19,1.19,0,0,0-1.13-.93H290.69a1.18,1.18,0,0,0-1.12.93l-1,5.1a1.47,1.47,0,0,1-1.12,1.08,46.45,46.45,0,0,0-6,1.43,2.86,2.86,0,0,1-1.76-.11L272,390.86a2.07,2.07,0,0,0-1.69.08l-7.62,4.4a.57.57,0,0,0-.06,1l6.05,4.35a.81.81,0,0,1,.11,1.24,15.44,15.44,0,0,0-2.16,3,1.87,1.87,0,0,1-1.37.91l-10.16.65a1,1,0,0,0-1,1v5.67a1,1,0,0,0,1,1l10.16.64a1.87,1.87,0,0,1,1.37.91,15.14,15.14,0,0,0,2.16,3,.81.81,0,0,1-.11,1.24l-6.05,4.35a.57.57,0,0,0,.06,1l7.62,4.4a2,2,0,0,0,1.69.08l7.72-3.58a2.9,2.9,0,0,1,1.77-.11,44.85,44.85,0,0,0,6,1.43,1.47,1.47,0,0,1,1.12,1.09l1,5.09a1.18,1.18,0,0,0,1.12.93H301.9a1.19,1.19,0,0,0,1.13-.93l1-5.09a1.47,1.47,0,0,1,1.12-1.09,44.85,44.85,0,0,0,6-1.43,2.86,2.86,0,0,1,1.76.11l7.73,3.58a2,2,0,0,0,1.69-.08l7.62-4.4a.57.57,0,0,0,.06-1L323.93,420a.81.81,0,0,1-.11-1.24,15.14,15.14,0,0,0,2.16-3,1.87,1.87,0,0,1,1.37-.91l10.16-.64a1,1,0,0,0,.95-1v-5.67a1,1,0,0,0-.95-1l-10.16-.65A1.87,1.87,0,0,1,326,405a15.44,15.44,0,0,0-2.16-3,.81.81,0,0,1,.11-1.24l6.05-4.35a.57.57,0,0,0-.06-1l-7.62-4.4A2.08,2.08,0,0,0,320.61,390.86Zm-11.43,12.06c7.11,4.1,7.11,10.76,0,14.87s-18.65,4.1-25.76,0-7.11-10.77,0-14.88S302.07,398.81,309.18,402.92Z" style="fill:#fff"></path><path d="M301.9,435.07H290.69a1.57,1.57,0,0,1-1.49-1.24l-1-5.09a1.1,1.1,0,0,0-.81-.79,46.5,46.5,0,0,1-6.05-1.44,2.48,2.48,0,0,0-1.5.09l-7.73,3.58a2.44,2.44,0,0,1-2-.09l-7.62-4.4a1,1,0,0,1-.54-.81,1,1,0,0,1,.46-.85l6-4.35a.43.43,0,0,0,.19-.31.43.43,0,0,0-.14-.37,16,16,0,0,1-2.21-3.07,1.52,1.52,0,0,0-1.07-.72l-10.16-.64a1.42,1.42,0,0,1-1.3-1.38v-5.67a1.41,1.41,0,0,1,1.3-1.39l10.15-.64a1.47,1.47,0,0,0,1.07-.72,15.67,15.67,0,0,1,2.21-3.06.46.46,0,0,0,.14-.38.43.43,0,0,0-.19-.31l-6-4.35a.93.93,0,0,1,.08-1.65l7.62-4.41a2.44,2.44,0,0,1,2-.09l7.73,3.58a2.48,2.48,0,0,0,1.5.09,46.12,46.12,0,0,1,6.05-1.44,1.1,1.1,0,0,0,.81-.78l1-5.09a1.56,1.56,0,0,1,1.5-1.24h11.2a1.56,1.56,0,0,1,1.5,1.24l1,5.09a1.07,1.07,0,0,0,.81.78,46.5,46.5,0,0,1,6.05,1.44,2.48,2.48,0,0,0,1.5-.09l7.73-3.58a2.44,2.44,0,0,1,2,.09l7.62,4.41a.93.93,0,0,1,.08,1.65l-6,4.35a.43.43,0,0,0-.19.31.46.46,0,0,0,.14.38,15.67,15.67,0,0,1,2.21,3.06,1.45,1.45,0,0,0,1.07.72l10.15.64a1.41,1.41,0,0,1,1.3,1.39v5.67a1.41,1.41,0,0,1-1.3,1.38l-10.16.64a1.53,1.53,0,0,0-1.06.72A16,16,0,0,1,324.1,419a.43.43,0,0,0-.14.37.43.43,0,0,0,.19.31l6,4.35a1,1,0,0,1,.46.85,1,1,0,0,1-.54.81l-7.62,4.4a2.44,2.44,0,0,1-2,.09l-7.73-3.58a2.48,2.48,0,0,0-1.5-.09,46.9,46.9,0,0,1-6.05,1.44,1.07,1.07,0,0,0-.81.78l-1,5.1A1.57,1.57,0,0,1,301.9,435.07Zm-21.13-9.39a2.62,2.62,0,0,1,.82.12,46.61,46.61,0,0,0,6,1.41A1.85,1.85,0,0,1,289,428.6l1,5.09a.83.83,0,0,0,.76.63H301.9a.83.83,0,0,0,.77-.63l1-5.09a1.85,1.85,0,0,1,1.42-1.39A46.61,46.61,0,0,0,311,425.8a3.16,3.16,0,0,1,2,.12l7.73,3.58a1.69,1.69,0,0,0,1.34-.06l7.63-4.4a.31.31,0,0,0,.17-.2.33.33,0,0,0-.15-.21l-6.05-4.34a1.2,1.2,0,0,1-.5-.85,1.23,1.23,0,0,1,.34-.95,15.33,15.33,0,0,0,2.1-2.92,2.23,2.23,0,0,1,1.68-1.1l10.16-.65a.66.66,0,0,0,.6-.63v-5.67a.66.66,0,0,0-.6-.64l-10.16-.64a2.25,2.25,0,0,1-1.68-1.11,15,15,0,0,0-2.11-2.92,1.26,1.26,0,0,1-.33-.95,1.24,1.24,0,0,1,.5-.85l6.05-4.34a.33.33,0,0,0,.15-.21.34.34,0,0,0-.17-.2l-7.63-4.4a1.69,1.69,0,0,0-1.34-.06L313,394.78a3.21,3.21,0,0,1-2,.13,45.13,45.13,0,0,0-6-1.42,1.84,1.84,0,0,1-1.42-1.38l-1-5.1a.83.83,0,0,0-.77-.63H290.7a.83.83,0,0,0-.77.63l-1,5.1a1.84,1.84,0,0,1-1.43,1.38,45,45,0,0,0-6,1.42,3.21,3.21,0,0,1-2-.13l-7.73-3.58a1.69,1.69,0,0,0-1.34.06l-7.63,4.4a.34.34,0,0,0-.17.2.33.33,0,0,0,.15.21l6,4.35a1.18,1.18,0,0,1,.51.84,1.23,1.23,0,0,1-.34.95,15.33,15.33,0,0,0-2.1,2.92,2.25,2.25,0,0,1-1.68,1.11l-10.16.64a.66.66,0,0,0-.6.64v5.67a.66.66,0,0,0,.6.63l10.16.65a2.23,2.23,0,0,1,1.68,1.1,14.9,14.9,0,0,0,2.1,2.92,1.24,1.24,0,0,1,.34,1,1.22,1.22,0,0,1-.51.84l-6,4.34a.33.33,0,0,0-.15.21.31.31,0,0,0,.17.2l7.63,4.4a1.69,1.69,0,0,0,1.34.06l7.73-3.58A3.07,3.07,0,0,1,280.77,425.68Zm15.53-4.45a26.73,26.73,0,0,1-13.07-3.12c-3.56-2.05-5.52-4.81-5.52-7.76s2-5.7,5.52-7.76c7.21-4.16,18.93-4.16,26.14,0h0c3.56,2.06,5.52,4.81,5.52,7.76s-2,5.71-5.52,7.76A26.76,26.76,0,0,1,296.3,421.23Zm0-21a25.94,25.94,0,0,0-12.69,3c-3.32,1.92-5.15,4.44-5.15,7.11s1.83,5.2,5.15,7.11c7,4,18.38,4,25.38,0,3.32-1.91,5.15-4.44,5.15-7.11s-1.83-5.19-5.15-7.11h0A25.94,25.94,0,0,0,296.3,400.21Z" style="fill:#fff"></path></g><path d="M237.07,425.19a1.53,1.53,0,0,1-1-1.59l.32-2.67a1.22,1.22,0,0,0-1.09-1.37l-7-.73a2,2,0,0,0-1.81,1l-1.4,2.73a2.5,2.5,0,0,1-1.82,1.19,36.55,36.55,0,0,0-3.64.45,3.53,3.53,0,0,1-2.27-.46l-3.78-2.51a2.72,2.72,0,0,0-2.21-.23l-5.62,2.26a.83.83,0,0,0-.58.72h0V424h0v5.74h0a.91.91,0,0,0,.27.63l.33.35a3,3,0,0,1-1.55.48l-6.42-.26a1.73,1.73,0,0,0-1.63,1.14l-1,3.11a1.26,1.26,0,0,0,0,.38h0v5.8h0a1.06,1.06,0,0,0,.91,1l5,.85-1.94,1a.81.81,0,0,0-.51.7h0v5.81h0a.93.93,0,0,0,.35.65l3.59,3a2.58,2.58,0,0,0,2.15.43l5.47-1.72a3.87,3.87,0,0,1,2.33.16,30.62,30.62,0,0,0,2.93,1.08,1.41,1.41,0,0,1,.72.5v3.92h0a1.21,1.21,0,0,0,1.09,1.2l7,.74a2,2,0,0,0,1.81-1l1.4-2.73a2.46,2.46,0,0,1,1.82-1.19,36.18,36.18,0,0,0,3.64-.45,3.57,3.57,0,0,1,2.27.45l3.79,2.52a2.65,2.65,0,0,0,2.2.22l5.62-2.25a.8.8,0,0,0,.58-.75h0v-5.8h0a.94.94,0,0,0-.28-.62l-.33-.35a3,3,0,0,1,1.55-.48l6.42.26a1.73,1.73,0,0,0,1.63-1.14l1-3.11a1.1,1.1,0,0,0,.05-.35h0v-5.78h0a1,1,0,0,0-.9-1.07l-5-.86,1.94-1a.78.78,0,0,0,.51-.71h0v-5.77h0a.83.83,0,0,0-.35-.67l-3.59-3a2.51,2.51,0,0,0-2.15-.43l-5.47,1.71a3.8,3.8,0,0,1-2.33-.15A30.62,30.62,0,0,0,237.07,425.19Zm-23.32,14.56a10.37,10.37,0,0,1,4.79-3.47c6.1-2.45,14.47-1.57,18.7,2a8.3,8.3,0,0,1,1.43,1.51,10.46,10.46,0,0,1-4.81,3.49c-6.1,2.44-14.47,1.57-18.7-2A7.66,7.66,0,0,1,213.75,439.75Z" style="fill:#BA68C8"></path><path d="M237.07,425.19a1.53,1.53,0,0,1-1-1.59l.32-2.67a1.22,1.22,0,0,0-1.09-1.37l-7-.73a2,2,0,0,0-1.81,1l-1.4,2.73a2.5,2.5,0,0,1-1.82,1.19,36.55,36.55,0,0,0-3.64.45,3.53,3.53,0,0,1-2.27-.46l-3.78-2.51a2.72,2.72,0,0,0-2.21-.23l-5.62,2.26a.83.83,0,0,0-.58.72h0V424h0v5.74h0a.91.91,0,0,0,.27.63l.33.35a3,3,0,0,1-1.55.48l-6.42-.26a1.73,1.73,0,0,0-1.63,1.14l-1,3.11a1.26,1.26,0,0,0,0,.38h0v5.8h0a1.06,1.06,0,0,0,.91,1l5,.85-1.94,1a.81.81,0,0,0-.51.7h0v5.81h0a.93.93,0,0,0,.35.65l3.59,3a2.58,2.58,0,0,0,2.15.43l5.47-1.72a3.87,3.87,0,0,1,2.33.16,30.62,30.62,0,0,0,2.93,1.08,1.41,1.41,0,0,1,.72.5v3.92h0a1.21,1.21,0,0,0,1.09,1.2l7,.74a2,2,0,0,0,1.81-1l1.4-2.73a2.46,2.46,0,0,1,1.82-1.19,36.18,36.18,0,0,0,3.64-.45,3.57,3.57,0,0,1,2.27.45l3.79,2.52a2.65,2.65,0,0,0,2.2.22l5.62-2.25a.8.8,0,0,0,.58-.75h0v-5.8h0a.94.94,0,0,0-.28-.62l-.33-.35a3,3,0,0,1,1.55-.48l6.42.26a1.73,1.73,0,0,0,1.63-1.14l1-3.11a1.1,1.1,0,0,0,.05-.35h0v-5.78h0a1,1,0,0,0-.9-1.07l-5-.86,1.94-1a.78.78,0,0,0,.51-.71h0v-5.77h0a.83.83,0,0,0-.35-.67l-3.59-3a2.51,2.51,0,0,0-2.15-.43l-5.47,1.71a3.8,3.8,0,0,1-2.33-.15A30.62,30.62,0,0,0,237.07,425.19Zm-23.32,14.56a10.37,10.37,0,0,1,4.79-3.47c6.1-2.45,14.47-1.57,18.7,2a8.3,8.3,0,0,1,1.43,1.51,10.46,10.46,0,0,1-4.81,3.49c-6.1,2.44-14.47,1.57-18.7-2A7.66,7.66,0,0,1,213.75,439.75Z" style="fill:#fff;opacity:0.2"></path><path d="M203.59,439.1a2.1,2.1,0,0,0-1.5-1.43L196,436.62a1.05,1.05,0,0,1-.91-.95v5.73a1.06,1.06,0,0,0,.9,1l5,.86,2.58-1.3a1.22,1.22,0,0,0,.51-1.66A7.09,7.09,0,0,1,203.59,439.1Zm1.49-9.33h0a.94.94,0,0,0,.27.63l.33.35a2.26,2.26,0,0,0,.53-.41,14.84,14.84,0,0,1,1.54-1.37,1.08,1.08,0,0,0,.16-1.64l-2.56-2.72a.86.86,0,0,1-.27-.62Z" style="opacity:0.1"></path><path d="M218.55,430.49c-5.26,2.11-7.12,6-4.8,9.27a10.38,10.38,0,0,1,4.79-3.48c6.1-2.44,14.47-1.57,18.7,2a7.89,7.89,0,0,1,1.42,1.51c1.63-2.33,1.25-5.08-1.42-7.3C233,428.92,224.64,428.05,218.55,430.49Z" style="opacity:0.1"></path><path d="M228,450.5a2,2,0,0,0-.58.68l-1.4,2.73a2,2,0,0,1-1,.87v5.78a1.92,1.92,0,0,0,1-.86L227.4,457a2.09,2.09,0,0,1,.6-.67Zm19.34-.76h0a.8.8,0,0,1-.58.75l-5.62,2.26a2.51,2.51,0,0,1-1.47.05v5.79a2.63,2.63,0,0,0,1.48-.06l5.63-2.25a.83.83,0,0,0,.58-.75ZM210,447.31l-5.39,1.7a2.43,2.43,0,0,1-1.36,0v5.78a2.44,2.44,0,0,0,1.36,0l5.41-1.7Zm47.34-9.15a2.21,2.21,0,0,1-.06.34l-1,3.11a1.72,1.72,0,0,1-1.62,1.14l-6.43-.26a2.5,2.5,0,0,0-1,.21v5.78a2.66,2.66,0,0,1,1-.2l6.43.26a1.74,1.74,0,0,0,1.62-1.14l1-3.11a1.1,1.1,0,0,0,.05-.35Zm-3.43-9.37a.84.84,0,0,1,0,.2.67.67,0,0,1-.19.29,1.24,1.24,0,0,1-.29.2l-4.51,2.27a.71.71,0,0,0-.27.2,1,1,0,0,0-.31.47,1.09,1.09,0,0,0-.06.45,2,2,0,0,0,0,.23,2.33,2.33,0,0,0,.11.31,9.84,9.84,0,0,1,.46,1.2,2.1,2.1,0,0,0,1.49,1.45l1.13.18,1.94-1a.82.82,0,0,0,.51-.72h0Z" style="fill:#BA68C8"></path><path d="M228,450.5a2,2,0,0,0-.58.68l-1.4,2.73a2,2,0,0,1-1,.87v5.78a1.92,1.92,0,0,0,1-.86L227.4,457a2.09,2.09,0,0,1,.6-.67Zm19.34-.76h0a.8.8,0,0,1-.58.75l-5.62,2.26a2.51,2.51,0,0,1-1.47.05v5.79a2.63,2.63,0,0,0,1.48-.06l5.63-2.25a.83.83,0,0,0,.58-.75ZM210,447.31l-5.39,1.7a2.43,2.43,0,0,1-1.36,0v5.78a2.44,2.44,0,0,0,1.36,0l5.41-1.7Zm47.34-9.15a2.21,2.21,0,0,1-.06.34l-1,3.11a1.72,1.72,0,0,1-1.62,1.14l-6.43-.26a2.5,2.5,0,0,0-1,.21v5.78a2.66,2.66,0,0,1,1-.2l6.43.26a1.74,1.74,0,0,0,1.62-1.14l1-3.11a1.1,1.1,0,0,0,.05-.35Zm-3.43-9.37a.84.84,0,0,1,0,.2.67.67,0,0,1-.19.29,1.24,1.24,0,0,1-.29.2l-4.51,2.27a.71.71,0,0,0-.27.2,1,1,0,0,0-.31.47,1.09,1.09,0,0,0-.06.45,2,2,0,0,0,0,.23,2.33,2.33,0,0,0,.11.31,9.84,9.84,0,0,1,.46,1.2,2.1,2.1,0,0,0,1.49,1.45l1.13.18,1.94-1a.82.82,0,0,0,.51-.72h0Z" style="fill:#fff;opacity:0.7000000000000001"></path><path d="M247.8,424.71l-5.47,1.71a3.8,3.8,0,0,1-2.33-.15,30.62,30.62,0,0,0-2.93-1.08,1.53,1.53,0,0,1-1-1.59l.32-2.67a1.22,1.22,0,0,0-1.09-1.37l-7-.73a2,2,0,0,0-1.81,1l-1.4,2.73a2.5,2.5,0,0,1-1.82,1.19,36.55,36.55,0,0,0-3.64.45,3.53,3.53,0,0,1-2.27-.46l-3.78-2.51a2.72,2.72,0,0,0-2.21-.23l-5.62,2.26a.79.79,0,0,0-.3,1.37l2.55,2.72a1.08,1.08,0,0,1-.16,1.64,14.84,14.84,0,0,0-1.54,1.37,3.1,3.1,0,0,1-2.08.89l-6.42-.26a1.73,1.73,0,0,0-1.63,1.14l-1,3.11a1.06,1.06,0,0,0,.86,1.4l6.11,1.05a2.07,2.07,0,0,1,1.49,1.43,10.1,10.1,0,0,0,.46,1.22,1.21,1.21,0,0,1-.51,1.65L199,444.24a.76.76,0,0,0-.16,1.36l3.59,3a2.51,2.51,0,0,0,2.15.43l5.47-1.71a3.79,3.79,0,0,1,2.33.15c.93.4,1.92.76,2.93,1.08a1.52,1.52,0,0,1,1,1.59l-.32,2.66a1.24,1.24,0,0,0,1.09,1.38l7,.73a2,2,0,0,0,1.82-1l1.4-2.73a2.48,2.48,0,0,1,1.82-1.19c1.22-.09,2.44-.24,3.64-.45a3.54,3.54,0,0,1,2.27.46l3.78,2.51a2.65,2.65,0,0,0,2.2.22l5.62-2.25a.79.79,0,0,0,.31-1.37l-2.55-2.72a1.08,1.08,0,0,1,.15-1.64,14.84,14.84,0,0,0,1.54-1.37,3.1,3.1,0,0,1,2.08-.89l6.43.26a1.71,1.71,0,0,0,1.62-1.14l1-3.11a1.06,1.06,0,0,0-.86-1.4l-6.11-1.05a2.09,2.09,0,0,1-1.49-1.43,8.66,8.66,0,0,0-.46-1.22,1.22,1.22,0,0,1,.51-1.65l4.52-2.27a.76.76,0,0,0,.15-1.36l-3.59-3A2.51,2.51,0,0,0,247.8,424.71Zm-10.56,7.73c4.23,3.52,2.71,8.35-3.38,10.79s-14.47,1.57-18.7-2-2.71-8.35,3.39-10.79S233,428.92,237.24,432.44Z" style="fill:#BA68C8"></path><g style="opacity:0.55"><path d="M247.8,424.71l-5.47,1.71a3.8,3.8,0,0,1-2.33-.15,30.62,30.62,0,0,0-2.93-1.08,1.53,1.53,0,0,1-1-1.59l.32-2.67a1.22,1.22,0,0,0-1.09-1.37l-7-.73a2,2,0,0,0-1.81,1l-1.4,2.73a2.5,2.5,0,0,1-1.82,1.19,36.55,36.55,0,0,0-3.64.45,3.53,3.53,0,0,1-2.27-.46l-3.78-2.51a2.72,2.72,0,0,0-2.21-.23l-5.62,2.26a.79.79,0,0,0-.3,1.37l2.55,2.72a1.08,1.08,0,0,1-.16,1.64,14.84,14.84,0,0,0-1.54,1.37,3.1,3.1,0,0,1-2.08.89l-6.42-.26a1.73,1.73,0,0,0-1.63,1.14l-1,3.11a1.06,1.06,0,0,0,.86,1.4l6.11,1.05a2.07,2.07,0,0,1,1.49,1.43,10.1,10.1,0,0,0,.46,1.22,1.21,1.21,0,0,1-.51,1.65L199,444.24a.76.76,0,0,0-.16,1.36l3.59,3a2.51,2.51,0,0,0,2.15.43l5.47-1.71a3.79,3.79,0,0,1,2.33.15c.93.4,1.92.76,2.93,1.08a1.52,1.52,0,0,1,1,1.59l-.32,2.66a1.24,1.24,0,0,0,1.09,1.38l7,.73a2,2,0,0,0,1.82-1l1.4-2.73a2.48,2.48,0,0,1,1.82-1.19c1.22-.09,2.44-.24,3.64-.45a3.54,3.54,0,0,1,2.27.46l3.78,2.51a2.65,2.65,0,0,0,2.2.22l5.62-2.25a.79.79,0,0,0,.31-1.37l-2.55-2.72a1.08,1.08,0,0,1,.15-1.64,14.84,14.84,0,0,0,1.54-1.37,3.1,3.1,0,0,1,2.08-.89l6.43.26a1.71,1.71,0,0,0,1.62-1.14l1-3.11a1.06,1.06,0,0,0-.86-1.4l-6.11-1.05a2.09,2.09,0,0,1-1.49-1.43,8.66,8.66,0,0,0-.46-1.22,1.22,1.22,0,0,1,.51-1.65l4.52-2.27a.76.76,0,0,0,.15-1.36l-3.59-3A2.51,2.51,0,0,0,247.8,424.71Zm-10.56,7.73c4.23,3.52,2.71,8.35-3.38,10.79s-14.47,1.57-18.7-2-2.71-8.35,3.39-10.79S233,428.92,237.24,432.44Z" style="fill:#fff"></path><path d="M224.33,455.39h-.2l-7-.74a1.69,1.69,0,0,1-1.17-.63,1.79,1.79,0,0,1-.36-1.28l.33-2.67a1.06,1.06,0,0,0-.71-1.06,28.27,28.27,0,0,1-3-1.1,3.33,3.33,0,0,0-2-.13l-5.47,1.71a3,3,0,0,1-2.61-.52l-3.59-3a1.24,1.24,0,0,1,.25-2.18l4.51-2.27a.74.74,0,0,0,.29-1,9.09,9.09,0,0,1-.49-1.28,1.62,1.62,0,0,0-1.1-1.09l-6.11-1a1.56,1.56,0,0,1-1.25-2l1-3.11a2.16,2.16,0,0,1,2.11-1.48l6.42.26a2.74,2.74,0,0,0,1.71-.74,15.72,15.72,0,0,1,1.59-1.42.64.64,0,0,0,.27-.47.62.62,0,0,0-.17-.45L205,425a1.28,1.28,0,0,1,.48-2.17l5.62-2.25a3.15,3.15,0,0,1,2.66.27l3.78,2.51a3,3,0,0,0,1.91.38,36.82,36.82,0,0,1,3.69-.45,2,2,0,0,0,1.42-.93l1.4-2.72a2.48,2.48,0,0,1,2.3-1.25l7,.73a1.74,1.74,0,0,1,1.17.64,1.69,1.69,0,0,1,.36,1.28l-.32,2.67a1,1,0,0,0,.71,1.06,28.27,28.27,0,0,1,3,1.1,3.29,3.29,0,0,0,2,.13l5.47-1.71a3.07,3.07,0,0,1,2.62.52l3.59,3a1.34,1.34,0,0,1,.52,1.17,1.32,1.32,0,0,1-.77,1l-4.52,2.27a.74.74,0,0,0-.29,1,9.09,9.09,0,0,1,.49,1.28,1.62,1.62,0,0,0,1.1,1.09l6.12,1a1.54,1.54,0,0,1,1.09.73,1.58,1.58,0,0,1,.15,1.31l-1,3.11a2.19,2.19,0,0,1-2.11,1.48l-6.43-.26a2.67,2.67,0,0,0-1.71.74,15.59,15.59,0,0,1-1.58,1.42.62.62,0,0,0-.28.46.63.63,0,0,0,.17.46l2.56,2.71a1.29,1.29,0,0,1-.48,2.17l-5.63,2.25a3.13,3.13,0,0,1-2.65-.27l-3.79-2.51a3,3,0,0,0-1.91-.38,36.82,36.82,0,0,1-3.69.45,2,2,0,0,0-1.42.92l-1.4,2.73A2.48,2.48,0,0,1,224.33,455.39ZM211,446.69a4.17,4.17,0,0,1,1.64.31,27.78,27.78,0,0,0,2.88,1.06,2,2,0,0,1,1.39,2.11l-.32,2.67a.72.72,0,0,0,.15.55.73.73,0,0,0,.5.28l7,.73a1.48,1.48,0,0,0,1.33-.72L227,451a2.92,2.92,0,0,1,2.22-1.46c1.21-.09,2.42-.24,3.59-.44a4,4,0,0,1,2.63.53l3.78,2.51a2.19,2.19,0,0,0,1.75.18l5.62-2.25c.15-.07.25-.15.27-.25a.43.43,0,0,0-.14-.34l-2.55-2.71a1.57,1.57,0,0,1-.44-1.2,1.68,1.68,0,0,1,.65-1.17,14.82,14.82,0,0,0,1.49-1.33,3.59,3.59,0,0,1,2.45-1l6.43.26a1.25,1.25,0,0,0,1.13-.8l1-3.11a.56.56,0,0,0-.47-.77l-6.11-1a2.58,2.58,0,0,1-1.88-1.78,8.49,8.49,0,0,0-.44-1.15,1.71,1.71,0,0,1,.74-2.3l4.52-2.27c.14-.07.23-.16.24-.24a.39.39,0,0,0-.18-.3l-3.59-3a2.08,2.08,0,0,0-1.69-.33l-5.47,1.71a4.23,4.23,0,0,1-2.67-.17,29.59,29.59,0,0,0-2.88-1.06,2,2,0,0,1-1.4-2.12l.32-2.66a.74.74,0,0,0-.65-.83l-7-.73a1.49,1.49,0,0,0-1.33.72l-1.4,2.72a2.92,2.92,0,0,1-2.22,1.46c-1.21.09-2.42.24-3.59.44a4.07,4.07,0,0,1-2.63-.53l-3.78-2.51a2.16,2.16,0,0,0-1.74-.18l-5.63,2.25a.4.4,0,0,0-.27.25.43.43,0,0,0,.14.34l2.55,2.71a1.53,1.53,0,0,1,.44,1.2,1.61,1.61,0,0,1-.65,1.17,14.82,14.82,0,0,0-1.49,1.33,3.62,3.62,0,0,1-2.45,1l-6.42-.26a1.24,1.24,0,0,0-1.14.8l-1,3.11a.58.58,0,0,0,0,.5.59.59,0,0,0,.42.27l6.11,1a2.58,2.58,0,0,1,1.88,1.78,8.49,8.49,0,0,0,.44,1.15,1.7,1.7,0,0,1-.74,2.3l-4.51,2.27c-.14.07-.23.16-.24.24a.37.37,0,0,0,.18.3l3.58,3a2.1,2.1,0,0,0,1.7.33l5.47-1.71A3.25,3.25,0,0,1,211,446.69Zm15.28-1.59c-4.38,0-8.7-1.2-11.39-3.44-1.93-1.61-2.83-3.59-2.51-5.58.39-2.47,2.58-4.67,6-6.05,6.24-2.49,14.85-1.58,19.19,2,1.94,1.61,2.83,3.59,2.51,5.58-.39,2.46-2.58,4.67-6,6.05A21.3,21.3,0,0,1,226.24,445.1Zm0-15.51a20.42,20.42,0,0,0-7.47,1.35c-3.11,1.25-5.09,3.18-5.42,5.3-.26,1.65.49,3.26,2.17,4.66,4.1,3.41,12.26,4.25,18.19,1.87,3.11-1.24,5.09-3.17,5.42-5.29.26-1.65-.49-3.26-2.17-4.66C234.4,430.72,230.34,429.59,226.2,429.59Z" style="fill:#fff"></path></g></g></g><g id="freepik--gear-1--inject-66"><g id="freepik--Gear--inject-66"><path d="M182.12,159.75h.21l.46,0a6,6,0,0,0,.73-.07l.64-.1.28-.07.4-.1a20.36,20.36,0,0,0,9.27-6c7.31-7.72,10.79-19.4,7.76-26.09a7.18,7.18,0,0,0-5.61-4.44,2.4,2.4,0,0,0-.28,0l-.26,0h-.31a11.45,11.45,0,0,0-5.06,1.07q.09.93.09,2c0,9.14-6.41,20.25-14.33,24.82-.58.33-1.15.63-1.69.88a12,12,0,0,0,1,3.74A7.16,7.16,0,0,0,182.12,159.75Z" style="fill:#263238"></path><path d="M192.44,168.05c-.26-.39-.94-.37-1.53,0s-1.44.95-2.15,1.36l7.51,4.36v0a.46.46,0,0,1-.18-.16Z" style="fill:#263238"></path><path d="M171.38,183.49l2.25-10.22a1.16,1.16,0,0,0-.73-1.28,11.25,11.25,0,0,1-3.12-1.81,1.29,1.29,0,0,0-1.59.27l-7.29,6.67a1.31,1.31,0,0,1-.8.37l11.58,6.7A.64.64,0,0,1,171.38,183.49Z" style="fill:#263238"></path><path d="M214,131.17l6.12.35a1.19,1.19,0,0,1,.45.11c-.42-.24-4-2.31-7.46-4.31,0,.93-.05,1.89-.14,2.86A1,1,0,0,0,214,131.17Z" style="fill:#263238"></path><path d="M159.84,177.43a.54.54,0,0,0,.25.06l-.21-.13A.21.21,0,0,1,159.84,177.43Z" style="fill:#263238"></path><path d="M159.61,177.19,156.37,170a1.85,1.85,0,0,1,.42-1.7l6.82-8.28a2.85,2.85,0,0,0,.67-1.8,32.31,32.31,0,0,1,0-5.9,1,1,0,0,0-1-1l-6.12-.34c-.62,0-1-.5-.83-1l3.37-11.35a2.22,2.22,0,0,1,1.51-1.26l6.71-1.62a2.86,2.86,0,0,0,1.7-1.27,59.33,59.33,0,0,1,3.6-6.25,2.51,2.51,0,0,0,.4-1.77l-2.18-7.39a2.06,2.06,0,0,1,.6-1.72l7.84-8.27c.47-.49,1-.57,1.32-.18l3.64,5.58c.26.39.93.36,1.53,0a32.17,32.17,0,0,1,4.42-2.56,3.35,3.35,0,0,0,1.56-1.5L196.2,100a1.93,1.93,0,0,1,1.56-1.09l7.13-.71a1.21,1.21,0,0,1,.68.12.63.63,0,0,1,.31.72l-2.25,10.2a1.16,1.16,0,0,0,.73,1.28,11.39,11.39,0,0,1,3.12,1.82,1.29,1.29,0,0,0,1.59-.27l7.3-6.66a1,1,0,0,1,1-.33L203,96.75a.57.57,0,0,0-.27-.06c-4.14-2.39-11.4-6.59-11.57-6.7a1.21,1.21,0,0,0-.71-.13l-7.13.7a2,2,0,0,0-1.56,1.09L177.92,102a3.36,3.36,0,0,1-1.56,1.51c-.75.35-1.51.75-2.27,1.19l-7.48-4.33c-.3-.2-.77-.07-1.16.34L157.62,109a2.09,2.09,0,0,0-.61,1.72l2.18,7.38a2.47,2.47,0,0,1-.4,1.78,59.2,59.2,0,0,0-3.6,6.26,2.85,2.85,0,0,1-1.7,1.26l-6.7,1.61a2.23,2.23,0,0,0-1.52,1.27l-3.37,11.35a.73.73,0,0,0,.25.82c.15.12,7.59,4.41,7.59,4.41,0,1,0,2,.13,3a2.91,2.91,0,0,1-.66,1.8L142.37,160a1.85,1.85,0,0,0-.41,1.7l3.25,7.18a.57.57,0,0,0,.2.23l14.4,8.33A.54.54,0,0,1,159.61,177.19Z" style="fill:#263238"></path><path d="M191.18,90a1.08,1.08,0,0,0-.7-.15l-7.14.72a2.1,2.1,0,0,0-1.19.56l14.43,8.32a2,2,0,0,1,1.17-.54l7.14-.71a1.21,1.21,0,0,1,.66.1ZM166.6,100.39c-.29-.19-.76-.07-1.15.34L157.61,109a2.45,2.45,0,0,0-.55,1l14.42,8.27a2.53,2.53,0,0,1,.55-.91l7.83-8.27a1,1,0,0,1,1.1-.37Zm-6.93,38.23a1.31,1.31,0,0,1,.28-.48l-14.44-8.31a1.48,1.48,0,0,0-.24.44l-3.37,11.36a.73.73,0,0,0,.25.82l.13.09,7.42,4.29.05,0,6.89,4a.74.74,0,0,1-.34-.87Zm-.06,38.57L156.37,170a1.26,1.26,0,0,1,0-.86l-14.43-8.33a1.31,1.31,0,0,0,0,.84l3.24,7.17a.63.63,0,0,0,.21.24l0,0c.66.38,13.47,7.79,14.33,8.3A.58.58,0,0,1,159.61,177.19Z" style="fill:#37474f"></path><path d="M220.6,131.65l0,0a1.19,1.19,0,0,0-.45-.11l-6.12-.35a1,1,0,0,1-1-1c.09-1,.14-1.93.14-2.86a27.56,27.56,0,0,0-.13-3,3,3,0,0,1,.67-1.81l6.83-8.27a1.88,1.88,0,0,0,.42-1.7l-3.25-7.17a.45.45,0,0,0-.2-.23l0,0a1,1,0,0,0-1,.33l-7.3,6.66a1.29,1.29,0,0,1-1.59.27,11.39,11.39,0,0,0-3.12-1.82,1.16,1.16,0,0,1-.73-1.28L205.88,99a.63.63,0,0,0-.31-.72,1.21,1.21,0,0,0-.68-.12l-7.13.71A1.93,1.93,0,0,0,196.2,100l-3.87,10.37a3.35,3.35,0,0,1-1.56,1.5,32.17,32.17,0,0,0-4.42,2.56c-.6.4-1.27.43-1.53,0l-3.64-5.58c-.27-.39-.85-.31-1.32.18L172,117.34a2.06,2.06,0,0,0-.6,1.72l2.18,7.39a2.51,2.51,0,0,1-.4,1.77,59.33,59.33,0,0,0-3.6,6.25,2.86,2.86,0,0,1-1.7,1.27l-6.71,1.62a2.22,2.22,0,0,0-1.51,1.26L156.31,150c-.17.53.21,1,.83,1l6.12.34a1,1,0,0,1,1,1,32.31,32.31,0,0,0,0,5.9,2.85,2.85,0,0,1-.67,1.8l-6.82,8.28a1.85,1.85,0,0,0-.42,1.7l3.24,7.17a.54.54,0,0,0,.2.22h0a.54.54,0,0,0,.25.06h0a1.31,1.31,0,0,0,.8-.37l7.29-6.67a1.29,1.29,0,0,1,1.59-.27A11.25,11.25,0,0,0,172.9,172a1.16,1.16,0,0,1,.73,1.28l-2.25,10.22a.64.64,0,0,0,.3.7h0a1.08,1.08,0,0,0,.67.12l7.13-.71a2,2,0,0,0,1.56-1.08l3.88-10.37a3.27,3.27,0,0,1,1.56-1.51c.74-.36,1.5-.76,2.26-1.2s1.43-.87,2.15-1.36,1.27-.43,1.53,0l3.65,5.58a.46.46,0,0,0,.18.16c.29.19.75.06,1.13-.34l7.84-8.28a2.06,2.06,0,0,0,.6-1.71l-2.18-7.38a2.56,2.56,0,0,1,.4-1.78,59.46,59.46,0,0,0,3.6-6.26,2.85,2.85,0,0,1,1.71-1.26l6.69-1.62a2.15,2.15,0,0,0,1.52-1.26L221,132.55A.75.75,0,0,0,220.6,131.65Zm-35.76,27.74-.4.1-.28.07-.64.1a6,6,0,0,1-.73.07l-.46,0h-.21a7.16,7.16,0,0,1-6.72-4.52,12,12,0,0,1-1-3.74,15.56,15.56,0,0,1-.12-2.07c0-6.47,3.37-14.49,8.85-20.28a24.44,24.44,0,0,1,5.41-4.38,16.88,16.88,0,0,1,1.79-.92,11.45,11.45,0,0,1,5.06-1.07h.31l.26,0a2.4,2.4,0,0,1,.28,0,7.18,7.18,0,0,1,5.61,4.44c3,6.69-.45,18.37-7.76,26.09A20.36,20.36,0,0,1,184.84,159.39Z" style="fill:#455a64"></path><path d="M195.91,130.59l-3.76-2.18h0l0,0h0c-1.67-1-4-.81-6.5.66-5.12,2.95-9.26,10.13-9.26,16,0,2.94,1,5,2.7,6h0l3.43,2,.82-1.37a9.82,9.82,0,0,0,2.65-1c5.12-3,9.26-10.14,9.26-16a10.12,10.12,0,0,0-.29-2.37Z" style="fill:#BA68C8"></path><path d="M176.34,145.1c0,2.94,1,5,2.7,6h0l3.43,2,.82-1.37a9.55,9.55,0,0,0,2.65-1,19.12,19.12,0,0,0,6.89-7.53l-13.42-7.75A19.25,19.25,0,0,0,176.34,145.1Z" style="opacity:0.1"></path><path d="M195.91,130.59l-3.76-2.18h0l0,0h0c-1.67-1-4-.81-6.51.66a18.53,18.53,0,0,0-6.17,6.3l13.42,7.75a18.45,18.45,0,0,0,2.37-8.5,9.61,9.61,0,0,0-.29-2.37Z" style="fill:#fff;opacity:0.4"></path><path d="M189.18,131.11c-5.12,3-9.26,10.14-9.26,16s4.14,8.3,9.26,5.35,9.25-10.14,9.26-16S194.29,128.16,189.18,131.11Z" style="fill:#BA68C8"></path><g id="freepik--check-list--inject-66"><path id="freepik--Check--inject-66" d="M193.76,133.74a1.33,1.33,0,0,0-1.75.62l-4.77,11L186,144.25a1.45,1.45,0,0,0-1.91,0,1.18,1.18,0,0,0,.08,1.76l2.7,2.42a1.46,1.46,0,0,0,.95.38,1.23,1.23,0,0,0,.27,0,1.21,1.21,0,0,0,.95-.7l5.48-12.67A1.27,1.27,0,0,0,193.76,133.74Z" style="fill:#fff"></path></g></g></g></svg>
