<svg xmlns="http://www.w3.org/2000/svg" viewBox="0 0 500 500"><g id="freepik--Floor--inject-218"><g id="freepik--floor--inject-218"><g id="freepik--floor--inject-218"><ellipse id="freepik--Grass--inject-218" cx="252.02" cy="351.32" rx="233.1" ry="133.97" style="fill:#f0f0f0"></ellipse><path d="M412.76,254.29q-6.28-3.43-12.89-6.55a136.69,136.69,0,0,0-20.51-.39c-14.74,1.16-21.69,5.8-23.85,25-.45,4.06-3.26,10.38-8.32,13.29-8.44,4.83-21.26,5.09-26.35,5.64-129.06,14-12,83.49-109.3,91C148.91,387.23,95.82,386.64,34,398.83c11.34,17.22,29.07,33.36,53.19,47.22,34.6,19.89,77.39,32.21,122.13,37,49.93-4.65,90-21.61,106.66-58.78,16.6-41.32-21.35-86.75-2.61-104.29,15.25-11.07,32.36-9,48.06-19.5,8.7-5.3,10.73-10.32,13-27.41S394.78,252.7,412.76,254.29Z" style="fill:#fff"></path></g></g></g><g id="freepik--Shadows--inject-218"><path id="freepik--Shadow--inject-218" d="M110.58,421.58a122.8,122.8,0,0,1,27.58,10.23c9.82,5.06,19,11.45,29.31,15.42,13.39,5.16,28.23,6,42.42,3.77,8-1.24,16.63-3.91,21.13-10.69a9.23,9.23,0,0,0,1.79-5.85c-.29-3-2.7-5.43-5.12-7.29-13-9.91-29.85-12.75-46.05-14.65s-26.17-5.38-42.57-11.81c-7-2.75-14-5.77-21-8.32l-.17-.07a107.76,107.76,0,0,0-10.69-3.67A79.38,79.38,0,0,0,89.1,386a36.36,36.36,0,0,0-17.68,4,8.08,8.08,0,0,0-3.48,3.08,6.5,6.5,0,0,0-.5,3.9A13.74,13.74,0,0,0,71,404.17a29.55,29.55,0,0,0,6.35,5C87.38,415.49,99.16,418.84,110.58,421.58Z" style="fill:#e0e0e0"></path><path id="freepik--shadow--inject-218" d="M324.78,442.61a5.48,5.48,0,0,1-5.32-4.4l-.9-4.75a60.77,60.77,0,0,1-6.05-1.5l-9.22,4.27a6.26,6.26,0,0,1-2.61.55h0a6.36,6.36,0,0,1-3.16-.81l-9.43-5.45a4.68,4.68,0,0,1-.41-8l4.95-3.56c-.23-.34-.46-.68-.67-1l-11.53-.73a5.27,5.27,0,0,1-4.92-5.24v-7a5.25,5.25,0,0,1,4.92-5.23L292,399c.21-.35.44-.69.67-1l-4.95-3.56a4.69,4.69,0,0,1,.4-8l9.44-5.45a6.47,6.47,0,0,1,3.16-.81,6.26,6.26,0,0,1,2.61.56l9.22,4.27a58.76,58.76,0,0,1,6.05-1.5l.9-4.75a5.48,5.48,0,0,1,5.32-4.4h13.88a5.49,5.49,0,0,1,5.32,4.4l.9,4.75a59.41,59.41,0,0,1,6.05,1.5l9.22-4.27a6.22,6.22,0,0,1,2.6-.56,6.47,6.47,0,0,1,3.16.81l9.44,5.45a4.68,4.68,0,0,1,.4,8L370.81,398c.23.35.45.69.66,1l11.53.73a5.25,5.25,0,0,1,4.92,5.23v7a5.27,5.27,0,0,1-4.92,5.24l-11.54.73c-.21.35-.43.69-.66,1l4.95,3.57a4.68,4.68,0,0,1-.4,8L365.91,436a6.5,6.5,0,0,1-5.76.26L350.93,432a62.18,62.18,0,0,1-6.05,1.5l-.9,4.74a5.48,5.48,0,0,1-5.32,4.41Zm-7-39.89c-2.93,1.69-4.61,3.79-4.61,5.75s1.68,4.06,4.61,5.75a31.37,31.37,0,0,0,27.91,0c2.93-1.7,4.61-3.79,4.61-5.76s-1.68-4.06-4.61-5.75a31.33,31.33,0,0,0-27.91,0Z" style="fill:#e0e0e0"></path><path id="freepik--shadow--inject-218" d="M376.19,367.05l-1.35-2.63c-1.35-.13-2.68-.3-4-.52h-.05l-4.53,3a7.43,7.43,0,0,1-4.07,1.16,7,7,0,0,1-2.6-.48l-7-2.8a5.23,5.23,0,0,1-1.89-8.58l1-1-7.43.3a6.44,6.44,0,0,1-6-4.41L337,347.22a5.57,5.57,0,0,1,4.42-7.21l4.09-.7-1.5-.76a5.18,5.18,0,0,1-1-8.77l4.46-3.72a7.39,7.39,0,0,1,4.67-1.62,6.65,6.65,0,0,1,2,.3l6.63,2.08h.1s0,0,0,0c.7-.3,1.42-.59,2.16-.86l-.16-1.35a5.79,5.79,0,0,1,5.14-6.45l8.74-.91c.2,0,.42,0,.63,0a6.72,6.72,0,0,1,5.86,3.54l1.35,2.63c1.34.12,2.67.3,4,.52h0l4.54-3a7.35,7.35,0,0,1,4.06-1.17,7,7,0,0,1,2.61.48l7,2.8a5.23,5.23,0,0,1,1.9,8.58l-1,1,7.43-.29a6.43,6.43,0,0,1,6,4.4l1.21,3.87a5.58,5.58,0,0,1-4.42,7.21l-4.09.71,1.51.75a5.2,5.2,0,0,1,1,8.78L412,361.76a7.39,7.39,0,0,1-4.67,1.62,6.65,6.65,0,0,1-2-.3L398.66,361h-.1s0,0,0,0c-.7.3-1.42.59-2.16.86l.16,1.35a5.79,5.79,0,0,1-5.15,6.45l-8.74.91c-.2,0-.41,0-.62,0A6.71,6.71,0,0,1,376.19,367.05Zm-7.46-25.36c-.6.5-1.58,1.47-1.43,2.43s1.42,2.53,4.49,3.76a21.65,21.65,0,0,0,7.92,1.41c4.45,0,8.67-1.21,11-3.16.6-.5,1.58-1.47,1.43-2.43s-1.42-2.53-4.49-3.76a21.65,21.65,0,0,0-7.92-1.41C375.29,338.53,371.07,339.74,368.73,341.69Z" style="fill:#e0e0e0"></path></g><g id="freepik--Clouds--inject-218"><path id="freepik--Cloud--inject-218" d="M210.62,39.15a8.66,8.66,0,0,0-3-.55c-1-.08-1.28-.27-1.47-.48a7.16,7.16,0,0,0-8.6-2.55,5.51,5.51,0,0,0-6.49-3.67c.1-3-3.76-6.27-7.23-7s-6.23-.41-8.13,1.78c-2-4-10-5.09-14.32-3-2.48,1.21-4.58,2.44-5.61,4.72a9.55,9.55,0,0,0-.94,4.52c-1.68-1.49-5-1.89-7.29-1-2.42.94-2.6,2.76-2.72,4.62a8.48,8.48,0,0,0-4.41-.08c-1.52.45-2.4,1.65-2.19,2.62-1.21-.07-4.08.9-3.75,2.18s3.65,1.28,4.88,1.24a23.16,23.16,0,0,0,3.43-.54,5.47,5.47,0,0,0,1.78.34c2.09,0,3-.91,3.31-1.69,1,2.15,4.65,3.78,7.22,4.44,4.83,1.24,11.67.48,14.65-3.13a5.33,5.33,0,0,0,1.44,1.76,8.37,8.37,0,0,0,4.47,1.81c2,.18,7.31.44,8.81-2.72,1.06,2.1,5.8,3.06,9.41,2.54a14.79,14.79,0,0,0,4-1.22,25.87,25.87,0,0,0,2.32-1.39,1.94,1.94,0,0,1,2-.13,11.81,11.81,0,0,0,7.87,0C212.09,41.69,212.51,40,210.62,39.15Z" style="fill:#f0f0f0"></path><path id="freepik--cloud--inject-218" d="M380,99.48a7.15,7.15,0,0,0-2.35-.43c-.76-.06-1-.21-1.14-.37a5.6,5.6,0,0,0-6.73-2,4.31,4.31,0,0,0-5.08-2.87c.09-2.37-2.94-4.91-5.65-5.49s-4.87-.32-6.36,1.39c-1.59-3.1-7.82-4-11.19-2.33-1.94.94-3.58,1.91-4.39,3.69a7.4,7.4,0,0,0-.73,3.53,6.21,6.21,0,0,0-5.7-.79c-1.89.73-2,2.16-2.13,3.61a6.47,6.47,0,0,0-3.44-.06c-1.2.35-1.88,1.28-1.72,2-.94,0-3.19.71-2.93,1.71s2.85,1,3.81,1a18.06,18.06,0,0,0,2.69-.43,4.13,4.13,0,0,0,1.39.27c1.64,0,2.33-.71,2.59-1.32.8,1.68,3.64,3,5.64,3.47,3.78,1,9.13.38,11.45-2.44a4.43,4.43,0,0,0,1.13,1.37,6.49,6.49,0,0,0,3.5,1.41c1.55.15,5.71.35,6.89-2.12.83,1.64,4.53,2.39,7.35,2a11.49,11.49,0,0,0,3.16-1,18.41,18.41,0,0,0,1.81-1.08,1.51,1.51,0,0,1,1.55-.11,9.24,9.24,0,0,0,6.16,0C381.17,101.47,381.5,100.15,380,99.48Z" style="fill:#f0f0f0"></path><path id="freepik--cloud--inject-218" d="M262.49,52.39a5.72,5.72,0,0,0-1.9-.36c-.62,0-.81-.17-.93-.3a4.54,4.54,0,0,0-5.45-1.61,3.48,3.48,0,0,0-4.12-2.32c.07-1.92-2.38-4-4.57-4.45s-4-.26-5.15,1.13c-1.29-2.52-6.34-3.23-9.07-1.9-1.57.77-2.91,1.55-3.56,3a6.06,6.06,0,0,0-.59,2.87,5,5,0,0,0-4.62-.65c-1.53.6-1.65,1.75-1.72,2.93a5.31,5.31,0,0,0-2.8,0c-1,.28-1.52,1-1.39,1.66-.76,0-2.58.57-2.37,1.38s2.31.81,3.09.78a13.34,13.34,0,0,0,2.17-.34,3.34,3.34,0,0,0,1.13.22c1.33,0,1.89-.58,2.1-1.07.65,1.36,2.95,2.39,4.57,2.81,3.06.78,7.4.31,9.28-2a3.53,3.53,0,0,0,.91,1.11,5.27,5.27,0,0,0,2.83,1.15c1.26.11,4.64.28,5.59-1.72.67,1.33,3.67,1.93,6,1.61a9.11,9.11,0,0,0,2.55-.78,13.93,13.93,0,0,0,1.47-.88,1.24,1.24,0,0,1,1.26-.08,7.47,7.47,0,0,0,5,0C263.42,54,263.69,52.93,262.49,52.39Z" style="fill:#f5f5f5"></path><path id="freepik--cloud--inject-218" d="M322.94,114.68a4.78,4.78,0,0,0-1.59-.3c-.52,0-.68-.14-.78-.25a3.8,3.8,0,0,0-4.57-1.35,2.92,2.92,0,0,0-3.45-2c.06-1.61-2-3.33-3.83-3.72s-3.31-.22-4.32.94c-1.08-2.11-5.31-2.7-7.6-1.59a5.63,5.63,0,0,0-3,2.51,5.07,5.07,0,0,0-.49,2.4,4.22,4.22,0,0,0-3.87-.54c-1.29.5-1.38,1.46-1.45,2.45a4.46,4.46,0,0,0-2.34,0c-.81.24-1.27.87-1.16,1.39-.64,0-2.17.48-2,1.15s1.94.69,2.59.66a12.4,12.4,0,0,0,1.82-.28,3.09,3.09,0,0,0,.95.18c1.11,0,1.58-.49,1.75-.9.55,1.14,2.47,2,3.84,2.36,2.56.65,6.19.25,7.77-1.66a3,3,0,0,0,.76.93,4.56,4.56,0,0,0,2.38,1c1.05.1,3.88.23,4.67-1.44.57,1.11,3.08,1.62,5,1.35a7.71,7.71,0,0,0,2.14-.65,12.13,12.13,0,0,0,1.23-.74,1,1,0,0,1,1.05-.07,6.19,6.19,0,0,0,4.18,0C323.72,116,324,115.13,322.94,114.68Z" style="fill:#f5f5f5"></path></g><g id="freepik--Plants--inject-218"><g id="freepik--plants--inject-218"><g id="freepik--plants--inject-218"><path d="M50.8,366.37a8.84,8.84,0,0,0,.36-9.41c-2.16-4-6.14-6.95-6.68-6.86s-1.92,4.8,0,9.82A10.29,10.29,0,0,0,50.8,366.37Z" style="fill:#BA68C8"></path><path d="M48.53,377.55a8.83,8.83,0,0,0-4-8.54c-3.78-2.61-8.64-3.38-9.07-3.05S36,371.1,40,374.69A10.3,10.3,0,0,0,48.53,377.55Z" style="fill:#BA68C8"></path><path d="M55.91,385.56a8.83,8.83,0,0,0,7.72-5.39c1.92-4.17,2.12-8.67,1.72-9s-5.52,1.46-8.35,5.38C53.91,380.77,55.64,384.26,55.91,385.56Z" style="fill:#BA68C8"></path><path d="M52,385a89.63,89.63,0,0,1-.71,10.74c.59.13,1.18.26,1.79.36l.18,0a90.2,90.2,0,0,0-.55-22.57c-.78-5-1.8-10.34-4.17-14.88,0-.1-.31,0-.28.07A72.43,72.43,0,0,1,51,372.44,85.45,85.45,0,0,1,52,385Z" style="fill:#37474f"></path><path d="M53.67,388.54a27.51,27.51,0,0,0,4.14-4.49,15.38,15.38,0,0,0,2.72-5.17c.07-.26-.26,0-.35.14a45.07,45.07,0,0,1-3,4.26A19.6,19.6,0,0,1,53.08,387a1.25,1.25,0,0,0-.46,1.34A.65.65,0,0,0,53.67,388.54Z" style="fill:#37474f"></path><path d="M53.49,384.6c-.87-2.79-2.29-4.8-4.39-7.49a26.71,26.71,0,0,0-2.7-2.93,15.67,15.67,0,0,0-3.85-2.7c-.06,0-.45,0-.36,0a40.74,40.74,0,0,1,3.4,3.13,23.4,23.4,0,0,1,2.7,3.22,38.09,38.09,0,0,1,4.17,7.26C52.69,385.66,53.64,385.08,53.49,384.6Z" style="fill:#37474f"></path></g></g><g id="freepik--plants--inject-218"><g id="freepik--plants--inject-218"><path d="M435.47,380a8.82,8.82,0,0,1-.36-9.41c2.16-4.05,6.13-7,6.68-6.86s1.92,4.79,0,9.81A10.37,10.37,0,0,1,435.47,380Z" style="fill:#BA68C8"></path><path d="M437.73,391.19a8.82,8.82,0,0,1,4-8.53c3.77-2.62,8.63-3.39,9.07-3.06s-.47,5.14-4.48,8.73A10.31,10.31,0,0,1,437.73,391.19Z" style="fill:#BA68C8"></path><path d="M430.36,399.2a8.81,8.81,0,0,1-7.72-5.39c-1.92-4.17-2.12-8.67-1.72-9s5.52,1.46,8.35,5.38C432.35,394.42,430.63,397.9,430.36,399.2Z" style="fill:#BA68C8"></path><path d="M434.29,398.59a91.38,91.38,0,0,0,.72,10.74c-.59.13-1.18.26-1.8.36l-.17,0a89.74,89.74,0,0,1,.55-22.57c.78-5,1.8-10.34,4.17-14.88.05-.1.31,0,.28.08a70.81,70.81,0,0,0-2.8,13.73A84.06,84.06,0,0,0,434.29,398.59Z" style="fill:#37474f"></path><path d="M432.6,402.18a26.78,26.78,0,0,1-4.15-4.49,15.58,15.58,0,0,1-2.71-5.16c-.07-.27.25,0,.34.13a45.17,45.17,0,0,0,3,4.26,19.6,19.6,0,0,0,4.07,3.75,1.24,1.24,0,0,1,.45,1.34A.64.64,0,0,1,432.6,402.18Z" style="fill:#37474f"></path><path d="M432.78,398.24c.87-2.79,2.28-4.8,4.39-7.48a24.17,24.17,0,0,1,2.7-2.93,15.47,15.47,0,0,1,3.85-2.71c.06,0,.45,0,.35,0a42.43,42.43,0,0,0-3.39,3.13,23.28,23.28,0,0,0-2.7,3.22,37.57,37.57,0,0,0-4.17,7.26C433.57,399.3,432.62,398.72,432.78,398.24Z" style="fill:#37474f"></path></g></g></g><g id="freepik--Gears--inject-218"><g id="freepik--Gear--inject-218"><path d="M362.57,323.44a4.69,4.69,0,0,1-2.89.19l-6.8-2.13a3.2,3.2,0,0,0-2.68.53l-4.46,3.72a1,1,0,0,0-.44.83h0v7.18h0a1,1,0,0,0,.63.89l2.41,1.21-6.19,1.06a1.3,1.3,0,0,0-1.11,1.34l0,0v7.18h0a1.34,1.34,0,0,0,.06.44l1.21,3.87a2.14,2.14,0,0,0,2,1.42l8-.33a3.79,3.79,0,0,1,1.93.6l-.41.43a1.16,1.16,0,0,0-.34.78h0v7.2h0a1,1,0,0,0,.72.93l7,2.8a3.33,3.33,0,0,0,2.74-.28l4.7-3.13a4.48,4.48,0,0,1,2.82-.56,45.55,45.55,0,0,0,4.53.56,3,3,0,0,1,2.26,1.48L380,365a2.45,2.45,0,0,0,2.26,1.22l8.73-.91a1.53,1.53,0,0,0,1.37-1.5h0v-4.87a1.85,1.85,0,0,1,.9-.63,36.42,36.42,0,0,0,3.64-1.34,4.7,4.7,0,0,1,2.89-.19l6.8,2.13a3.2,3.2,0,0,0,2.68-.53l4.46-3.72a1.06,1.06,0,0,0,.44-.79h0v-7.22h0a1,1,0,0,0-.63-.87l-2.41-1.21,6.19-1.06a1.33,1.33,0,0,0,1.13-1.26h0V335h0a1.54,1.54,0,0,0-.05-.47l-1.21-3.87a2.15,2.15,0,0,0-2-1.42l-8,.33a3.79,3.79,0,0,1-1.93-.6l.41-.43a1.14,1.14,0,0,0,.34-.79h0v-7.14h0v-.08h0a1,1,0,0,0-.72-.9l-7-2.8a3.33,3.33,0,0,0-2.74.28l-4.7,3.13a4.48,4.48,0,0,1-2.82.56,45.55,45.55,0,0,0-4.53-.56,3,3,0,0,1-2.26-1.48l-1.74-3.39a2.45,2.45,0,0,0-2.26-1.22l-8.73.91a1.52,1.52,0,0,0-1.36,1.71l.4,3.32a1.9,1.9,0,0,1-1.31,2A36.42,36.42,0,0,0,362.57,323.44Zm30.87,18.66c-5.25,4.38-15.66,5.46-23.23,2.43a12.9,12.9,0,0,1-6-4.34,10,10,0,0,1,1.78-1.88c5.25-4.38,15.66-5.46,23.23-2.43a13,13,0,0,1,6,4.32A9.46,9.46,0,0,1,393.44,342.1Z" style="fill:#BA68C8"></path><path d="M362.57,323.44a4.69,4.69,0,0,1-2.89.19l-6.8-2.13a3.2,3.2,0,0,0-2.68.53l-4.46,3.72a1,1,0,0,0-.44.83h0v7.18h0a1,1,0,0,0,.63.89l2.41,1.21-6.19,1.06a1.3,1.3,0,0,0-1.11,1.34l0,0v7.18h0a1.34,1.34,0,0,0,.06.44l1.21,3.87a2.14,2.14,0,0,0,2,1.42l8-.33a3.79,3.79,0,0,1,1.93.6l-.41.43a1.16,1.16,0,0,0-.34.78h0v7.2h0a1,1,0,0,0,.72.93l7,2.8a3.33,3.33,0,0,0,2.74-.28l4.7-3.13a4.48,4.48,0,0,1,2.82-.56,45.55,45.55,0,0,0,4.53.56,3,3,0,0,1,2.26,1.48L380,365a2.45,2.45,0,0,0,2.26,1.22l8.73-.91a1.53,1.53,0,0,0,1.37-1.5h0v-4.87a1.85,1.85,0,0,1,.9-.63,36.42,36.42,0,0,0,3.64-1.34,4.7,4.7,0,0,1,2.89-.19l6.8,2.13a3.2,3.2,0,0,0,2.68-.53l4.46-3.72a1.06,1.06,0,0,0,.44-.79h0v-7.22h0a1,1,0,0,0-.63-.87l-2.41-1.21,6.19-1.06a1.33,1.33,0,0,0,1.13-1.26h0V335h0a1.54,1.54,0,0,0-.05-.47l-1.21-3.87a2.15,2.15,0,0,0-2-1.42l-8,.33a3.79,3.79,0,0,1-1.93-.6l.41-.43a1.14,1.14,0,0,0,.34-.79h0v-7.14h0v-.08h0a1,1,0,0,0-.72-.9l-7-2.8a3.33,3.33,0,0,0-2.74.28l-4.7,3.13a4.48,4.48,0,0,1-2.82.56,45.55,45.55,0,0,0-4.53-.56,3,3,0,0,1-2.26-1.48l-1.74-3.39a2.45,2.45,0,0,0-2.26-1.22l-8.73.91a1.52,1.52,0,0,0-1.36,1.71l.4,3.32a1.9,1.9,0,0,1-1.31,2A36.42,36.42,0,0,0,362.57,323.44Zm30.87,18.66c-5.25,4.38-15.66,5.46-23.23,2.43a12.9,12.9,0,0,1-6-4.34,10,10,0,0,1,1.78-1.88c5.25-4.38,15.66-5.46,23.23-2.43a13,13,0,0,1,6,4.32A9.46,9.46,0,0,1,393.44,342.1Z" style="fill:#fff;opacity:0.2"></path><path d="M407.27,340.9a1.51,1.51,0,0,0,.64,2.06l3.2,1.61,6.19-1.06a1.33,1.33,0,0,0,1.13-1.26v-7.12a1.29,1.29,0,0,1-1.12,1.18l-7.61,1.3a2.65,2.65,0,0,0-1.85,1.78A9.91,9.91,0,0,1,407.27,340.9ZM406,320.61a1.09,1.09,0,0,1-.34.78l-3.18,3.37a1.35,1.35,0,0,0,.2,2,16.79,16.79,0,0,1,1.91,1.71,3.49,3.49,0,0,0,.66.51l.41-.44a1.11,1.11,0,0,0,.34-.79h0Z" style="opacity:0.1"></path><path d="M389.24,328.69c6.54,2.62,8.84,7.44,6,11.52a12.89,12.89,0,0,0-5.95-4.33c-7.59-3-18-1.95-23.25,2.43a9.23,9.23,0,0,0-1.76,1.88c-2-2.9-1.56-6.32,1.76-9.08C371.26,326.73,381.66,325.65,389.24,328.69Z" style="opacity:0.1"></path><path d="M377.49,360.78a2.52,2.52,0,0,1,.75.82L380,365a2.38,2.38,0,0,0,1.28,1.08v-7.2A2.43,2.43,0,0,1,380,357.8l-1.75-3.39a2.47,2.47,0,0,0-.72-.84Zm-24-1a1,1,0,0,0,.71.93l7,2.8a3.22,3.22,0,0,0,1.83.07v-7.19a3.22,3.22,0,0,1-1.83-.07l-7-2.81a1,1,0,0,1-.73-.93h0Zm46.37-3,6.72,2.11a3.09,3.09,0,0,0,1.7-.05v-7.18a3,3,0,0,1-1.69,0l-6.71-2.11ZM341,345.4a1.35,1.35,0,0,0,.07.44l1.21,3.87a2.15,2.15,0,0,0,2,1.42l8-.32a3,3,0,0,1,1.25.25v-7.2a3.38,3.38,0,0,0-1.24-.25l-8,.32a2.13,2.13,0,0,1-2-1.42l-1.2-3.86a1.67,1.67,0,0,1-.07-.42Zm4.27-11.65h0a1,1,0,0,0,.63.89l2.42,1.2,1.4-.23a2.6,2.6,0,0,0,1.86-1.79,10.33,10.33,0,0,1,.57-1.51,2.43,2.43,0,0,0,.13-.38,1.76,1.76,0,0,0-.05-.85,1.31,1.31,0,0,0-.38-.58.87.87,0,0,0-.34-.24l-5.6-2.82a2.07,2.07,0,0,1-.36-.25.79.79,0,0,1-.24-.37,1,1,0,0,1-.06-.25Z" style="fill:#BA68C8"></path><path d="M377.49,360.78a2.52,2.52,0,0,1,.75.82L380,365a2.38,2.38,0,0,0,1.28,1.08v-7.2A2.43,2.43,0,0,1,380,357.8l-1.75-3.39a2.47,2.47,0,0,0-.72-.84Zm-24-1a1,1,0,0,0,.71.93l7,2.8a3.22,3.22,0,0,0,1.83.07v-7.19a3.22,3.22,0,0,1-1.83-.07l-7-2.81a1,1,0,0,1-.73-.93h0Zm46.37-3,6.72,2.11a3.09,3.09,0,0,0,1.7-.05v-7.18a3,3,0,0,1-1.69,0l-6.71-2.11ZM341,345.4a1.35,1.35,0,0,0,.07.44l1.21,3.87a2.15,2.15,0,0,0,2,1.42l8-.32a3,3,0,0,1,1.25.25v-7.2a3.38,3.38,0,0,0-1.24-.25l-8,.32a2.13,2.13,0,0,1-2-1.42l-1.2-3.86a1.67,1.67,0,0,1-.07-.42Zm4.27-11.65h0a1,1,0,0,0,.63.89l2.42,1.2,1.4-.23a2.6,2.6,0,0,0,1.86-1.79,10.33,10.33,0,0,1,.57-1.51,2.43,2.43,0,0,0,.13-.38,1.76,1.76,0,0,0-.05-.85,1.31,1.31,0,0,0-.38-.58.87.87,0,0,0-.34-.24l-5.6-2.82a2.07,2.07,0,0,1-.36-.25.79.79,0,0,1-.24-.37,1,1,0,0,1-.06-.25Z" style="fill:#fff;opacity:0.7000000000000001"></path><path d="M350.2,322l-4.46,3.72a.94.94,0,0,0,.19,1.69l5.61,2.81a1.52,1.52,0,0,1,.64,2.06,11.61,11.61,0,0,0-.57,1.51,2.59,2.59,0,0,1-1.86,1.78l-7.6,1.3a1.32,1.32,0,0,0-1.06,1.75l1.21,3.86a2.12,2.12,0,0,0,2,1.42l8-.32a3.85,3.85,0,0,1,2.59,1.1,17.62,17.62,0,0,0,1.91,1.7,1.35,1.35,0,0,1,.19,2l-3.17,3.37a1,1,0,0,0,.38,1.71l7,2.8a3.3,3.3,0,0,0,2.74-.28l4.7-3.12a4.49,4.49,0,0,1,2.82-.57,45.19,45.19,0,0,0,4.53.56,3.09,3.09,0,0,1,2.26,1.48L380,357.8a2.45,2.45,0,0,0,2.26,1.22l8.73-.91a1.52,1.52,0,0,0,1.36-1.71l-.4-3.31a1.92,1.92,0,0,1,1.31-2,36.42,36.42,0,0,0,3.64-1.34,4.77,4.77,0,0,1,2.89-.19l6.8,2.13a3.17,3.17,0,0,0,2.68-.53l4.46-3.71a.94.94,0,0,0-.19-1.69L407.91,343a1.52,1.52,0,0,1-.64-2.06,11.09,11.09,0,0,0,.57-1.51,2.61,2.61,0,0,1,1.86-1.78l7.6-1.3a1.31,1.31,0,0,0,1.06-1.74l-1.21-3.87a2.15,2.15,0,0,0-2-1.42l-8,.33a4,4,0,0,1-2.59-1.1,18.82,18.82,0,0,0-1.91-1.71,1.34,1.34,0,0,1-.19-2l3.17-3.38a1,1,0,0,0-.38-1.71l-7-2.8a3.33,3.33,0,0,0-2.74.28l-4.7,3.13a4.48,4.48,0,0,1-2.82.56,45.55,45.55,0,0,0-4.53-.56,3,3,0,0,1-2.26-1.48l-1.74-3.39a2.45,2.45,0,0,0-2.26-1.22l-8.73.92a1.51,1.51,0,0,0-1.36,1.7l.4,3.32a1.9,1.9,0,0,1-1.31,2,36.42,36.42,0,0,0-3.64,1.34,4.7,4.7,0,0,1-2.89.19l-6.8-2.13A3.2,3.2,0,0,0,350.2,322Zm39,6.66c7.58,3,9.46,9,4.2,13.41s-15.66,5.46-23.23,2.43-9.46-9-4.21-13.42S381.66,325.65,389.24,328.69Z" style="fill:#BA68C8"></path><g style="opacity:0.55"><path d="M350.2,322l-4.46,3.72a.94.94,0,0,0,.19,1.69l5.61,2.81a1.52,1.52,0,0,1,.64,2.06,11.61,11.61,0,0,0-.57,1.51,2.59,2.59,0,0,1-1.86,1.78l-7.6,1.3a1.32,1.32,0,0,0-1.06,1.75l1.21,3.86a2.12,2.12,0,0,0,2,1.42l8-.32a3.85,3.85,0,0,1,2.59,1.1,17.62,17.62,0,0,0,1.91,1.7,1.35,1.35,0,0,1,.19,2l-3.17,3.37a1,1,0,0,0,.38,1.71l7,2.8a3.3,3.3,0,0,0,2.74-.28l4.7-3.12a4.49,4.49,0,0,1,2.82-.57,45.19,45.19,0,0,0,4.53.56,3.09,3.09,0,0,1,2.26,1.48L380,357.8a2.45,2.45,0,0,0,2.26,1.22l8.73-.91a1.52,1.52,0,0,0,1.36-1.71l-.4-3.31a1.92,1.92,0,0,1,1.31-2,36.42,36.42,0,0,0,3.64-1.34,4.77,4.77,0,0,1,2.89-.19l6.8,2.13a3.17,3.17,0,0,0,2.68-.53l4.46-3.71a.94.94,0,0,0-.19-1.69L407.91,343a1.52,1.52,0,0,1-.64-2.06,11.09,11.09,0,0,0,.57-1.51,2.61,2.61,0,0,1,1.86-1.78l7.6-1.3a1.31,1.31,0,0,0,1.06-1.74l-1.21-3.87a2.15,2.15,0,0,0-2-1.42l-8,.33a4,4,0,0,1-2.59-1.1,18.82,18.82,0,0,0-1.91-1.71,1.34,1.34,0,0,1-.19-2l3.17-3.38a1,1,0,0,0-.38-1.71l-7-2.8a3.33,3.33,0,0,0-2.74.28l-4.7,3.13a4.48,4.48,0,0,1-2.82.56,45.55,45.55,0,0,0-4.53-.56,3,3,0,0,1-2.26-1.48l-1.74-3.39a2.45,2.45,0,0,0-2.26-1.22l-8.73.92a1.51,1.51,0,0,0-1.36,1.7l.4,3.32a1.9,1.9,0,0,1-1.31,2,36.42,36.42,0,0,0-3.64,1.34,4.7,4.7,0,0,1-2.89.19l-6.8-2.13A3.2,3.2,0,0,0,350.2,322Zm39,6.66c7.58,3,9.46,9,4.2,13.41s-15.66,5.46-23.23,2.43-9.46-9-4.21-13.42S381.66,325.65,389.24,328.69Z" style="fill:#fff"></path><path d="M382.05,359.47a2.92,2.92,0,0,1-2.46-1.47l-1.74-3.39a2.6,2.6,0,0,0-1.91-1.24c-1.54-.12-3.08-.31-4.56-.57a4.09,4.09,0,0,0-2.51.5l-4.7,3.12a3.73,3.73,0,0,1-3.14.33l-7-2.8a1.51,1.51,0,0,1-1-1.05,1.54,1.54,0,0,1,.43-1.37l3.18-3.37a.89.89,0,0,0,.26-.7,1,1,0,0,0-.41-.7,18.47,18.47,0,0,1-1.95-1.75,3.39,3.39,0,0,0-2.26-1l-8,.33a2.62,2.62,0,0,1-2.45-1.73l-1.21-3.86a1.84,1.84,0,0,1,.16-1.49,1.86,1.86,0,0,1,1.25-.82l7.6-1.3a2.14,2.14,0,0,0,1.51-1.47,11.52,11.52,0,0,1,.6-1.57,1.09,1.09,0,0,0-.45-1.49l-5.61-2.81a1.49,1.49,0,0,1-.86-1.13,1.46,1.46,0,0,1,.59-1.29l4.46-3.71a3.59,3.59,0,0,1,3.09-.61l6.8,2.13a4.36,4.36,0,0,0,2.59-.17,33.3,33.3,0,0,1,3.68-1.36,1.47,1.47,0,0,0,1-1.51l-.4-3.32a1.91,1.91,0,0,1,.41-1.46,2,2,0,0,1,1.33-.73l8.74-.91a2.9,2.9,0,0,1,2.69,1.46l1.74,3.39a2.65,2.65,0,0,0,1.9,1.24,44.92,44.92,0,0,1,4.57.56,4,4,0,0,0,2.51-.5l4.7-3.12a3.76,3.76,0,0,1,3.14-.32l7,2.8a1.42,1.42,0,0,1,.53,2.41l-3.17,3.37a.92.92,0,0,0-.26.7,1,1,0,0,0,.41.71,19.44,19.44,0,0,1,1.95,1.74,3.33,3.33,0,0,0,2.26,1l8-.32a2.54,2.54,0,0,1,2.45,1.72l1.21,3.87a1.76,1.76,0,0,1-1.41,2.3l-7.6,1.3a2.16,2.16,0,0,0-1.51,1.48,11.52,11.52,0,0,1-.6,1.57,1.08,1.08,0,0,0,.45,1.48l5.6,2.82a1.47,1.47,0,0,1,.87,1.12,1.44,1.44,0,0,1-.59,1.29l-4.46,3.72a3.63,3.63,0,0,1-3.09.61l-6.8-2.13a4.36,4.36,0,0,0-2.59.17,37.91,37.91,0,0,1-3.68,1.36,1.45,1.45,0,0,0-1,1.5l.4,3.32a2,2,0,0,1-1.74,2.19l-8.74.91Zm-11.14-7.57a3.18,3.18,0,0,1,.62.05c1.45.25,3,.44,4.48.55a3.54,3.54,0,0,1,2.62,1.71l1.74,3.39a2,2,0,0,0,1.82,1l8.74-.91a1.1,1.1,0,0,0,1-1.22l-.4-3.32a2.34,2.34,0,0,1,1.61-2.44,35.37,35.37,0,0,0,3.6-1.33,5.23,5.23,0,0,1,3.19-.2l6.8,2.13a2.74,2.74,0,0,0,2.27-.45l4.46-3.71a.63.63,0,0,0,.29-.53.61.61,0,0,0-.4-.44l-5.61-2.82a2,2,0,0,1-.83-2.63,11.06,11.06,0,0,0,.55-1.45,3,3,0,0,1,2.19-2.09l7.6-1.3a.87.87,0,0,0,.65-.41.94.94,0,0,0,.08-.77l-1.21-3.87a1.7,1.7,0,0,0-1.59-1.11l-8,.32a4.34,4.34,0,0,1-2.91-1.23,17.89,17.89,0,0,0-1.87-1.67,1.88,1.88,0,0,1-.74-1.32,1.76,1.76,0,0,1,.5-1.36l3.17-3.38a.56.56,0,0,0-.22-1l-7-2.8a2.86,2.86,0,0,0-2.34.24l-4.7,3.12a4.94,4.94,0,0,1-3.14.63c-1.45-.25-3-.44-4.48-.56a3.47,3.47,0,0,1-2.62-1.71l-1.74-3.39a2,2,0,0,0-1.82-1l-8.74.91a1.08,1.08,0,0,0-.74.4,1.05,1.05,0,0,0-.23.82l.4,3.32a2.34,2.34,0,0,1-1.61,2.44,35.36,35.36,0,0,0-3.6,1.32,5.23,5.23,0,0,1-3.19.21l-6.8-2.13a2.69,2.69,0,0,0-2.27.45L346,326.08a.63.63,0,0,0-.28.52.64.64,0,0,0,.4.45l5.6,2.81a2,2,0,0,1,.84,2.64,11.5,11.5,0,0,0-.55,1.44,3,3,0,0,1-2.19,2.09l-7.6,1.3a.91.91,0,0,0-.65.42.89.89,0,0,0-.08.77l1.21,3.86a1.72,1.72,0,0,0,1.59,1.12l8-.33a4.46,4.46,0,0,1,2.92,1.24,19,19,0,0,0,1.87,1.66,1.88,1.88,0,0,1,.74,1.33,1.82,1.82,0,0,1-.5,1.36l-3.17,3.37a.67.67,0,0,0-.22.58.63.63,0,0,0,.44.43l7,2.8a2.86,2.86,0,0,0,2.34-.24l4.7-3.12A4.91,4.91,0,0,1,370.91,351.9Zm8.78-5.23a26.18,26.18,0,0,1-9.64-1.74c-4.22-1.69-6.91-4.38-7.38-7.38-.38-2.41.7-4.81,3.06-6.77,5.35-4.46,16-5.58,23.67-2.5h0c4.22,1.69,6.91,4.38,7.38,7.39.38,2.4-.7,4.81-3.06,6.77C390.41,345.19,385.09,346.67,379.69,346.67Zm0-19.27c-5.18,0-10.28,1.41-13.45,4.05-2.11,1.75-3.09,3.87-2.76,6,.43,2.7,2.92,5.14,6.85,6.71,7.43,3,17.66,1.92,22.8-2.35,2.11-1.76,3.09-3.87,2.76-6-.43-2.69-2.93-5.14-6.85-6.71h0A25.52,25.52,0,0,0,379.73,327.4Z" style="fill:#fff"></path></g></g><g id="freepik--gear--inject-218"><path d="M289.64,382.34h0l0,8.19h0a.78.78,0,0,0,.38.63l4.32,3.11a2.16,2.16,0,0,1-1.1.46l-12.58.79a1.28,1.28,0,0,0-1.17,1.26v7.05l0,8.15a1.27,1.27,0,0,0,1.17,1.25l12.59.8a2.11,2.11,0,0,1,1.07.44L290,417.6a.79.79,0,0,0-.37.63h0l0,8.21h0a.76.76,0,0,0,.44.63l9.44,5.45a2.54,2.54,0,0,0,2.09.1l9.57-4.44a3.57,3.57,0,0,1,2.19-.13,57.48,57.48,0,0,0,7.43,1.77,1.8,1.8,0,0,1,1.38,1.34l1.2,6.31a1.48,1.48,0,0,0,1.4,1.16h13.88a1.48,1.48,0,0,0,1.4-1.16l1.2-6.31a1.8,1.8,0,0,1,1.38-1.34,56.71,56.71,0,0,0,7.43-1.77,3.57,3.57,0,0,1,2.19.13l9.57,4.44a2.54,2.54,0,0,0,2.09-.1l9.44-5.45a.77.77,0,0,0,.44-.64h0l0-8.19h0a.78.78,0,0,0-.38-.63l-4.32-3.11a2.16,2.16,0,0,1,1.1-.46l12.58-.8A1.26,1.26,0,0,0,384,412l0-9.84v-5.36a1.29,1.29,0,0,0-1.17-1.26l-12.59-.79a2,2,0,0,1-1.07-.45l4.35-3.12a.81.81,0,0,0,.37-.64h0l0-8.18h0a.76.76,0,0,0-.44-.64l-9.44-5.45a2.54,2.54,0,0,0-2.09-.1l-9.57,4.44a3.57,3.57,0,0,1-2.19.13,55.88,55.88,0,0,0-7.43-1.77,1.8,1.8,0,0,1-1.38-1.34l-1.2-6.31a1.48,1.48,0,0,0-1.4-1.16H324.78a1.48,1.48,0,0,0-1.4,1.16l-1.2,6.31A1.8,1.8,0,0,1,320.8,379a55.15,55.15,0,0,0-7.43,1.77,3.57,3.57,0,0,1-2.19-.13l-9.57-4.44a2.54,2.54,0,0,0-2.09.1l-9.44,5.45A.76.76,0,0,0,289.64,382.34Zm58,27.16c-8.81,5.08-23.09,5.08-31.9,0-3.45-2-5.54-4.47-6.29-7,.95-2.1,3.06-4.16,6.29-6,8.81-5.09,23.09-5.09,31.9,0,3.45,2,5.47,4.2,6.14,6.46C353,405.32,350.92,407.62,347.67,409.5Z" style="fill:#BA68C8"></path><path d="M289.64,382.34h0l0,8.19h0a.78.78,0,0,0,.38.63l4.32,3.11a2.16,2.16,0,0,1-1.1.46l-12.58.79a1.28,1.28,0,0,0-1.17,1.26v7.05l0,8.15a1.27,1.27,0,0,0,1.17,1.25l12.59.8a2.11,2.11,0,0,1,1.07.44L290,417.6a.79.79,0,0,0-.37.63h0l0,8.21h0a.76.76,0,0,0,.44.63l9.44,5.45a2.54,2.54,0,0,0,2.09.1l9.57-4.44a3.57,3.57,0,0,1,2.19-.13,57.48,57.48,0,0,0,7.43,1.77,1.8,1.8,0,0,1,1.38,1.34l1.2,6.31a1.48,1.48,0,0,0,1.4,1.16h13.88a1.48,1.48,0,0,0,1.4-1.16l1.2-6.31a1.8,1.8,0,0,1,1.38-1.34,56.71,56.71,0,0,0,7.43-1.77,3.57,3.57,0,0,1,2.19.13l9.57,4.44a2.54,2.54,0,0,0,2.09-.1l9.44-5.45a.77.77,0,0,0,.44-.64h0l0-8.19h0a.78.78,0,0,0-.38-.63l-4.32-3.11a2.16,2.16,0,0,1,1.1-.46l12.58-.8A1.26,1.26,0,0,0,384,412l0-9.84v-5.36a1.29,1.29,0,0,0-1.17-1.26l-12.59-.79a2,2,0,0,1-1.07-.45l4.35-3.12a.81.81,0,0,0,.37-.64h0l0-8.18h0a.76.76,0,0,0-.44-.64l-9.44-5.45a2.54,2.54,0,0,0-2.09-.1l-9.57,4.44a3.57,3.57,0,0,1-2.19.13,55.88,55.88,0,0,0-7.43-1.77,1.8,1.8,0,0,1-1.38-1.34l-1.2-6.31a1.48,1.48,0,0,0-1.4-1.16H324.78a1.48,1.48,0,0,0-1.4,1.16l-1.2,6.31A1.8,1.8,0,0,1,320.8,379a55.15,55.15,0,0,0-7.43,1.77,3.57,3.57,0,0,1-2.19-.13l-9.57-4.44a2.54,2.54,0,0,0-2.09.1l-9.44,5.45A.76.76,0,0,0,289.64,382.34Zm58,27.16c-8.81,5.08-23.09,5.08-31.9,0-3.45-2-5.54-4.47-6.29-7,.95-2.1,3.06-4.16,6.29-6,8.81-5.09,23.09-5.09,31.9,0,3.45,2,5.47,4.2,6.14,6.46C353,405.32,350.92,407.62,347.67,409.5Z" style="fill:#fff;opacity:0.2"></path><path d="M365.8,410.68a1,1,0,0,0,.14,1.54l3.15,2.26a2.11,2.11,0,0,1,1.1-.45l12.59-.8A1.28,1.28,0,0,0,384,412l0-9.84v1.66a1.26,1.26,0,0,1-1.17,1.25l-12.58.79a2.35,2.35,0,0,0-1.7,1.13A19.17,19.17,0,0,1,365.8,410.68Zm8-28.25a1,1,0,0,1-.38.55l-7.49,5.38a1,1,0,0,0-.14,1.53,19.17,19.17,0,0,1,2.68,3.71,2.12,2.12,0,0,0,.62.69l4.35-3.13a.78.78,0,0,0,.37-.63h0Z" style="opacity:0.1"></path><path d="M315.77,391.08c8.81-5.08,23.09-5.09,31.9,0,5.57,3.21,7.62,7.69,6.15,11.83-.67-2.26-2.7-4.48-6.15-6.48-8.81-5.08-23.09-5.08-31.9,0-3.22,1.86-5.34,3.91-6.29,6C308.3,398.44,310.41,394.18,315.77,391.08Z" style="opacity:0.1"></path><path d="M279.53,412a1.25,1.25,0,0,0,1.18,1.24l12.58.8a1.67,1.67,0,0,1,.62.18l0-8.2a1.79,1.79,0,0,0-.63-.17l-12.58-.79a1.31,1.31,0,0,1-1.17-1.09Zm10.12-21.45h0a.81.81,0,0,0,.38.62l4.33,3.11a2.63,2.63,0,0,0,.59-.67,18.15,18.15,0,0,1,2.54-3.54,1.09,1.09,0,0,1,.13-.17,1.21,1.21,0,0,0,.26-.43l0-.16a.86.86,0,0,0,0-.32,1,1,0,0,0-.23-.46.69.69,0,0,0-.18-.16L290,383a1.15,1.15,0,0,1-.17-.14.6.6,0,0,1-.15-.25.56.56,0,0,1-.05-.25h0Zm0,35.9a.76.76,0,0,0,.44.62l9.44,5.45a2.44,2.44,0,0,0,1.46.25v-8.17a2.56,2.56,0,0,1-1.47-.26l-9.44-5.45a.81.81,0,0,1-.44-.58ZM351.34,428a3,3,0,0,1,.94.22l9.57,4.43a2.08,2.08,0,0,0,.85.17l0-8.17a1.93,1.93,0,0,1-.85-.18L352.26,420a3.17,3.17,0,0,0-.94-.22Zm-27.75,10a1.48,1.48,0,0,0,1.21.7h13.88a1.48,1.48,0,0,0,.84-.3v-8.19a1.38,1.38,0,0,1-.85.3H324.77a1.45,1.45,0,0,1-1.16-.62Z" style="fill:#BA68C8"></path><path d="M279.53,412a1.25,1.25,0,0,0,1.18,1.24l12.58.8a1.67,1.67,0,0,1,.62.18l0-8.2a1.79,1.79,0,0,0-.63-.17l-12.58-.79a1.31,1.31,0,0,1-1.17-1.09Zm10.12-21.45h0a.81.81,0,0,0,.38.62l4.33,3.11a2.63,2.63,0,0,0,.59-.67,18.15,18.15,0,0,1,2.54-3.54,1.09,1.09,0,0,1,.13-.17,1.21,1.21,0,0,0,.26-.43l0-.16a.86.86,0,0,0,0-.32,1,1,0,0,0-.23-.46.69.69,0,0,0-.18-.16L290,383a1.15,1.15,0,0,1-.17-.14.6.6,0,0,1-.15-.25.56.56,0,0,1-.05-.25h0Zm0,35.9a.76.76,0,0,0,.44.62l9.44,5.45a2.44,2.44,0,0,0,1.46.25v-8.17a2.56,2.56,0,0,1-1.47-.26l-9.44-5.45a.81.81,0,0,1-.44-.58ZM351.34,428a3,3,0,0,1,.94.22l9.57,4.43a2.08,2.08,0,0,0,.85.17l0-8.17a1.93,1.93,0,0,1-.85-.18L352.26,420a3.17,3.17,0,0,0-.94-.22Zm-27.75,10a1.48,1.48,0,0,0,1.21.7h13.88a1.48,1.48,0,0,0,.84-.3v-8.19a1.38,1.38,0,0,1-.85.3H324.77a1.45,1.45,0,0,1-1.16-.62Z" style="fill:#fff;opacity:0.7000000000000001"></path><path d="M299.52,376.25l-9.44,5.45A.7.7,0,0,0,290,383l7.49,5.39a1,1,0,0,1,.13,1.53A19.1,19.1,0,0,0,295,393.6a2.32,2.32,0,0,1-1.7,1.13l-12.58.79a1.28,1.28,0,0,0-1.17,1.26v7a1.26,1.26,0,0,0,1.17,1.25l12.58.8A2.31,2.31,0,0,1,295,407a18.75,18.75,0,0,0,2.68,3.71,1,1,0,0,1-.14,1.54L290,417.6a.71.71,0,0,0,.07,1.28l9.44,5.45a2.54,2.54,0,0,0,2.09.09l9.57-4.43a3.43,3.43,0,0,1,2.19-.13,57.08,57.08,0,0,0,7.43,1.76,1.81,1.81,0,0,1,1.38,1.35l1.2,6.3a1.48,1.48,0,0,0,1.4,1.16h13.88a1.48,1.48,0,0,0,1.4-1.16l1.2-6.3a1.81,1.81,0,0,1,1.38-1.35,57.47,57.47,0,0,0,7.43-1.76,3.43,3.43,0,0,1,2.19.13l9.57,4.43a2.54,2.54,0,0,0,2.09-.09l9.44-5.45a.71.71,0,0,0,.06-1.28l-7.48-5.38a1,1,0,0,1-.14-1.54,18.69,18.69,0,0,0,2.67-3.71,2.31,2.31,0,0,1,1.7-1.12l12.59-.8a1.26,1.26,0,0,0,1.17-1.25v-7a1.29,1.29,0,0,0-1.17-1.26l-12.59-.79a2.32,2.32,0,0,1-1.7-1.13,19.1,19.1,0,0,0-2.67-3.71,1,1,0,0,1,.14-1.53l7.48-5.39a.7.7,0,0,0-.06-1.27l-9.44-5.45a2.54,2.54,0,0,0-2.09-.1l-9.57,4.44a3.57,3.57,0,0,1-2.19.13,55.88,55.88,0,0,0-7.43-1.77,1.8,1.8,0,0,1-1.38-1.34l-1.2-6.31a1.48,1.48,0,0,0-1.4-1.16H324.78a1.48,1.48,0,0,0-1.4,1.16l-1.2,6.31A1.8,1.8,0,0,1,320.8,379a55.15,55.15,0,0,0-7.43,1.77,3.57,3.57,0,0,1-2.19-.13l-9.57-4.44A2.54,2.54,0,0,0,299.52,376.25Zm48.15,14.83c8.81,5.08,8.81,13.33,0,18.42s-23.09,5.08-31.9,0-8.81-13.34,0-18.42S338.86,386,347.67,391.08Z" style="fill:#BA68C8"></path><g style="opacity:0.55"><path d="M299.52,376.25l-9.44,5.45A.7.7,0,0,0,290,383l7.49,5.39a1,1,0,0,1,.13,1.53A19.1,19.1,0,0,0,295,393.6a2.32,2.32,0,0,1-1.7,1.13l-12.58.79a1.28,1.28,0,0,0-1.17,1.26v7a1.26,1.26,0,0,0,1.17,1.25l12.58.8A2.31,2.31,0,0,1,295,407a18.75,18.75,0,0,0,2.68,3.71,1,1,0,0,1-.14,1.54L290,417.6a.71.71,0,0,0,.07,1.28l9.44,5.45a2.54,2.54,0,0,0,2.09.09l9.57-4.43a3.43,3.43,0,0,1,2.19-.13,57.08,57.08,0,0,0,7.43,1.76,1.81,1.81,0,0,1,1.38,1.35l1.2,6.3a1.48,1.48,0,0,0,1.4,1.16h13.88a1.48,1.48,0,0,0,1.4-1.16l1.2-6.3a1.81,1.81,0,0,1,1.38-1.35,57.47,57.47,0,0,0,7.43-1.76,3.43,3.43,0,0,1,2.19.13l9.57,4.43a2.54,2.54,0,0,0,2.09-.09l9.44-5.45a.71.71,0,0,0,.06-1.28l-7.48-5.38a1,1,0,0,1-.14-1.54,18.69,18.69,0,0,0,2.67-3.71,2.31,2.31,0,0,1,1.7-1.12l12.59-.8a1.26,1.26,0,0,0,1.17-1.25v-7a1.29,1.29,0,0,0-1.17-1.26l-12.59-.79a2.32,2.32,0,0,1-1.7-1.13,19.1,19.1,0,0,0-2.67-3.71,1,1,0,0,1,.14-1.53l7.48-5.39a.7.7,0,0,0-.06-1.27l-9.44-5.45a2.54,2.54,0,0,0-2.09-.1l-9.57,4.44a3.57,3.57,0,0,1-2.19.13,55.88,55.88,0,0,0-7.43-1.77,1.8,1.8,0,0,1-1.38-1.34l-1.2-6.31a1.48,1.48,0,0,0-1.4-1.16H324.78a1.48,1.48,0,0,0-1.4,1.16l-1.2,6.31A1.8,1.8,0,0,1,320.8,379a55.15,55.15,0,0,0-7.43,1.77,3.57,3.57,0,0,1-2.19-.13l-9.57-4.44A2.54,2.54,0,0,0,299.52,376.25Zm48.15,14.83c8.81,5.08,8.81,13.33,0,18.42s-23.09,5.08-31.9,0-8.81-13.34,0-18.42S338.86,386,347.67,391.08Z" style="fill:#fff"></path><path d="M338.66,430.77H324.78a1.8,1.8,0,0,1-1.73-1.43l-1.2-6.31a1.45,1.45,0,0,0-1.11-1.07,58.25,58.25,0,0,1-7.47-1.78,3.24,3.24,0,0,0-1.95.11l-9.57,4.44a2.88,2.88,0,0,1-2.4-.11l-9.44-5.45a1.14,1.14,0,0,1-.61-.9,1.1,1.1,0,0,1,.52-.94l7.48-5.39a.67.67,0,0,0,.29-.47.71.71,0,0,0-.2-.56,19.28,19.28,0,0,1-2.72-3.77,2,2,0,0,0-1.43-1l-12.58-.8a1.61,1.61,0,0,1-1.49-1.58v-7a1.61,1.61,0,0,1,1.49-1.59l12.58-.8a2,2,0,0,0,1.43-.95,19,19,0,0,1,2.72-3.77.75.75,0,0,0,.2-.57.67.67,0,0,0-.29-.47l-7.48-5.38a1,1,0,0,1,.09-1.84l9.44-5.46a2.88,2.88,0,0,1,2.4-.1l9.57,4.43a3.24,3.24,0,0,0,1.95.12,56.62,56.62,0,0,1,7.47-1.78,1.47,1.47,0,0,0,1.11-1.08l1.2-6.3a1.79,1.79,0,0,1,1.73-1.43h13.88a1.79,1.79,0,0,1,1.73,1.43l1.2,6.3a1.47,1.47,0,0,0,1.11,1.08,57,57,0,0,1,7.47,1.78,3.17,3.17,0,0,0,1.95-.12l9.57-4.43a2.89,2.89,0,0,1,2.39.1l9.45,5.46a1.11,1.11,0,0,1,.61.89,1.14,1.14,0,0,1-.52.95l-7.48,5.38a.65.65,0,0,0-.3.47.75.75,0,0,0,.21.57,19,19,0,0,1,2.72,3.77,2,2,0,0,0,1.43.95l12.58.8a1.61,1.61,0,0,1,1.49,1.59v7a1.61,1.61,0,0,1-1.49,1.58l-12.58.8a2,2,0,0,0-1.43.95,19.46,19.46,0,0,1-2.72,3.78.72.72,0,0,0-.21.56.63.63,0,0,0,.3.47l7.48,5.39a1,1,0,0,1-.09,1.84l-9.44,5.45a2.88,2.88,0,0,1-2.4.11l-9.57-4.44a3.24,3.24,0,0,0-1.95-.11A58.65,58.65,0,0,1,342.7,422a1.45,1.45,0,0,0-1.11,1.07l-1.2,6.31A1.8,1.8,0,0,1,338.66,430.77ZM312.49,419.4a3.31,3.31,0,0,1,1,.14,55.42,55.42,0,0,0,7.39,1.75,2.14,2.14,0,0,1,1.65,1.61l1.2,6.31a1.15,1.15,0,0,0,1.07.89h13.88a1.15,1.15,0,0,0,1.07-.89l1.2-6.3a2.14,2.14,0,0,1,1.65-1.62,55.42,55.42,0,0,0,7.39-1.75,3.81,3.81,0,0,1,2.43.14l9.57,4.44a2.21,2.21,0,0,0,1.78-.08l9.44-5.45a.46.46,0,0,0,.27-.35.48.48,0,0,0-.23-.37l-7.49-5.38a1.32,1.32,0,0,1-.56-.95,1.4,1.4,0,0,1,.37-1.09,18.11,18.11,0,0,0,2.63-3.64,2.67,2.67,0,0,1,2-1.3l12.58-.8a.93.93,0,0,0,.87-.91v-7a.94.94,0,0,0-.87-.92l-12.58-.8a2.62,2.62,0,0,1-2-1.3,18.4,18.4,0,0,0-2.63-3.64,1.36,1.36,0,0,1-.37-1.08,1.34,1.34,0,0,1,.56-1l7.49-5.38a.47.47,0,0,0,.23-.37.44.44,0,0,0-.27-.34l-9.44-5.45a2.17,2.17,0,0,0-1.78-.08l-9.57,4.43A3.88,3.88,0,0,1,350,381a57.4,57.4,0,0,0-7.39-1.76,2.13,2.13,0,0,1-1.65-1.61l-1.2-6.31a1.14,1.14,0,0,0-1.07-.88H324.78a1.14,1.14,0,0,0-1.07.88l-1.2,6.31a2.13,2.13,0,0,1-1.65,1.61,56.62,56.62,0,0,0-7.39,1.76,3.88,3.88,0,0,1-2.43-.15l-9.57-4.43a2.17,2.17,0,0,0-1.78.08L290.25,382a.47.47,0,0,0-.28.34.48.48,0,0,0,.24.37l7.48,5.38a1.34,1.34,0,0,1,.19,2,18.34,18.34,0,0,0-2.62,3.64,2.62,2.62,0,0,1-2,1.3l-12.59.8a.93.93,0,0,0-.86.92v7a.93.93,0,0,0,.86.91l12.59.8a2.67,2.67,0,0,1,2,1.3,18.45,18.45,0,0,0,2.62,3.64,1.38,1.38,0,0,1,.38,1.09,1.35,1.35,0,0,1-.57.95l-7.48,5.38a.5.5,0,0,0-.24.37.5.5,0,0,0,.28.35l9.44,5.45a2.21,2.21,0,0,0,1.78.08l9.57-4.44A3.64,3.64,0,0,1,312.49,419.4Zm19.23-5.76a33,33,0,0,1-16.12-3.85c-4.37-2.53-6.77-5.9-6.77-9.5s2.4-7,6.77-9.5c8.89-5.13,23.35-5.13,32.24,0h0c4.37,2.52,6.77,5.89,6.77,9.5s-2.4,7-6.77,9.5A33,33,0,0,1,331.72,413.64Zm0-26a32.27,32.27,0,0,0-15.78,3.77c-4.16,2.4-6.44,5.56-6.44,8.92s2.28,6.52,6.44,8.91c8.7,5,22.86,5,31.56,0,4.15-2.4,6.44-5.57,6.44-8.92s-2.29-6.52-6.44-8.92A32.3,32.3,0,0,0,331.72,387.6Z" style="fill:#fff"></path></g></g></g><g id="freepik--speech-bubble-2--inject-218"><g id="freepik--speech-bubble--inject-218"><g id="freepik--speech-bubble--inject-218"><path d="M466.56,67.24a38.78,38.78,0,0,1-10.44,26.57l-3.22,3.07A38.83,38.83,0,0,1,398,42.26L401.09,39a38.84,38.84,0,0,1,65.47,28.21Z" style="fill:#fff"></path><path d="M427.6,25.17a42.16,42.16,0,0,0-6.83,83.74l4.76,12.21a2.45,2.45,0,0,0,4.57,0l4.7-12.23a42.16,42.16,0,0,0-7.2-83.71Zm39,42.07a38.78,38.78,0,0,1-10.44,26.57l-3.22,3.07A38.83,38.83,0,0,1,398,42.26L401.09,39a38.84,38.84,0,0,1,65.47,28.21Z" style="fill:#e0e0e0"></path><path d="M466.56,67.24a38.78,38.78,0,0,1-10.44,26.57l-3.22,3.07A38.83,38.83,0,0,1,398,42.26L401.09,39a38.84,38.84,0,0,1,65.47,28.21Z" style="fill:#fff;opacity:0.7000000000000001"></path></g><g id="freepik--Eye--inject-218"><path d="M427.69,84.2c-18.58,0-30.72-14.58-30.84-14.72l-.41-.5.41-.51c.12-.15,12.26-15,30.84-15s30.73,14.82,30.85,15L459,69l-.41.5C458.42,69.62,446.28,84.2,427.69,84.2ZM398.52,69c2.28,2.51,13.29,13.64,29.17,13.64S454.58,71.48,456.87,69c-2.28-2.55-13.29-13.88-29.18-13.88S400.8,66.42,398.52,69Z" style="fill:#455a64"></path><path d="M455.81,58A44.84,44.84,0,0,0,449.69,53,41.94,41.94,0,0,0,442.84,49a35,35,0,0,0-30.29,0A41.28,41.28,0,0,0,405.7,53,43.47,43.47,0,0,0,399.58,58,38.44,38.44,0,0,1,412,48a33.19,33.19,0,0,1,31.33,0A38.55,38.55,0,0,1,455.81,58Z" style="fill:#455a64"></path><path d="M439.43,68.85a11.74,11.74,0,1,1-11.74-11.74A11.74,11.74,0,0,1,439.43,68.85Z" style="fill:#455a64"></path><path d="M433.36,68.85a5.67,5.67,0,1,1-5.67-5.67A5.67,5.67,0,0,1,433.36,68.85Z" style="fill:#263238"></path><path d="M435.45,64.94a2.58,2.58,0,1,1-2.58-2.58A2.59,2.59,0,0,1,435.45,64.94Z" style="fill:#fff"></path></g></g></g><g id="freepik--speech-bubble-1--inject-218"><g id="freepik--speech-bubble--inject-218"><g id="freepik--speech-bubble--inject-218"><path d="M60.3,111.3a33.82,33.82,0,1,0,0-47.83A33.85,33.85,0,0,0,60.3,111.3Zm2.15-2.15a30.78,30.78,0,1,1,43.53,0A30.81,30.81,0,0,1,62.45,109.15Z" style="fill:#455a64"></path><path d="M62.45,109.15a30.78,30.78,0,1,0,0-43.53A30.81,30.81,0,0,0,62.45,109.15Z" style="fill:#fff"></path><path d="M116,116.6l-4.85-11-8.71,8.72,11,4.84A2,2,0,0,0,116,116.6Z" style="fill:#455a64"></path></g><g id="freepik--Bulb--inject-218"><path d="M79,102.37H89.39a.78.78,0,1,0,0-1.56H79a.78.78,0,1,0,0,1.56Z" style="fill:#455a64"></path><path d="M78.26,104.49a.78.78,0,0,1,.78-.78H89.39a.78.78,0,0,1,.78.78,6,6,0,1,1-11.91,0Z" style="fill:#455a64"></path><path d="M68.19,81.18A16.09,16.09,0,0,0,76.08,95a4.28,4.28,0,0,1,2.12,3.65.71.71,0,0,0,.7.7H89.53a.77.77,0,0,0,.5-.2.79.79,0,0,0,.2-.5A4.24,4.24,0,0,1,92.36,95a16,16,0,0,0,7.87-14A16.22,16.22,0,0,0,85,65.18a16,16,0,0,0-16.8,16Z" style="fill:#BA68C8"></path><g style="opacity:0.35000000000000003"><path d="M68.19,81.18A16.09,16.09,0,0,0,76.08,95a4.28,4.28,0,0,1,2.12,3.65.71.71,0,0,0,.7.7H89.53a.77.77,0,0,0,.5-.2.79.79,0,0,0,.2-.5A4.24,4.24,0,0,1,92.36,95a16,16,0,0,0,7.87-14A16.22,16.22,0,0,0,85,65.18a16,16,0,0,0-16.8,16Z" style="fill:#fff"></path></g><path d="M75.91,86a3.79,3.79,0,0,0,2.13.54,7.61,7.61,0,0,0,1.24-.11l.2,0,.1.18a12.26,12.26,0,0,1,.89,2.08,28,28,0,0,1,.9,9.11c0,.58,0,1.09,0,1.6h.82c0-.52,0-1,0-1.56a28.68,28.68,0,0,0-1-9.4,14.13,14.13,0,0,0-.79-1.95l-.15-.28.31-.12a8.45,8.45,0,0,0,2.31-1.28,9.16,9.16,0,0,0,1.09-1l.21-.21.2.21a10.17,10.17,0,0,0,1.09,1A8.75,8.75,0,0,0,87.82,86l.31.12L88,86.4a14.13,14.13,0,0,0-.79,1.95,28.63,28.63,0,0,0-.94,9.39c0,.54,0,1.05,0,1.57h.82c0-.51,0-1,0-1.55A27.93,27.93,0,0,1,88,88.6a11.51,11.51,0,0,1,.88-2.08l.1-.18.2,0a7.71,7.71,0,0,0,1.24.11A3.77,3.77,0,0,0,92.52,86a1.25,1.25,0,0,0,.56-1.48,1.55,1.55,0,0,0-1.54-1.09,3.81,3.81,0,0,0-2.85,1.85l-.12.17-.2-.07A7.61,7.61,0,0,1,86,84.07a8.07,8.07,0,0,1-1.1-1l-.16-.16.13-.19a4.79,4.79,0,0,0,1-4,1.79,1.79,0,0,0-3.37,0,4.82,4.82,0,0,0,1,4l.14.19-.17.16a8,8,0,0,1-1.09,1,7.72,7.72,0,0,1-2.36,1.26l-.2.07-.13-.17a3.81,3.81,0,0,0-2.85-1.85,1.55,1.55,0,0,0-1.54,1.09A1.29,1.29,0,0,0,75.91,86Zm13.48-.33.41-.44a2.63,2.63,0,0,1,1.74-1,.75.75,0,0,1,.77.53.51.51,0,0,1-.26.55,3.12,3.12,0,0,1-1.7.39H90ZM84,81.86A3.73,3.73,0,0,1,83.31,79a1,1,0,0,1,1.82,0,3.78,3.78,0,0,1-.67,2.86l-.24.4Zm-7.85,2.86a.77.77,0,0,1,.77-.52,2.63,2.63,0,0,1,1.74,1l.41.44-.6,0h-.35a3.15,3.15,0,0,1-1.71-.39A.52.52,0,0,1,76.12,84.72Z" style="fill:#fafafa"></path></g></g></g><g id="freepik--Character--inject-218"><g id="freepik--character--inject-218"><g id="freepik--Bottom--inject-218"><path d="M89.76,351.74c-2.12.67-4,3.14-4.1,4.44a31.18,31.18,0,0,0,1.43,9,26.82,26.82,0,0,1,.39,15.39c-1.48,5.24-1.77,15.85,2.73,21s9.38,8.93,15.68,8,9.66-9.16,10-13.87Z" style="fill:#37474f"></path><path d="M91.16,397.29a11.12,11.12,0,0,1-1.48-3.2c-.8-2.87-1.42-6.51-.77-9.4.74-3.29,1.75-6.58,1.92-10a41.93,41.93,0,0,0-.74-10.6c-.55-2.77-1.61-5.72-1.45-8.59.49-8.69,9.28-10.56,13.87-12.91l13.49-18L129.78,346s-8.36,6.39-10.65,8.69c-3,3.05-5,8.71-6.13,12.68-1.48,5.05-3.58,10.48-2,15.71a42.57,42.57,0,0,0,3.84,8,8.39,8.39,0,0,1,1,2.33c.45,2.28-1,4.46-2.43,6.33-2.27,3-5.09,6.33-8.87,6.35-2.16,0-4.14-1.1-6-2.24C95.78,402.08,93,400,91.16,397.29Z" style="fill:#f28f8f"></path><path d="M112.41,384.51a21,21,0,0,1-.51-10c.8-3.52,2.72-10.73,3.9-12.89s2.57-3.14,1.85-3.52-11.3.28-14.61,1.25-3.11,3.11-4.4,5.14c0,0,1.55-4.6.43-8.21-.83-2.66-1.95-10.18,2.19-12.77l1.29-.93s-.21-1.13-2-.1-7.7,4.34-9.55,6.36-4,4.43-3.14,9.46,2,6.35,2.2,11.54a45.54,45.54,0,0,1-1.39,13.76,21.44,21.44,0,0,0,2.18,14.81Z" style="fill:#455a64"></path><path d="M203.42,220.25s0,30.82-9.64,61.23c-7.16,22.59-13.3,27.47-16.5,30.44-14.22,13.18-54.91,39.89-54.91,39.89s-12.53-6.63-13.67-18.06C119,320.18,135.44,297.18,146,294.62l-5.3-74.37Z" style="fill:#37474f"></path><path d="M106.23,407.05c3.65-1.13,8.17-5.46,9.63-11.43,1.19-4.86-2.86-9.47-3.45-11.11-.52-.53-5.38-1-12.51,2.52s-8.66,7.32-9,11.41C92.42,402,100.89,408.71,106.23,407.05Z" style="fill:#f0f0f0"></path><path d="M197.09,394.56c-1.72-.06-1.16-2.34-1.78-7.67s-2-28.22-2-28.22L165.81,366s5.25,19.44,6.95,25.07c1.88,6.25,4.53,14.83,4.64,19.56s-.94,17.79,4.69,20.72,11.33.79,15.46-1.36,9.47-10.54,14.2-14.6,8.59-6.18,12.35-10.47,4.66-15.78.43-18.61-10.86-.73-14.83,1.14S200.3,394.65,197.09,394.56Z" style="fill:#f28f8f"></path><path d="M128.44,219.71c-1.69,8.59-1.28,25.44,5.39,41.58s8.36,19.11,23.08,55.68c-.73,7.81-1.35,15.59,2.9,30.8,5.28,18.9,11.1,39.23,11.1,39.23s8.35-11,24.09-7.47c.05-9-1.06-52.27-2.42-65.14-1.69-16-9-71-9-71s16.09-5.44,19.83-23.12Z" style="fill:#455a64"></path><path d="M178,427.29c-.9-3.59-1.32-7.4-1.24-14.31s-1-9.1-1-9.1,1.15-4.46,8.69-9.31,11.66-1.81,11.66-1.81,1.32,2.92,6.26-1.71l7.14,11.28Z" style="fill:#455a64"></path><path d="M225.22,385.82c-2.37-2.74-6.53-3.12-12.33-.91a32.64,32.64,0,0,0-10.51,6.14s-3.44,5,.61,9S225.22,385.82,225.22,385.82Z" style="fill:#f0f0f0"></path><path d="M228.73,391a5.67,5.67,0,0,0-1.74-3.95c-.34-.27-1.54-1.06-1.77-1.25-3-2.43-9.32,1.53-14.67,5.49-6.24,4.62-12.56,14.5-17.89,21.09s-11.34,8.73-13.55,11.65a5.14,5.14,0,0,0-.08,6.36c.26.36,1.25,1.48,1.45,1.71,1.37,1.6,4,2.46,7.24,2.17,6.53-.6,11.34-2.17,17.39-9.2s9.25-10.65,15.92-14.88S229.44,397.24,228.73,391Z" style="fill:#37474f"></path><path d="M228.73,391c-1-8.7-9.48-3.58-16.41,1.55-6.23,4.61-12.56,14.5-17.89,21.09s-11.47,8.63-13.55,11.65c-3.77,5.48.3,9.57,6.84,9s11.34-2.17,17.39-9.2,9.25-10.65,15.92-14.88S229.44,397.24,228.73,391Z" style="fill:#263238"></path><path d="M198.78,393.48h0c-2,.67-2.66-.72-2.66-.72-6.7,5.55-7.75,9.44-7.75,9.44S195,395.51,198.78,393.48Z" style="fill:#37474f"></path><path d="M176.06,244.84a248.83,248.83,0,0,1,7.56,31.06,317.43,317.43,0,0,1,4.54,31.68c.64,10.63,1.25,21.27,1.73,31.91s.88,21.28,1.11,31.93q-1.67-15.9-2.87-31.81c-.84-10.61-1.55-21.22-2.23-31.84-.33-5.28-1.06-10.53-1.74-15.8s-1.48-10.52-2.27-15.77-1.68-10.5-2.63-15.73S177.28,250,176.06,244.84Z" style="fill:#37474f"></path></g><g id="freepik--Top--inject-218"><g id="freepik--top--inject-218"><g id="freepik--Arm--inject-218"><path d="M264.2,86.48a16.56,16.56,0,0,0-1.88-5.13c-.87-1.6-1.48-3-3-4.21a12.89,12.89,0,0,1-1.23-1,12.8,12.8,0,0,1-1.07-1.36,5.39,5.39,0,0,0-3.76-2.36c-.39,0-.78,0-1.16,0-1.26-.15-2.34-1.15-3.6-1.09-1.07,0-2,.84-3.09.71a5.11,5.11,0,0,1-2.18-1.27,2,2,0,0,0-2.35-.33,2.27,2.27,0,0,0-.6.91c-1,2.15.72,4.09,2,5.7a26.08,26.08,0,0,1,2.08,2.72c.8,1.4.7,3.5.64,5.07s-.27,3.33-.33,5c-.05,1.39.21,2.76.17,4.14-.06,2.32-.34,3.55-2.2,1.54s-3.39-3.67-5.37-4.34c-3.31-1.12-4.46.74-3.22,2.28,1.74,2.17,3.2,5,5.61,8.79,1.27,2,2.33,3.88,3.3,5.17,3.33,4.58,1.63,8.37.23,14.07-1.15,4.67-2.69,8.8-5.81,18.59-3,9.29,4.77,23.43,12.16,22.76,8.47-.77,9.32-5.89,10.32-16.25.85-8.78.51-23.77.66-27.36a30.12,30.12,0,0,1,1.37-8.11c1.46-5.33,2.36-9.32,2.51-13.11s.43-7.54-.18-11.26C264.23,86.65,264.21,86.56,264.2,86.48Z" style="fill:#ffa8a7"></path><path d="M246.92,97.61c3.41,1,8.15,6.17,9.24,10.62C256.82,102.63,252,97.38,246.92,97.61Z" style="fill:#f28f8f"></path><path d="M242.19,124l1.42-5.45a15.88,15.88,0,0,0,8.08,3.36,18.34,18.34,0,0,0,9-.77l.12,5a20.78,20.78,0,0,1-9.61,1.31A19.78,19.78,0,0,1,242.19,124Z" style="fill:#f5f5f5"></path><path d="M237.05,139.12s-7.58-1.24-21.94-4.13c-14.9-3-17.42-3.64-21.51-4.19v33.31s37.06,1.66,47.18,1.93c15.67.43,16-1.64,17.49-6.73,1.68-5.53,2.56-15.4,2.74-23s.08-12.38.08-12.38-3,2.52-10.1,1.41-8.32-4.1-8.32-4.1Z" style="fill:#455a64"></path><g id="freepik--Telescope--inject-218"><g id="freepik--Lens--inject-218"><path d="M200.32,94.05a2.54,2.54,0,0,0-1.68,1.6,4.41,4.41,0,0,0,1.68,5,2.87,2.87,0,0,0,2.33.47l27.25-6.44c.74-.21,1.12-2,1.45-2.86a4.41,4.41,0,0,0-1.68-5c-.78-.52-2.15-1.83-2.88-1.64C226.55,85.25,200.55,94,200.32,94.05Z" style="fill:#455a64"></path></g><g id="freepik--lens--inject-218"><path d="M209.1,88.21a4.86,4.86,0,0,0-3.19,3,8.32,8.32,0,0,0,3.17,9.42,5.4,5.4,0,0,0,4.41.89c.46-.12,51-12,51.39-12.15,1.39-.38,2.12-3.79,2.74-5.39a8.31,8.31,0,0,0-3.17-9.42c-1.48-1-4.06-3.47-5.43-3.1C258.57,71.61,209.53,88.09,209.1,88.21Z" style="fill:#263238"></path></g><g id="freepik--lens--inject-218"><path d="M220.34,83.05A6.24,6.24,0,0,0,216.22,87c-1.61,4.14.23,9.6,4.1,12.2a7,7,0,0,0,5.7,1.15c.6-.16,62.68-14.65,63.23-14.8,1.8-.5,2.74-4.9,3.55-7,1.61-4.13-.23-9.59-4.1-12.19-1.91-1.28-5.25-4.49-7-4C281.09,62.49,220.9,82.89,220.34,83.05Z" style="fill:#fafafa"></path><path d="M282.06,63c1.09,0,3.08,1.54,4.54,2.67.61.47,1.18.92,1.68,1.25,3.59,2.41,5.31,7.48,3.82,11.3-.19.49-.38,1.09-.59,1.73-.54,1.69-1.45,4.52-2.45,4.8-.47.12-19.27,4.51-35.86,8.39l-27.37,6.4a5.12,5.12,0,0,1-1.36.17,6.73,6.73,0,0,1-3.73-1.22c-3.59-2.4-5.31-7.47-3.82-11.3a5.51,5.51,0,0,1,3.62-3.46c.27-.07,11-3.7,28.48-9.62,15.16-5.13,32.34-10.94,32.84-11.09a.62.62,0,0,1,.2,0m0-.75a1.23,1.23,0,0,0-.39.05c-.58.15-60.77,20.55-61.33,20.71A6.24,6.24,0,0,0,216.22,87c-1.61,4.14.23,9.6,4.1,12.2a7.49,7.49,0,0,0,4.15,1.34,6.15,6.15,0,0,0,1.55-.19c.6-.16,62.68-14.65,63.23-14.8,1.8-.5,2.74-4.9,3.55-7,1.61-4.13-.23-9.59-4.1-12.19-1.78-1.19-4.8-4.05-6.64-4.05Z" style="fill:#e0e0e0"></path><path d="M281.87,83.89c5.2,3.48,11.17,1.8,13.33-3.75s-.31-12.88-5.51-16.36S278.53,62,276.37,67.53,276.67,80.41,281.87,83.89Z" style="fill:#e0e0e0"></path></g><path d="M278.46,85.34a10.56,10.56,0,0,0,5.63,2h.48l3,.06h-.22l-.42,0a8.55,8.55,0,0,1-.86-.14,12,12,0,0,1-4.42-1.94,13.83,13.83,0,0,1-2-1.69c-4.41-4.49-6-11.87-3.35-17.6a11.63,11.63,0,0,1,2.72-3.84l.24-.22.22-.18,0,0,.47-.37.17-.12-2.7,1.69h0a8.59,8.59,0,0,0-.73.5,10.6,10.6,0,0,0-3.23,4.14,15.11,15.11,0,0,0,3.61,16.73c.19.18.39.35.58.51l.08.07Z" style="fill:#263238"></path><path d="M247,93.31A12.07,12.07,0,0,1,245.43,92a13.2,13.2,0,0,1-2.75-14.16,9.44,9.44,0,0,1,2.08-3l-8.69,2.94A8.53,8.53,0,0,0,233.6,81a12.15,12.15,0,0,0,3,13.45l.48.41.06,0a6.41,6.41,0,0,0,.52.39,8.84,8.84,0,0,0,3.57,1.48L250,94.7A9.87,9.87,0,0,1,247,93.31Z" style="fill:#263238"></path><path d="M219.35,93.34a1.17,1.17,0,0,0-.64,1A3.73,3.73,0,0,0,220,97.47a1.2,1.2,0,0,0,1.17.28c.19-.08,1-.39,1.14-.48a1.17,1.17,0,0,0,.64-1,3.73,3.73,0,0,0-1.29-3.12,1.17,1.17,0,0,0-1.17-.27Z" style="fill:#37474f"></path><path d="M220,97.47a1,1,0,0,0,1.8-.74,3.75,3.75,0,0,0-1.29-3.12,1.2,1.2,0,0,0-1.16-.27,1.17,1.17,0,0,0-.64,1A3.73,3.73,0,0,0,220,97.47Z" style="fill:#455a64"></path><path d="M303.2,53.39a11.32,11.32,0,0,0-7.33,6.48,17.23,17.23,0,0,0,5.54,20.43,11.44,11.44,0,0,0,9.43,2c1-.25,7.54-2.14,8.48-2.39a11.31,11.31,0,0,0,7.34-6.48A17.24,17.24,0,0,0,321.12,53a11.44,11.44,0,0,0-9.5-2C310.63,51.27,304.15,53.14,303.2,53.39Z" style="fill:#fafafa"></path><path d="M281.75,85.75a12,12,0,0,0,9.55,2.13l.47-.11L303,85.13h0c-16,2.55-22.47-23.61-8.43-30l-10.85,3.7C272.12,61.83,272.52,79.74,281.75,85.75Z" style="fill:#BA68C8"></path><path d="M281.75,85.75a12,12,0,0,0,9.55,2.13l.47-.11L303,85.13h0c-16,2.55-22.47-23.61-8.43-30l-10.85,3.7C272.12,61.83,272.52,79.74,281.75,85.75Z" style="fill:#fff;opacity:0.25"></path><path d="M293.58,83.06c6.32,4.46,14,2.4,17.24-4.61a17.53,17.53,0,0,0-5.64-20.79c-6.33-4.48-13-4.87-17.31,4.56C284.67,69.24,287.26,78.59,293.58,83.06Z" style="fill:#BA68C8"></path><path d="M315.65,55.34a16.28,16.28,0,0,1,5.24,19.31,11.55,11.55,0,0,1-3.51,4.48A10.21,10.21,0,0,1,314,80.78h0l-9.43,2.57-.23.07a10.59,10.59,0,0,1-1.37.23,11,11,0,0,1-7.61-2.13,16.29,16.29,0,0,1-5.24-19.31,11,11,0,0,1,5.5-5.63,7.94,7.94,0,0,1,1.18-.44l.07,0,.45-.12,9.25-2.53h0A10.81,10.81,0,0,1,315.65,55.34Z" style="fill:#BA68C8"></path><path d="M315.65,55.34a16.28,16.28,0,0,1,5.24,19.31,11.55,11.55,0,0,1-3.51,4.48A10.21,10.21,0,0,1,314,80.78h0l-9.43,2.57-.23.07a10.59,10.59,0,0,1-1.37.23,11,11,0,0,1-7.61-2.13,16.29,16.29,0,0,1-5.24-19.31,11,11,0,0,1,5.5-5.63,7.94,7.94,0,0,1,1.18-.44l.07,0,.45-.12,9.25-2.53h0A10.81,10.81,0,0,1,315.65,55.34Z" style="fill:#fff;opacity:0.15"></path><path d="M327.09,57.4a16.51,16.51,0,0,0-4.39-5.24c-.12-.09-.25-.16-.38-.25-3.67-2.72-7.53-3.53-10.95-2.46l-.1,0-8.22,2.76a13.86,13.86,0,0,0-8.33,6.82,17.71,17.71,0,0,0,5.11,21.8,12.53,12.53,0,0,0,10.23,2.64c1-.21,7.28-1.71,9.07-2.12a12.27,12.27,0,0,0,8.59-6.77A18.75,18.75,0,0,0,327.09,57.4Z" style="fill:#BA68C8"></path><path d="M327.09,57.4a16.51,16.51,0,0,0-4.39-5.24c-.12-.09-.25-.16-.38-.25-3.67-2.72-7.53-3.53-10.95-2.46l-.1,0-8.22,2.76a13.86,13.86,0,0,0-8.33,6.82,17.71,17.71,0,0,0,5.11,21.8,12.53,12.53,0,0,0,10.23,2.64c1-.21,7.28-1.71,9.07-2.12a12.27,12.27,0,0,0,8.59-6.77A18.75,18.75,0,0,0,327.09,57.4Z" style="fill:#fff;opacity:0.25"></path><path d="M208.08,99.85a6.51,6.51,0,0,0,1,.82,5.46,5.46,0,0,0,4.4.89l7.8-1.85a6.74,6.74,0,0,0,4.74.6c.21-.06,8.33-2,18.68-4.37l.26-.07,37.49-8.76a10.13,10.13,0,0,0,1.63.22h.66a11.37,11.37,0,0,0,6.56.54l.46-.11L303,85.13H303a10.44,10.44,0,0,0,3.52-1.5,11.52,11.52,0,0,0,3.57-.15c1-.21,7.28-1.7,9.08-2.12A11.27,11.27,0,0,0,322.84,80l0,0a11.94,11.94,0,0,0,1-.71l.1-.07c.31-.25.61-.51.91-.79.05,0,.11-.09.16-.15a10.37,10.37,0,0,0,.77-.84l.21-.23c.23-.29.45-.6.67-.92.06-.09.14-.18.2-.28a14.41,14.41,0,0,0,.77-1.33c.21-.41.4-.84.57-1.26l.14-.38c.12-.32.24-.65.34-1,0-.12.07-.23.11-.35.11-.43.22-.86.3-1.29,0-.14.05-.28.07-.42.06-.3.1-.61.14-.92,0-.12,0-.25,0-.38l-33.15,8.53-1.07-1.52-4.11,1.21L289,78l.58.93-11.67,3Z" style="opacity:0.2"></path><path d="M309.09,78.73C315.63,83.79,324,82,327.72,74.6s1.47-17.4-5.07-22.46c-6.89-5.33-14.54-3.9-18.63,4.13C300.28,63.61,302.55,73.67,309.09,78.73Z" style="fill:#BA68C8"></path><path d="M321.73,78.43c-3.81,2.61-7.85.08-9.41-1.13-6.09-4.71-8.29-14.47-4.81-21.3a10.41,10.41,0,0,1,3.3-3.94c3.81-2.62,7.85-.09,9.41,1.12,6.09,4.71,8.29,14.47,4.81,21.31a10.48,10.48,0,0,1-3.3,3.94Z" style="opacity:0.2"></path><path d="M315.82,54.17a10.78,10.78,0,0,0-4.88-2.2l-.13.09a10.41,10.41,0,0,0-3.3,3.94c-3.48,6.83-1.28,16.59,4.81,21.3a10.58,10.58,0,0,0,4.88,2.2l.13-.08a10.55,10.55,0,0,0,3.29-3.94C324.11,68.64,321.91,58.88,315.82,54.17Z" style="fill:#BA68C8"></path><path d="M315.82,54.17a10.78,10.78,0,0,0-4.88-2.2l-.13.09a10.41,10.41,0,0,0-3.3,3.94c-3.48,6.83-1.28,16.59,4.81,21.3a10.58,10.58,0,0,0,4.88,2.2l.13-.08a10.55,10.55,0,0,0,3.29-3.94C324.11,68.64,321.91,58.88,315.82,54.17Z" style="fill:#fff;opacity:0.6000000000000001"></path><path d="M307.38,56.27c-3.29,6.82-1.07,16.38,4.94,21h0a8.11,8.11,0,0,0,6.29-4.6,12.51,12.51,0,0,0-3.38-15A8.16,8.16,0,0,0,307.38,56.27Z" style="fill:#BA68C8;opacity:0.1"></path><path d="M305.89,62.18a19.21,19.21,0,0,0,2.47,10.51,5.09,5.09,0,0,0,7.45-2.16,8,8,0,0,0-2.18-9.65A5.1,5.1,0,0,0,305.89,62.18Z" style="fill:#BA68C8;opacity:0.2"></path><path d="M308.3,60.27c-.07-3.94,2.81-6.6,4.35-6.39s10.7,7.24,7.29,19c0,0,.87-7.62-3-13C313.36,54.78,309.12,56.54,308.3,60.27Z" style="fill:#fff;opacity:0.6000000000000001"></path></g><path d="M242.66,95.51c-1.76-1.88-3.39-3.67-5.37-4.34-3.31-1.12-4.46.74-3.22,2.28,1.74,2.17,3.2,5,5.61,8.79,1.27,2,2.33,3.88,3.3,5.17l.93-10.92A3.25,3.25,0,0,1,242.66,95.51Z" style="fill:#ffa8a7"></path></g><g id="freepik--Chest--inject-218"><path d="M202.45,161.07c-.89-23-7.64-28.93-11.68-30.55L171,127.08c-5,.61-23.84,7-29.68,8.49-3.76,1-6,8.61-7.74,20.72a231.79,231.79,0,0,0-2.19,33.2c-.1,12.44-.57,19.66-3.23,37.5,25.94,7.61,54,13,73-2-.48-3.23,1.18-30.16,1.26-38.1S202.69,167.3,202.45,161.07Z" style="fill:#fafafa"></path><g id="freepik--Neck--inject-218"><path d="M181.54,153.77c.64-4.62,3.26-6.22,4.74-6.35a6.79,6.79,0,0,1,5.68,1.9,42,42,0,0,0-7.2-15.48c-5-6.33-6.52-7.13-6.52-7.13l-.2,7.14a24.22,24.22,0,0,1,2,7.28,84.9,84.9,0,0,1,.5,11.1A2.71,2.71,0,0,1,181.54,153.77Z" style="fill:#e0e0e0"></path><path d="M155.26,126.22c-2,.75-1.72,3.21-7.46,6.1a36.67,36.67,0,0,0,19,23.79,15.06,15.06,0,0,1,6.81-4.92c4.25-1.45,7.81,2.34,7.81,2.34a7.58,7.58,0,0,0-2.1-3c-7-5.91-11.29-9.44-15-12.05-9.82-6.89-9.16-10.67-9.16-10.67Z" style="fill:#e0e0e0"></path></g><path d="M134.48,136.45s9.59-3.11,13.2-4.72A19.29,19.29,0,0,0,153.3,128a17,17,0,0,0,.32,5.92c.75,3.72,2.86,7.34,4.57,11.77,4,10.34,4.11,18.58,4.38,41,.21,17.42-2.12,46.62-2.7,59.38-7.74.45-28.72-4.34-33.08-7.54-.58-19.3,3.36-26.12,3.74-45.9C130.88,174.83,125.38,140.76,134.48,136.45Z" style="fill:#263238"></path><path d="M147.9,135.26c.22,4.7.41,9.4.54,14.1l.22,7,.14,7-.18-.36c2.73,2,5.48,4,8.19,6.07l.32.24-.16.35-4.81,10.71v-.33c1.39,3.54,2.72,7.11,4.09,10.67s2.68,7.13,4,10.71q-2.3-5.23-4.5-10.51c-1.46-3.51-3-7-4.38-10.55l-.07-.17.08-.17,4.7-10.76.16.6c-2.74-2-5.44-4.09-8.16-6.13l-.18-.13v-.23l-.08-7v-7Q147.78,142.32,147.9,135.26Z" style="fill:#37474f"></path><path d="M180.84,129.31c6.81,9.16,9.93,14.17,11.48,29.2,1.11,10.9,1.29,26.74,1.56,35,.9,27.36,2.74,46.86,2.74,46.86a18.54,18.54,0,0,0,9.83-5.86c-1.36-17.65-2.15-41.34-2.29-48.19s-.68-22.66-1-31-2.47-18.89-9.53-24.49c-7-1.38-14.34-3.25-14.34-3.25Z" style="fill:#263238"></path><path d="M185.66,131.35a46.23,46.23,0,0,1,5.06,6.18,61.85,61.85,0,0,1,4.16,6.85,64.9,64.9,0,0,1,3.31,7.31,78.18,78.18,0,0,1,2.47,7.64l.05.18-.1.17-3.88,6.56v-.51l5.21,8.79.1.16,0,.17-1.55,6.57-1.6,6.56c-1,4.37-2.16,8.73-3.29,13.09.87-4.42,1.75-8.83,2.7-13.23l1.41-6.6,1.46-6.59.05.33-5.3-8.74-.15-.26.15-.25,3.92-6.53-.05.36a74.54,74.54,0,0,0-2.37-7.57,78.12,78.12,0,0,0-3.1-7.31,74.74,74.74,0,0,0-3.9-6.92A51.84,51.84,0,0,0,185.66,131.35Z" style="fill:#37474f"></path><g id="freepik--Head--inject-218"><path d="M155.94,120.08c-1-5.56-6.65-11.31-9.21-16.13-2.47-4.66-3.95-8.27-3.74-12.68.13-2.61,1.73-6.17,3.65-6.94-2.36-9.67,4.86-14.26,8.71-15.24a40.57,40.57,0,0,0,5.32-1.56c2.09-.9,2.55-2.6,4.22-4.06,2.88-2.52,7.8-2.64,9.72,1.09,1.9-2.54,4.54-2.51,7.59-1.78a5.2,5.2,0,0,1,4.06,5.82c4-2.33,7.8.49,8.21,2.88.3,1.76-.06,3.25,1.12,4.82,1.32,1.76,3.78,1.7,4.51.25.45,2.5-.5,4.42-3.22,4.32a5.73,5.73,0,0,1,.77,4.78A5.2,5.2,0,0,1,193,89.29a7.91,7.91,0,0,1-4.32,6.76c-4.09,2-8.63,2.72-13.05,3.69l-5.25,1.16c-.3.07-1.89.19-2.07.46Z" style="fill:#263238"></path><path d="M149.09,113c3.95,2.29,6.57-.28,6.57-.28l-.29,11.24-.18,3.85c0,3.14,4,7.25,9,10.77,6.59,4.61,15,11.93,16.36,13.12.39-2.89-.34-13.82-2.51-17.81l.33-8.66a53.55,53.55,0,0,0,6.62-.38,11.58,11.58,0,0,0,9.2-8.92,50.19,50.19,0,0,0,.34-19,16.1,16.1,0,0,1-.3-4.59c.37-4.07-.4-6.42-1.49-9.82-4.86-3.82-18.48-4.44-28.76,2,2.29,5.26,1,10.65-3.5,13.07.24,1.66.5,5.87-2.24,5.82-2,0-2.14-2.5-4.19-4.65s-6.8-2.68-8.58.56C143,103.85,144.76,110.45,149.09,113Z" style="fill:#ffa8a7"></path><path d="M178.37,125.19c-6.94-.73-12.22-1.41-15.9-6.39a43.61,43.61,0,0,1-4.28-8.16s.79,6.13,3.1,10.26c1.79,3.18,6.11,5.8,17,6.59Z" style="fill:#f28f8f"></path><path d="M191.9,92.05l-4.65-1.21a2.32,2.32,0,0,1,2.85-1.76A2.52,2.52,0,0,1,191.9,92.05Z" style="fill:#263238"></path><path d="M191.12,96.43a2,2,0,1,1-2-2A2,2,0,0,1,191.12,96.43Z" style="fill:#263238"></path><path d="M188.28,104.52l-6.75,3.1-2.27-13.28C181.77,93.4,185.1,99.48,188.28,104.52Z" style="fill:#f28f8f"></path><path d="M173.14,93.09l-4,2.66a2.53,2.53,0,0,1,.71-3.43A2.34,2.34,0,0,1,173.14,93.09Z" style="fill:#263238"></path><path d="M175.56,98.35c.19.38-1.17-.26-2.48.06-1.68.41-2.51,2.17-2.45,1.08a2.44,2.44,0,0,1,2.13-2.33A2.3,2.3,0,0,1,175.56,98.35Z" style="fill:#263238"></path><path d="M174.79,110.85l8.18,1.63a4.09,4.09,0,0,1-4.82,3.41A4.37,4.37,0,0,1,174.79,110.85Z" style="fill:#b16668"></path><path d="M175.8,112.16a4.81,4.81,0,0,0-1,0,4.31,4.31,0,0,0,3.36,3.7,4,4,0,0,0,1.34,0A3.82,3.82,0,0,0,175.8,112.16Z" style="fill:#f28f8f"></path></g></g><polygon points="237.27 177.19 181.21 184.89 156.96 250.35 210.44 241.64 237.27 177.19" style="fill:#BA68C8"></polygon><path d="M188.16,224.4c-.46,1.76-3,7.74-9.48,9.06a52.53,52.53,0,0,1-15.58.31l2.78-7.5Z" style="opacity:0.15"></path><path d="M220.18,185l.7-2c.39-1.11-2.8-1.55-7.11-1l-8.25,1.1c-4.32.57-8.13,1.94-8.51,3.06l-.7,2Z" style="opacity:0.15"></path><path d="M224.9,177.66c.24-.69-1-1-2.84-.77l-3.27.49s1.49-4.36-5.74-3.65-9.38,5.61-9.38,5.61l-3.5.55c-1.93.3-3.75,1.1-4.06,1.79l-.55,1.24,28.88-4Z" style="fill:#BA68C8"></path><path d="M224.9,177.66c.24-.69-1-1-2.84-.77l-3.27.49s1.49-4.36-5.74-3.65-9.38,5.61-9.38,5.61l-3.5.55c-1.93.3-3.75,1.1-4.06,1.79l-.55,1.24,28.88-4Z" style="opacity:0.30000000000000004"></path><path d="M197.32,186.42c.32-.92,3-2,6.39-2.7l.11-.32c.31-1,0-1.62-2.07-1.34l-.07-.81,20-2.58-.92.76c-2.64.31-3.75.52-4.34,2.24l-.14.39c3.13-.18,5.22.27,4.9,1.18-.38,1.11-.7,2-.7,2l-23.87,3.18Z" style="fill:#BA68C8"></path><path d="M197.32,186.42c.32-.92,3-2,6.39-2.7l.11-.32c.31-1,0-1.62-2.07-1.34l-.07-.81,20-2.58-.92.76c-2.64.31-3.75.52-4.34,2.24l-.14.39c3.13-.18,5.22.27,4.9,1.18-.38,1.11-.7,2-.7,2l-23.87,3.18Z" style="opacity:0.4"></path><path d="M97.57,201.44a79.31,79.31,0,0,1,3.76-15.21l22.68,10s4.82,2.51,15.86,7.79c6,2.86,11.36,5,16.59,3.93,1.54-.31,6.82-1.05,8.39-1.18s3.42.05,5.13,0c1.1,0,3.26-.37,3.26-.37l-2.21,6-.45.18c-1.4.56-.45,1.57.53,2a22.59,22.59,0,0,0,8.95,1.54,51.33,51.33,0,0,0,9.07-1.11,5.62,5.62,0,0,1,1.58-.16,1.65,1.65,0,0,1,1.27,2.7,6.49,6.49,0,0,1-1.45,1.51,4.08,4.08,0,0,0-1.28,1.64c-.33,1,0,2.12-.45,3-.55,1.06-1.93,1.34-2.86,2.09a13,13,0,0,0-1.92,2.47,8.91,8.91,0,0,1-4,2.74c-4.34,1.61-8.73,1.15-13.22.57-9.36-1.22-16.44-4.83-20.94-6.21s-10.2-2.4-23.64-6.11c-11-3-13.92-4.11-17.92-5.69C99.53,211.62,96.63,209,97.57,201.44Z" style="fill:#ffa8a7"></path><path d="M138.56,202.85l8.26,3.7a22.77,22.77,0,0,0-6.34,8.36c-2.59,5.62-1.92,9.32-1.92,9.32l-6.44-1.54s-.86-3.75,1.64-10.38S138.56,202.85,138.56,202.85Z" style="fill:#f5f5f5"></path><path d="M124,195.13l11.74-26.93a50.92,50.92,0,0,0-.94-32c-8.25,2.49-16,4.18-19.5,11.41a143.1,143.1,0,0,0-6.5,15.79c-4,10.71-7.08,17.94-8.85,24.53S97.13,198,96.46,202.1c-1.43,8.67,1.21,9.7,7.46,12.76s30.69,9.54,30.69,9.54-1-2.2.95-9a23.38,23.38,0,0,1,7.33-10.91Z" style="fill:#37474f"></path></g></g></g></g></svg>
